{"glyphs":{"0":{"ha":833,"x_min":81,"x_max":822,"o":"m 81 293 q 110 543 81 418 q 197 767 139 668 q 343 927 256 865 q 547 989 431 989 q 648 974 599 989 q 736 925 697 960 q 799 832 775 890 q 822 688 822 774 q 793 434 822 560 q 704 208 764 308 q 556 46 644 108 q 349 -17 467 -17 q 226 8 276 -17 q 142 74 175 32 q 95 172 110 115 q 81 293 81 228 m 236 278 q 249 157 236 203 q 280 85 261 111 q 322 51 299 60 q 369 42 346 42 q 457 70 417 42 q 530 147 497 99 q 588 262 563 196 q 631 403 614 328 q 658 558 649 478 q 667 717 667 639 q 636 880 667 829 q 542 931 606 931 q 411 873 468 931 q 315 722 354 815 q 256 513 276 629 q 236 278 236 396 z "},"1":{"ha":833,"x_min":126,"x_max":638,"o":"m 586 0 l 126 0 l 146 89 l 304 89 l 471 872 l 299 785 l 265 854 l 492 972 l 638 972 l 450 89 l 606 89 l 586 0 z "},"2":{"ha":833,"x_min":22,"x_max":796,"o":"m 326 740 l 193 740 l 226 894 q 369 965 294 944 q 535 986 443 986 q 660 970 610 986 q 740 928 710 954 q 783 867 769 901 q 796 794 796 832 q 748 631 796 715 q 620 463 700 546 q 438 300 540 379 q 225 153 335 221 l 147 111 l 147 106 l 239 111 l 561 111 l 594 142 l 621 272 l 710 272 l 653 0 l 22 0 l 47 117 q 154 184 93 142 q 281 280 215 226 q 412 395 347 333 q 527 524 476 457 q 609 658 578 590 q 640 790 640 726 q 634 835 640 813 q 612 874 628 857 q 567 901 596 890 q 496 911 539 911 q 419 904 450 911 q 358 886 389 897 l 326 740 z "},"3":{"ha":833,"x_min":32,"x_max":844,"o":"m 315 61 q 444 88 392 61 q 530 153 497 114 q 577 241 563 193 q 592 333 592 289 q 546 438 592 406 q 404 469 500 469 l 304 469 l 324 564 l 692 867 l 692 872 l 608 861 l 338 861 l 304 833 l 279 722 l 190 722 l 244 972 l 844 972 l 821 864 l 519 617 l 429 558 l 429 556 l 482 565 q 581 553 533 565 q 666 515 629 542 q 725 444 703 488 q 747 340 747 401 q 722 207 747 271 q 644 94 697 143 q 506 15 590 44 q 303 -14 422 -14 q 226 -8 267 -14 q 149 6 186 -3 q 81 28 113 15 q 32 58 50 42 l 67 222 l 200 222 l 174 99 q 228 73 189 85 q 315 61 267 61 z "},"4":{"ha":833,"x_min":3,"x_max":818,"o":"m 689 0 l 281 0 l 300 89 l 443 89 l 481 268 l 3 268 l 22 357 l 631 972 l 776 972 l 646 357 l 818 357 l 799 268 l 626 268 l 589 89 l 708 89 l 689 0 m 586 763 l 617 863 l 613 863 l 543 763 l 178 393 l 117 347 l 219 357 l 500 357 l 586 763 z "},"5":{"ha":833,"x_min":65,"x_max":861,"o":"m 772 1042 l 861 1042 l 822 861 l 399 861 l 343 597 l 425 597 q 560 580 503 597 q 654 532 617 563 q 710 460 692 501 q 728 369 728 418 q 703 217 728 288 q 624 96 678 147 q 486 15 571 44 q 283 -14 401 -14 q 161 0 219 -14 q 65 46 103 14 l 97 194 l 231 194 l 204 74 q 244 66 218 71 q 299 61 271 61 q 431 86 378 61 q 515 151 483 111 q 559 242 546 192 q 572 340 572 292 q 510 458 572 426 q 329 489 447 489 l 231 489 l 333 972 l 729 972 l 763 1000 l 772 1042 z "},"6":{"ha":833,"x_min":82,"x_max":799,"o":"m 781 354 q 756 222 781 288 q 682 102 732 156 q 555 16 632 49 q 374 -17 478 -17 q 229 12 286 -17 q 140 83 172 40 q 94 176 107 126 q 82 271 82 226 q 138 528 82 408 q 291 743 194 649 q 517 899 388 838 q 794 982 647 961 l 799 913 q 628 859 711 896 q 475 767 544 822 q 352 639 406 711 q 269 479 299 567 q 377 551 313 522 q 529 579 442 579 q 642 560 594 579 q 721 510 690 542 q 766 438 751 479 q 781 354 781 397 m 625 353 q 615 410 625 382 q 587 459 606 438 q 539 493 568 481 q 471 506 510 506 q 339 473 397 506 q 249 400 281 440 q 242 375 246 390 q 234 343 238 360 q 228 310 231 326 q 226 282 226 293 q 234 195 226 238 q 260 120 242 153 q 313 68 279 88 q 397 49 346 49 q 490 69 447 49 q 562 130 532 90 q 608 226 592 169 q 625 353 625 282 z "},"7":{"ha":833,"x_min":182,"x_max":889,"o":"m 272 721 l 183 721 l 236 972 l 889 972 l 865 863 l 335 0 l 182 0 l 732 803 l 794 869 l 714 863 l 329 863 l 296 835 l 272 721 z "},"8":{"ha":833,"x_min":64,"x_max":822,"o":"m 64 204 q 85 303 64 258 q 144 384 106 347 q 235 449 182 421 q 353 499 289 478 q 308 531 332 511 q 263 577 283 550 q 229 640 243 604 q 215 724 215 676 q 242 837 215 788 q 315 920 268 886 q 424 972 361 954 q 560 989 488 989 q 678 972 629 989 q 760 928 728 956 q 807 867 792 901 q 822 794 822 832 q 808 713 822 753 q 765 636 794 672 q 688 570 735 600 q 576 519 642 540 q 658 466 625 492 q 713 412 692 440 q 742 350 733 383 q 751 275 751 317 q 723 163 751 215 q 643 70 694 110 q 520 7 592 31 q 364 -17 449 -17 q 226 0 283 -17 q 133 47 169 17 q 81 117 97 76 q 64 204 64 157 m 606 249 q 591 316 606 286 q 550 372 576 346 q 487 419 524 397 q 406 465 450 442 q 302 398 342 432 q 241 331 263 364 q 213 265 219 297 q 206 204 206 233 q 249 92 206 136 q 378 49 292 49 q 481 69 438 49 q 551 119 524 89 q 592 183 579 149 q 606 249 606 218 m 361 749 q 376 683 361 713 q 413 628 390 653 q 465 583 436 603 q 524 547 494 563 q 591 601 561 571 q 640 663 621 631 q 670 727 660 694 q 681 789 681 760 q 542 924 681 924 q 413 879 465 924 q 361 749 361 835 z "},"9":{"ha":833,"x_min":114,"x_max":831,"o":"m 132 624 q 156 758 132 692 q 231 875 181 824 q 358 958 281 926 q 539 989 435 989 q 681 962 625 989 q 771 893 738 935 q 817 801 804 851 q 831 701 831 750 q 774 444 831 564 q 622 229 718 324 q 395 73 525 135 q 118 -10 265 11 l 114 60 q 284 113 201 76 q 437 206 367 150 q 560 333 507 261 q 642 493 613 406 q 535 422 599 450 q 383 393 471 393 q 270 413 318 393 q 192 465 222 433 q 147 539 161 497 q 132 624 132 581 m 288 624 q 297 566 288 594 q 326 515 307 538 q 374 480 344 493 q 442 467 403 467 q 573 499 515 467 q 663 572 631 532 q 669 597 665 582 q 677 629 674 613 q 683 663 681 646 q 686 690 686 679 q 678 781 686 739 q 652 856 671 824 q 600 906 633 888 q 515 924 567 924 q 423 903 465 924 q 351 844 381 882 q 304 750 321 806 q 288 624 288 694 z "}," ":{"ha":381,"x_min":0,"x_max":0,"o":""},"!":{"ha":497,"x_min":111,"x_max":478,"o":"m 242 303 l 242 549 l 332 972 l 478 972 l 388 549 l 283 303 l 242 303 m 111 81 q 140 149 111 124 q 218 174 169 174 q 297 149 267 174 q 328 81 328 124 q 297 14 328 39 q 218 -11 267 -11 q 140 14 169 -11 q 111 81 111 39 z "},"\"":{"ha":546,"x_min":218,"x_max":572,"o":"m 436 972 l 572 972 l 478 699 l 417 699 l 436 972 m 238 972 l 374 972 l 279 699 l 218 699 l 238 972 z "},"#":{"ha":833,"x_min":50,"x_max":776,"o":"m 479 324 l 257 324 l 193 81 l 111 81 l 175 324 l 50 324 l 74 389 l 192 389 l 246 596 l 128 596 l 151 661 l 265 661 l 328 892 l 410 892 l 347 661 l 569 661 l 632 892 l 714 892 l 651 661 l 776 661 l 749 596 l 633 596 l 578 389 l 699 389 l 669 324 l 561 324 l 497 81 l 415 81 l 479 324 m 275 389 l 496 389 l 550 596 l 329 596 l 275 389 z "},"$":{"ha":833,"x_min":50,"x_max":815,"o":"m 596 986 q 724 968 667 982 q 815 939 782 954 l 776 757 l 676 757 l 703 885 q 653 901 686 896 q 581 910 621 907 l 504 551 q 618 470 572 507 q 691 398 664 433 q 729 327 718 363 q 740 251 740 292 q 720 156 740 201 q 657 73 700 110 q 547 13 614 36 q 383 -15 479 -11 l 367 -97 l 285 -97 l 301 -15 q 140 19 204 -8 q 50 68 75 46 l 92 261 l 192 261 l 163 124 q 217 87 176 104 q 318 63 258 69 l 400 450 q 303 514 346 483 q 232 578 261 544 q 188 649 203 611 q 174 736 174 688 q 194 833 174 788 q 256 911 214 878 q 362 965 297 944 q 514 988 426 985 l 529 1056 l 611 1056 l 596 986 m 596 231 q 570 308 596 267 q 472 401 544 349 l 400 63 q 493 83 456 68 q 553 121 531 99 q 586 172 576 143 q 596 231 596 200 m 318 758 q 342 681 318 718 q 432 597 365 643 l 497 910 q 359 864 400 903 q 318 758 318 825 z "},"%":{"ha":1261,"x_min":72,"x_max":1176,"o":"m 1051 996 l 1108 943 l 196 -10 l 142 44 l 1051 996 m 72 696 q 100 813 72 760 q 174 906 128 867 q 279 967 219 944 q 404 989 339 989 q 567 939 511 989 q 624 810 624 889 q 594 683 624 738 q 517 591 564 628 q 410 535 469 554 q 293 517 351 517 q 207 530 247 517 q 137 567 167 543 q 90 623 107 590 q 72 696 72 656 m 204 693 q 210 647 204 669 q 227 608 215 625 q 258 580 239 590 q 306 569 278 569 q 372 585 339 569 q 432 632 406 600 q 475 713 458 664 q 492 828 492 761 q 487 868 492 849 q 471 903 482 888 q 440 927 460 918 q 390 936 419 936 q 324 917 357 936 q 264 867 290 899 q 221 790 238 835 q 204 693 204 744 m 625 164 q 653 281 625 228 q 726 374 681 335 q 832 435 772 413 q 957 457 892 457 q 1120 407 1064 457 q 1176 278 1176 357 q 1147 151 1176 206 q 1069 59 1117 96 q 963 3 1022 22 q 846 -15 904 -15 q 760 -2 800 -15 q 690 35 719 11 q 642 91 660 58 q 625 164 625 124 m 757 161 q 763 115 757 138 q 780 76 768 93 q 811 48 792 58 q 858 38 831 38 q 925 53 892 38 q 985 100 958 68 q 1028 181 1011 132 q 1044 296 1044 229 q 1040 336 1044 317 q 1024 371 1035 356 q 992 395 1013 386 q 943 404 972 404 q 876 385 910 404 q 817 335 843 367 q 774 258 790 303 q 757 161 757 213 z "},"&":{"ha":1343,"x_min":111,"x_max":1256,"o":"m 740 171 q 658 259 701 208 q 574 362 614 310 q 500 463 533 414 q 450 543 467 511 q 360 463 394 503 q 306 383 325 422 q 279 310 286 344 q 272 246 272 275 q 288 163 272 197 q 333 104 304 128 q 399 69 361 81 q 483 58 438 58 q 621 86 551 58 q 740 171 690 114 m 478 790 q 500 690 478 740 q 554 600 522 640 q 617 647 588 621 q 670 703 647 672 q 707 767 693 733 q 721 839 721 801 q 717 871 721 854 q 701 901 713 888 q 672 922 690 914 q 624 931 653 931 q 557 917 585 931 q 512 883 529 904 q 486 838 494 863 q 478 790 478 813 m 947 0 q 876 48 919 19 q 785 125 832 76 q 720 75 758 100 q 633 29 682 50 q 528 -4 585 8 q 408 -17 471 -17 q 274 3 331 -17 q 182 54 218 22 q 128 129 146 86 q 111 221 111 172 q 138 343 111 288 q 209 444 165 399 q 308 526 253 490 q 419 589 363 561 q 374 676 389 633 q 358 771 358 718 q 374 847 358 808 q 422 917 389 885 q 507 969 456 949 q 629 989 558 989 q 783 947 733 989 q 833 844 833 904 q 811 757 833 797 q 753 681 789 717 q 672 617 717 646 q 581 564 626 588 q 697 419 629 493 q 842 269 764 344 q 883 321 857 285 q 936 406 910 357 q 984 511 963 454 q 1013 625 1006 568 l 921 625 l 936 694 l 1256 694 l 1240 625 l 1136 625 q 1070 478 1106 544 q 1001 360 1035 411 q 938 274 967 310 q 893 222 910 239 q 992 142 943 179 q 1103 69 1040 104 l 1188 69 l 1172 0 l 947 0 z "},"'":{"ha":347,"x_min":218,"x_max":374,"o":"m 238 972 l 374 972 l 279 699 l 218 699 l 238 972 z "},"(":{"ha":526,"x_min":74,"x_max":624,"o":"m 321 -292 q 248 -227 290 -268 q 167 -125 206 -186 q 101 19 128 -64 q 74 211 74 103 q 111 432 74 325 q 217 636 149 539 q 381 819 285 733 q 594 975 476 904 l 624 933 q 471 795 544 872 q 340 626 397 718 q 248 427 282 533 q 214 203 214 321 q 226 44 214 113 q 260 -77 239 -24 q 310 -172 282 -131 q 371 -246 339 -212 l 321 -292 z "},")":{"ha":526,"x_min":-83,"x_max":467,"o":"m 219 975 q 292 910 250 951 q 374 808 335 869 q 440 663 413 746 q 467 472 467 581 q 429 251 467 357 q 324 47 392 144 q 160 -135 256 -50 q -54 -292 64 -221 l -83 -250 q 69 -112 -4 -190 q 201 58 143 -35 q 292 256 258 150 q 326 481 326 363 q 314 638 326 569 q 280 760 301 707 q 230 855 258 814 q 169 929 201 896 l 219 975 z "},"*":{"ha":725,"x_min":83,"x_max":646,"o":"m 646 704 l 554 551 l 411 708 l 433 747 l 646 704 m 553 965 l 644 814 l 435 772 l 410 807 l 553 965 m 271 1031 l 449 1031 l 383 825 l 335 825 l 271 1031 m 83 810 l 172 963 l 311 808 l 289 772 l 83 810 m 171 551 l 83 701 l 290 750 l 311 710 l 171 551 m 453 485 l 276 485 l 338 690 l 386 690 l 453 485 z "},"+":{"ha":833,"x_min":122,"x_max":767,"o":"m 122 515 l 403 515 l 403 806 l 486 806 l 486 515 l 767 515 l 767 440 l 486 440 l 486 142 l 403 142 l 403 440 l 122 440 l 122 515 z "},",":{"ha":429,"x_min":-10,"x_max":288,"o":"m -10 -200 q 53 -169 22 -190 q 108 -119 83 -147 q 149 -60 132 -92 q 169 0 165 -29 l 72 0 q 63 28 65 14 q 61 56 61 42 q 74 117 61 88 q 107 167 88 147 l 282 167 q 286 136 285 151 q 288 106 288 121 q 263 -24 288 35 q 198 -129 238 -83 q 108 -206 158 -175 q 7 -249 57 -236 l -10 -200 z "},"-":{"ha":660,"x_min":115,"x_max":572,"o":"m 133 436 l 572 436 l 554 347 l 115 347 l 133 436 z "},".":{"ha":422,"x_min":53,"x_max":269,"o":"m 53 81 q 82 149 53 124 q 160 174 111 174 q 239 149 208 174 q 269 81 269 124 q 239 14 269 39 q 160 -11 208 -11 q 82 14 111 -11 q 53 81 53 39 z "},"/":{"ha":536,"x_min":-60,"x_max":576,"o":"m 508 990 l 576 964 l 7 -181 l -60 -153 l 508 990 z "},":":{"ha":497,"x_min":100,"x_max":429,"o":"m 213 613 q 242 681 213 656 q 319 706 271 706 q 399 681 368 706 q 429 613 429 656 q 399 546 429 571 q 319 521 368 521 q 242 546 271 521 q 213 613 213 571 m 100 81 q 129 149 100 124 q 207 174 158 174 q 286 149 256 174 q 317 81 317 124 q 286 14 317 39 q 207 -11 256 -11 q 129 14 158 -11 q 100 81 100 39 z "},";":{"ha":504,"x_min":39,"x_max":431,"o":"m 214 613 q 243 681 214 656 q 321 706 272 706 q 400 681 369 706 q 431 613 431 656 q 400 546 431 571 q 321 521 369 521 q 243 546 272 521 q 214 613 214 571 m 39 -200 q 101 -169 71 -190 q 156 -119 132 -147 q 197 -60 181 -92 q 218 0 214 -29 l 121 0 q 112 28 114 14 q 110 56 110 42 q 123 117 110 88 q 156 167 136 147 l 331 167 q 335 136 333 151 q 336 106 336 121 q 311 -24 336 35 q 247 -129 286 -83 q 156 -206 207 -175 q 56 -249 106 -236 l 39 -200 z "},"<":{"ha":833,"x_min":97,"x_max":749,"o":"m 97 450 l 97 493 l 699 819 l 740 738 l 253 479 l 749 221 l 697 143 l 97 450 z "},"=":{"ha":833,"x_min":93,"x_max":794,"o":"m 93 628 l 794 628 l 794 553 l 93 553 l 93 628 m 93 403 l 794 403 l 794 328 l 93 328 l 93 403 z "},">":{"ha":833,"x_min":140,"x_max":792,"o":"m 792 513 l 792 469 l 190 143 l 144 221 l 636 489 l 140 742 l 192 819 l 792 513 z "},"?":{"ha":724,"x_min":153,"x_max":763,"o":"m 324 761 l 190 761 l 225 929 q 351 976 292 964 q 486 989 411 989 q 692 932 621 989 q 763 763 763 875 q 735 635 763 696 q 658 524 708 574 q 535 440 607 475 q 372 392 463 406 l 343 253 l 254 253 l 296 450 q 607 768 607 521 q 471 914 607 914 q 394 906 422 914 q 350 890 365 897 l 324 761 m 153 81 q 182 149 153 124 q 260 174 211 174 q 339 149 308 174 q 369 81 369 124 q 339 14 369 39 q 260 -11 308 -11 q 182 14 211 -11 q 153 81 153 39 z "},"@":{"ha":1543,"x_min":125,"x_max":1418,"o":"m 1100 681 l 1021 285 l 1021 79 l 1039 79 q 1155 106 1101 79 q 1247 183 1208 133 q 1307 301 1285 232 q 1329 453 1329 369 q 1287 644 1329 558 q 1172 790 1244 729 q 1002 882 1100 850 q 794 914 904 914 q 556 869 663 914 q 373 747 449 825 q 256 563 297 668 q 214 336 214 457 q 263 117 214 213 q 392 -42 311 22 q 576 -141 472 -107 q 789 -175 679 -175 q 891 -165 833 -175 q 996 -136 949 -156 l 1021 -200 q 900 -239 965 -228 q 756 -250 835 -250 q 610 -234 685 -250 q 465 -186 535 -218 q 333 -106 394 -154 q 225 7 271 -57 q 152 151 179 71 q 125 328 125 232 q 179 601 125 479 q 326 810 233 724 q 541 942 418 896 q 801 989 664 989 q 1045 952 932 989 q 1241 847 1158 915 q 1371 678 1324 778 q 1418 453 1418 579 q 1395 290 1418 371 q 1322 144 1372 208 q 1190 41 1271 81 q 994 1 1110 1 q 948 3 971 1 q 899 8 925 6 l 899 253 l 890 253 q 842 165 872 208 q 774 87 813 122 q 691 30 735 51 q 601 8 647 8 q 458 66 508 8 q 407 219 407 124 q 440 392 407 307 q 528 543 472 476 q 659 650 585 610 q 817 690 733 690 q 907 681 872 690 q 978 657 942 672 l 1100 681 m 951 590 q 901 610 928 604 q 838 615 875 615 q 726 579 778 615 q 635 487 674 543 q 574 363 596 431 q 551 235 551 296 q 574 133 551 168 q 660 97 597 97 q 723 122 689 97 q 790 188 757 147 q 855 278 824 228 q 911 382 886 329 l 951 590 z "},"A":{"ha":1035,"x_min":-69,"x_max":986,"o":"m 268 0 l -69 0 l -53 78 l 53 78 l 600 972 l 747 972 l 883 78 l 986 78 l 969 0 l 576 0 l 593 78 l 717 78 l 679 322 l 313 322 l 165 78 l 285 78 l 268 0 m 361 400 l 672 400 l 629 721 q 628 748 628 725 q 626 799 628 771 q 625 868 625 829 l 619 868 l 544 718 l 361 400 z "},"B":{"ha":939,"x_min":-29,"x_max":919,"o":"m -29 0 l -14 78 l 113 78 l 286 894 l 160 894 l 176 972 l 356 972 q 413 974 385 972 q 471 976 440 975 q 536 979 501 978 q 613 981 571 981 q 731 970 675 981 q 829 936 788 960 q 895 874 871 913 q 919 781 919 836 q 849 605 919 672 q 663 519 778 538 l 663 514 q 733 499 697 511 q 800 463 769 488 q 850 399 831 438 q 869 307 869 361 q 833 171 869 229 q 733 72 797 113 q 579 12 668 32 q 386 -8 490 -8 q 264 -4 332 -8 q 133 0 196 0 l -29 0 m 414 69 q 522 84 469 69 q 617 128 575 99 q 683 203 658 158 q 708 307 708 247 q 643 426 708 393 q 464 458 578 458 l 349 458 l 269 82 q 319 73 289 76 q 414 69 350 69 m 440 532 q 503 534 468 532 q 563 539 539 536 q 658 583 621 557 q 718 639 696 608 q 749 703 740 669 q 758 771 758 738 q 719 865 758 828 q 581 903 679 903 q 499 901 533 903 q 442 896 465 899 l 364 532 l 440 532 z "},"C":{"ha":956,"x_min":106,"x_max":986,"o":"m 776 256 l 865 256 l 819 38 q 763 15 796 25 q 694 -2 731 6 q 621 -13 658 -10 q 549 -17 583 -17 q 326 15 413 -17 q 190 99 239 47 q 124 217 142 151 q 106 350 106 282 q 147 606 106 489 q 267 809 189 724 q 456 942 344 894 q 710 989 568 989 q 874 974 811 989 q 986 936 938 960 l 935 699 l 846 699 l 878 844 l 864 872 q 813 890 849 879 q 704 900 776 900 q 532 861 610 900 q 398 751 454 822 q 310 578 342 679 q 279 354 279 478 q 295 243 279 294 q 347 153 311 192 q 438 94 382 115 q 574 72 494 72 q 665 80 624 72 q 725 100 706 88 l 750 126 l 776 256 z "},"D":{"ha":1075,"x_min":-29,"x_max":1050,"o":"m -29 0 l -14 78 l 113 78 l 286 894 l 160 894 l 176 972 l 347 972 q 410 974 374 972 q 484 977 446 975 q 558 981 522 979 q 617 983 593 983 q 838 952 753 983 q 969 872 922 921 q 1033 764 1017 824 q 1050 646 1050 704 q 1009 378 1050 500 q 888 170 968 257 q 688 35 807 83 q 411 -12 568 -12 q 356 -10 389 -12 q 288 -6 324 -8 q 215 -2 251 -4 q 150 0 179 0 l -29 0 m 579 906 q 503 904 540 906 q 443 899 465 903 l 268 71 q 296 69 276 69 q 338 67 315 68 q 382 66 361 67 q 411 65 403 65 q 634 117 544 65 q 777 251 724 168 q 853 439 831 333 q 876 653 876 544 q 865 749 876 703 q 819 829 853 794 q 728 885 786 864 q 579 906 671 906 z "},"E":{"ha":882,"x_min":-29,"x_max":915,"o":"m 915 972 l 867 744 l 778 744 l 804 864 l 782 894 l 442 894 l 365 535 l 600 535 l 625 556 l 638 614 l 726 614 l 676 376 l 588 376 l 600 435 l 583 457 l 349 457 l 268 78 l 632 78 l 665 106 l 694 242 l 783 242 l 732 0 l -29 0 l -14 78 l 113 78 l 286 894 l 160 894 l 176 972 l 915 972 z "},"F":{"ha":838,"x_min":-29,"x_max":914,"o":"m 254 78 l 403 78 l 386 0 l -29 0 l -14 78 l 99 78 l 272 894 l 160 894 l 176 972 l 914 972 l 865 744 l 776 744 l 803 864 l 781 894 l 428 894 l 347 514 l 599 514 l 624 535 l 638 601 l 726 601 q 722 583 726 601 q 713 535 718 564 q 700 474 707 507 q 687 413 693 442 q 676 366 681 385 q 672 347 672 347 l 583 347 l 599 414 l 582 436 l 331 436 l 254 78 z "},"G":{"ha":1061,"x_min":106,"x_max":1038,"o":"m 857 67 q 701 5 789 26 q 535 -17 614 -17 q 322 16 406 -17 q 191 101 239 49 q 124 219 143 153 q 106 353 106 285 q 147 608 106 492 q 265 810 188 725 q 453 942 342 894 q 706 989 564 989 q 879 974 808 989 q 999 936 950 960 q 997 926 999 936 q 990 899 994 915 q 981 860 986 882 q 972 817 976 839 q 947 699 961 764 l 858 699 l 890 844 l 876 872 q 844 885 865 879 q 800 894 824 890 q 751 899 776 897 q 707 900 726 900 q 524 856 604 900 q 390 738 444 813 q 308 565 336 664 q 279 357 279 467 q 292 253 279 304 q 337 161 304 201 q 426 97 369 121 q 569 72 482 72 q 644 78 615 72 q 701 94 674 85 l 728 119 l 783 382 l 636 382 l 653 460 l 1038 460 l 1021 382 l 924 382 l 857 67 z "},"H":{"ha":1125,"x_min":-29,"x_max":1226,"o":"m 383 78 l 367 0 l -29 0 l -14 78 l 113 78 l 286 894 l 160 894 l 176 972 l 574 972 l 557 894 l 442 894 l 367 538 l 853 538 l 928 894 l 813 894 l 829 972 l 1226 972 l 1210 894 l 1083 894 l 910 78 l 1036 78 l 1019 0 l 624 0 l 639 78 l 754 78 l 836 460 l 350 460 l 268 78 l 383 78 z "},"I":{"ha":540,"x_min":-1,"x_max":614,"o":"m 407 0 l -1 0 l 15 78 l 142 78 l 315 894 l 189 894 l 206 972 l 614 972 l 597 894 l 471 894 l 297 78 l 424 78 l 407 0 z "},"J":{"ha":514,"x_min":-57,"x_max":588,"o":"m -57 -157 q -6 -128 -32 -146 q 42 -81 19 -111 q 85 -6 65 -51 q 121 108 106 40 l 289 894 l 174 894 l 190 972 l 588 972 l 571 894 l 444 894 l 281 122 q 220 -40 260 24 q 135 -142 181 -104 q 42 -197 89 -179 q -39 -222 -4 -215 l -57 -157 z "},"K":{"ha":975,"x_min":-29,"x_max":1078,"o":"m 449 531 l 822 894 l 710 894 l 726 972 l 1078 972 l 1061 894 l 951 894 l 549 528 l 833 78 l 921 78 l 904 0 l 696 0 l 433 461 l 350 461 l 268 78 l 383 78 l 367 0 l -29 0 l -14 78 l 113 78 l 286 894 l 160 894 l 176 972 l 574 972 l 557 894 l 442 894 l 364 531 l 449 531 z "},"L":{"ha":832,"x_min":-29,"x_max":813,"o":"m 160 894 l 176 972 l 608 972 l 592 894 l 442 894 l 268 78 l 638 78 l 672 108 l 713 300 l 813 300 l 749 0 l -29 0 l -14 78 l 113 78 l 286 894 l 160 894 z "},"M":{"ha":1353,"x_min":-29,"x_max":1454,"o":"m 160 894 l 176 972 l 492 972 l 685 360 l 1151 972 l 1454 972 l 1438 894 l 1311 894 l 1138 78 l 1264 78 l 1247 0 l 844 0 l 861 78 l 988 78 l 1119 697 q 1128 727 1121 701 q 1142 782 1135 753 l 1161 860 l 1149 860 l 1057 711 l 665 208 l 581 208 l 410 711 l 383 874 l 369 874 l 353 790 q 340 731 346 758 q 333 697 335 703 l 201 78 l 319 78 l 303 0 l -29 0 l -14 78 l 113 78 l 286 894 l 160 894 z "},"N":{"ha":1125,"x_min":-29,"x_max":1226,"o":"m 889 972 l 1226 972 l 1210 894 l 1083 894 l 889 -17 l 810 -17 l 390 746 l 357 853 l 351 853 l 344 744 l 203 78 l 324 78 l 307 0 l -29 0 l -14 78 l 113 78 l 286 894 l 160 894 l 176 972 l 442 972 l 800 314 l 847 199 l 854 199 l 871 318 l 993 894 l 872 894 l 889 972 z "},"O":{"ha":1139,"x_min":106,"x_max":1114,"o":"m 106 393 q 141 613 106 506 q 249 804 176 721 q 433 938 322 888 q 694 989 544 989 q 865 962 788 989 q 998 883 943 935 q 1083 760 1053 832 q 1114 599 1114 688 q 1083 377 1114 488 q 985 179 1053 267 q 810 38 917 92 q 551 -17 703 -17 q 390 7 469 -17 q 247 81 311 31 q 144 208 183 131 q 106 393 106 285 m 279 392 q 303 240 279 303 q 367 138 328 178 q 458 80 407 99 q 563 61 510 61 q 743 110 671 61 q 859 238 815 160 q 922 410 903 315 q 940 597 940 506 q 867 831 940 751 q 660 911 793 911 q 489 865 561 911 q 370 746 417 819 q 301 579 324 672 q 279 392 279 486 z "},"P":{"ha":913,"x_min":-29,"x_max":944,"o":"m 160 894 l 176 972 l 332 972 q 465 978 394 972 q 603 983 535 983 q 742 969 679 983 q 850 926 806 956 q 919 852 894 897 q 944 744 944 807 q 908 583 944 653 q 808 467 872 514 q 654 396 743 419 q 461 372 565 372 q 435 372 453 372 q 399 373 418 372 q 360 375 379 374 q 332 378 342 376 l 268 78 l 407 78 l 390 0 l -29 0 l -14 78 l 113 78 l 286 894 l 160 894 m 349 457 q 369 453 356 454 q 397 451 382 453 q 427 450 413 450 q 450 450 442 450 q 572 467 514 450 q 675 518 631 483 q 745 606 719 553 q 771 735 771 660 q 718 859 771 813 q 543 906 665 906 q 483 903 506 906 q 442 897 461 900 l 349 457 z "},"Q":{"ha":1139,"x_min":106,"x_max":1153,"o":"m 1153 -182 q 1006 -257 1082 -233 q 856 -281 931 -281 q 722 -257 792 -281 q 578 -203 653 -233 q 421 -145 503 -174 q 250 -107 339 -117 l 272 -51 q 338 -47 306 -47 q 491 -65 417 -47 q 640 -103 565 -82 q 791 -141 714 -124 q 951 -158 868 -158 q 1044 -151 996 -158 q 1142 -129 1092 -144 l 1153 -182 m 106 393 q 141 613 106 506 q 249 804 176 721 q 433 938 322 888 q 694 989 544 989 q 865 962 788 989 q 998 883 943 935 q 1083 760 1053 832 q 1114 599 1114 688 q 1083 377 1114 488 q 985 179 1053 267 q 810 38 917 92 q 551 -17 703 -17 q 390 7 469 -17 q 247 81 311 31 q 144 208 183 131 q 106 393 106 285 m 279 392 q 303 240 279 303 q 367 138 328 178 q 458 80 407 99 q 563 61 510 61 q 743 110 671 61 q 859 238 815 160 q 922 410 903 315 q 940 597 940 506 q 867 831 940 751 q 660 911 793 911 q 489 865 561 911 q 370 746 417 819 q 301 579 324 672 q 279 392 279 486 z "},"R":{"ha":972,"x_min":-29,"x_max":917,"o":"m 268 78 l 388 78 l 371 0 l -29 0 l -14 78 l 113 78 l 286 894 l 160 894 l 176 972 l 317 972 q 454 978 379 972 q 600 983 529 983 q 836 924 756 983 q 917 751 917 865 q 890 627 917 682 q 822 533 864 572 q 728 469 781 493 q 622 436 675 444 l 824 78 l 917 78 l 900 0 l 685 0 l 482 421 l 340 421 l 268 78 m 465 492 q 573 507 522 492 q 661 554 624 522 q 721 635 699 586 q 743 750 743 683 q 699 865 743 825 q 549 906 654 906 q 488 903 513 906 q 442 897 463 900 l 356 492 l 465 492 z "},"S":{"ha":814,"x_min":35,"x_max":829,"o":"m 142 144 l 160 111 q 189 94 169 103 q 233 77 208 85 q 284 65 257 69 q 338 61 311 61 q 524 108 458 61 q 590 246 590 156 q 560 339 590 300 q 486 410 531 378 q 389 471 442 442 q 292 535 336 500 q 217 617 247 571 q 188 726 188 663 q 283 921 188 853 q 564 989 379 989 q 722 976 660 989 q 829 942 785 963 q 826 931 829 942 q 821 904 824 921 q 813 866 818 888 q 804 822 808 844 q 779 704 793 769 l 690 704 l 721 853 l 706 888 q 638 905 682 899 q 544 911 593 911 q 392 869 440 911 q 343 769 343 828 q 373 685 343 721 q 447 619 403 650 q 544 558 492 588 q 642 491 597 528 q 716 406 686 454 q 746 290 746 357 q 718 165 746 221 q 637 68 690 108 q 504 6 583 28 q 322 -17 425 -17 q 228 -10 274 -17 q 146 8 183 -3 q 80 32 108 19 q 35 57 51 44 l 88 310 l 176 310 l 142 144 z "},"T":{"ha":956,"x_min":101,"x_max":1071,"o":"m 631 0 l 189 0 l 206 78 l 349 78 l 522 894 l 272 894 l 240 864 l 201 685 l 101 685 l 163 972 l 1071 972 l 1010 685 l 910 685 l 949 864 l 925 894 l 678 894 l 504 78 l 647 78 l 631 0 z "},"U":{"ha":1044,"x_min":132,"x_max":1174,"o":"m 913 339 q 766 72 874 156 q 482 -12 658 -12 q 324 9 389 -12 q 217 68 258 31 q 156 158 175 106 q 138 272 138 210 q 150 382 138 324 l 258 894 l 132 894 l 149 972 l 543 972 l 526 894 l 414 894 l 306 385 q 297 333 300 357 q 293 286 293 310 q 349 133 293 186 q 521 81 404 81 q 822 342 765 81 l 942 894 l 828 894 l 844 972 l 1174 972 l 1157 894 l 1031 894 l 913 339 z "},"V":{"ha":1071,"x_min":125,"x_max":1213,"o":"m 971 894 l 844 894 l 861 972 l 1213 972 l 1196 894 l 1082 894 l 569 0 l 415 0 l 244 894 l 125 894 l 142 972 l 561 972 l 544 894 l 411 894 l 524 246 l 536 114 l 542 114 l 611 249 l 971 894 z "},"W":{"ha":1469,"x_min":125,"x_max":1611,"o":"m 1368 894 l 1247 894 l 1264 972 l 1611 972 l 1594 894 l 1479 894 l 1057 0 l 894 0 l 840 768 l 460 0 l 297 0 l 244 894 l 125 894 l 142 972 l 553 972 l 536 894 l 404 894 l 426 300 q 426 267 426 296 q 425 204 425 238 q 424 115 424 165 l 429 115 l 524 303 q 540 335 525 306 q 578 413 554 365 q 631 521 601 461 q 692 643 661 581 q 856 972 764 789 l 960 972 l 1015 303 q 1015 268 1015 297 q 1017 206 1015 239 q 1018 118 1017 167 l 1025 118 l 1107 306 l 1368 894 z "},"X":{"ha":1036,"x_min":-60,"x_max":1108,"o":"m 753 972 l 1108 972 l 1092 894 l 978 894 l 625 521 l 850 78 l 976 78 l 960 0 l 558 0 l 575 78 l 676 78 l 506 421 l 203 78 l 310 78 l 293 0 l -60 0 l -43 78 l 72 78 l 465 489 l 260 894 l 136 894 l 153 972 l 564 972 l 547 894 l 436 894 l 586 585 l 858 894 l 736 894 l 753 972 z "},"Y":{"ha":1010,"x_min":125,"x_max":1151,"o":"m 799 972 l 1151 972 l 1135 894 l 1017 894 l 618 413 l 547 78 l 663 78 l 646 0 l 249 0 l 265 78 l 392 78 l 463 411 l 251 894 l 125 894 l 142 972 l 557 972 l 540 894 l 424 894 l 582 483 l 910 894 l 782 894 l 799 972 z "},"Z":{"ha":919,"x_min":-22,"x_max":990,"o":"m -6 78 l 786 894 l 331 894 l 297 864 l 260 690 l 160 690 l 219 972 l 990 972 l 974 894 l 182 78 l 689 78 l 724 108 l 760 282 l 860 282 l 800 0 l -22 0 l -6 78 z "},"[":{"ha":467,"x_min":-17,"x_max":556,"o":"m 257 972 l 556 972 l 543 914 l 382 914 l 133 -261 l 294 -261 l 282 -319 l -17 -319 l 257 972 z "},"\\":{"ha":594,"x_min":-75,"x_max":638,"o":"m 638 -149 l 557 -186 l -75 957 l 6 997 l 638 -149 z "},"]":{"ha":467,"x_min":-83,"x_max":489,"o":"m 215 -319 l -83 -319 l -71 -261 l 90 -261 l 339 914 l 176 914 l 189 972 l 489 972 l 215 -319 z "},"^":{"ha":833,"x_min":106,"x_max":714,"o":"m 394 988 l 449 988 l 714 603 l 572 603 l 397 879 l 194 603 l 106 603 l 394 988 z "},"_":{"ha":639,"x_min":0,"x_max":639,"o":"m 0 -197 l 639 -197 l 639 -272 l 0 -272 l 0 -197 z "},"`":{"ha":454,"x_min":143,"x_max":454,"o":"m 454 854 l 415 822 l 143 985 l 143 1042 l 318 1042 l 454 854 z "},"a":{"ha":821,"x_min":64,"x_max":756,"o":"m 306 75 q 364 91 332 75 q 427 132 396 107 q 485 188 458 157 q 531 250 513 219 l 604 628 q 563 657 590 646 q 501 668 536 668 q 376 628 431 668 q 285 525 322 589 q 228 383 247 461 q 208 228 208 304 q 306 75 208 75 m 514 163 q 475 108 500 139 q 415 51 450 78 q 335 5 379 24 q 239 -14 290 -14 q 112 40 160 -14 q 64 203 64 94 q 93 403 64 306 q 178 576 122 500 q 315 697 233 651 q 501 743 396 743 q 576 728 540 743 q 626 696 611 714 l 649 729 l 756 729 l 625 75 l 739 75 l 739 0 l 493 0 l 522 163 l 514 163 z "},"b":{"ha":808,"x_min":53,"x_max":751,"o":"m 244 967 l 142 967 l 142 1042 l 396 1042 l 296 599 l 304 599 q 415 703 350 663 q 572 743 481 743 q 702 690 653 743 q 751 524 751 638 q 719 315 751 413 q 626 144 686 217 q 481 28 565 71 q 293 -14 397 -14 q 151 5 217 -14 q 53 50 85 24 l 244 967 m 489 650 q 428 639 458 650 q 371 610 397 628 q 324 569 344 592 q 292 524 303 546 l 199 82 q 256 65 222 68 q 321 61 289 61 q 438 98 385 61 q 528 196 490 135 q 586 335 565 257 q 607 497 607 414 q 582 608 607 567 q 489 650 557 650 z "},"c":{"ha":656,"x_min":61,"x_max":675,"o":"m 606 138 q 494 26 567 65 q 317 -14 422 -14 q 210 8 257 -14 q 129 65 163 29 q 78 151 96 101 q 61 254 61 200 q 90 453 61 363 q 176 608 119 543 q 313 708 232 672 q 496 743 393 743 q 604 728 554 743 q 675 690 654 714 l 633 525 l 536 525 l 565 650 q 528 664 554 660 q 482 668 503 668 q 369 641 419 668 q 281 565 318 614 q 225 448 244 517 q 206 294 206 379 q 251 137 206 194 q 372 79 297 79 q 483 106 435 79 q 560 174 531 133 l 606 138 z "},"d":{"ha":821,"x_min":68,"x_max":831,"o":"m 319 75 q 387 88 356 75 q 444 121 418 100 q 492 168 471 142 q 529 222 514 194 l 611 640 q 570 662 589 656 q 517 668 551 668 q 387 628 443 668 q 292 526 331 589 q 233 384 253 463 q 213 228 213 306 q 242 114 213 153 q 319 75 272 75 m 507 144 q 468 88 492 117 q 413 37 444 60 q 340 0 381 14 q 253 -14 300 -14 q 179 1 213 -14 q 121 44 146 17 q 82 113 96 72 q 68 204 68 154 q 99 404 68 307 q 187 576 129 501 q 328 697 244 651 q 515 743 411 743 q 551 742 536 743 q 577 738 565 740 q 600 730 589 735 q 626 719 611 725 l 678 967 l 576 967 l 576 1042 l 831 1042 l 629 69 l 742 69 l 742 0 l 496 0 l 514 144 l 507 144 z "},"e":{"ha":696,"x_min":61,"x_max":668,"o":"m 604 133 q 563 79 589 106 q 500 32 536 53 q 419 -1 464 11 q 324 -14 375 -14 q 133 53 204 -14 q 61 243 61 121 q 92 439 61 347 q 178 597 122 531 q 312 703 233 664 q 486 743 390 743 q 557 734 524 743 q 615 707 590 725 q 654 663 640 689 q 668 601 668 636 q 563 440 668 501 q 217 363 457 379 q 208 315 211 338 q 206 271 206 293 q 251 131 206 183 q 383 79 296 79 q 438 88 411 79 q 490 109 465 96 q 535 139 515 122 q 568 171 556 156 l 604 133 m 440 678 q 321 620 375 678 q 228 428 267 563 q 453 476 375 432 q 532 596 532 521 q 528 626 532 611 q 513 652 524 640 q 485 671 503 664 q 440 678 468 678 z "},"f":{"ha":454,"x_min":-83,"x_max":672,"o":"m 194 654 l 85 654 l 85 729 l 214 729 l 225 793 q 266 910 238 863 q 338 986 294 957 q 435 1028 381 1015 q 551 1042 489 1042 q 613 1035 578 1042 q 672 1018 647 1029 l 635 860 l 556 860 l 575 956 q 543 964 560 961 q 511 967 526 967 q 419 931 458 967 q 360 801 379 894 l 344 729 l 514 729 l 514 654 l 329 654 l 232 63 q 177 -106 215 -40 q 95 -209 139 -171 q 10 -264 51 -247 q -57 -287 -32 -281 l -83 -231 q -38 -207 -64 -222 q 14 -162 -12 -192 q 63 -85 40 -132 q 97 35 85 -37 l 194 654 z "},"g":{"ha":747,"x_min":-71,"x_max":803,"o":"m 510 -76 q 474 -12 510 -37 q 376 31 439 14 q 228 60 314 49 q 43 81 143 71 l 181 274 q 141 298 161 283 q 106 335 121 313 q 81 387 90 357 q 71 456 71 417 q 97 577 71 524 q 169 667 122 631 q 281 724 217 704 q 425 743 346 743 l 803 743 l 803 668 l 651 668 q 667 617 661 651 q 672 549 672 582 q 644 415 672 472 q 568 317 615 357 q 459 258 521 278 q 331 238 397 238 q 272 240 301 238 q 233 249 243 243 l 172 163 q 332 149 247 157 q 488 119 417 140 q 607 61 560 99 q 654 -39 654 24 q 621 -147 654 -100 q 533 -226 588 -194 q 406 -275 478 -258 q 256 -292 333 -292 q 130 -279 189 -292 q 26 -244 71 -267 q -45 -190 -19 -221 q -71 -119 -71 -158 q -40 -43 -71 -74 q 29 0 -10 -12 l 106 0 q 74 -41 86 -17 q 63 -87 63 -65 q 82 -145 63 -121 q 132 -185 101 -169 q 201 -209 163 -201 q 278 -217 239 -217 q 378 -205 335 -217 q 450 -173 421 -193 q 494 -128 479 -153 q 510 -76 510 -103 m 432 674 q 265 619 329 674 q 200 446 200 564 q 212 381 200 408 q 242 334 224 353 q 285 306 261 315 q 335 297 310 297 q 422 314 382 297 q 489 360 461 331 q 532 432 517 390 q 547 525 547 474 q 537 615 547 578 q 507 674 526 651 l 432 674 z "},"h":{"ha":835,"x_min":51,"x_max":742,"o":"m 157 967 l 157 1042 l 408 1042 l 310 613 l 318 613 q 436 705 371 667 q 593 743 501 743 q 735 576 735 743 q 727 491 735 536 q 708 404 719 446 l 624 75 l 742 75 l 742 0 l 482 0 l 569 379 q 590 464 581 424 q 599 540 599 504 q 577 621 599 592 q 511 650 556 650 q 449 641 479 650 q 390 618 418 632 q 339 586 363 604 q 299 550 315 568 l 185 0 l 51 0 l 257 967 l 157 967 z "},"i":{"ha":426,"x_min":58,"x_max":401,"o":"m 106 654 l 106 729 l 357 729 l 213 75 l 326 75 l 326 0 l 58 0 l 207 654 l 106 654 m 199 954 q 227 1018 199 994 q 300 1042 256 1042 q 374 1018 347 1042 q 401 954 401 994 q 374 890 401 914 q 300 867 347 867 q 227 890 256 867 q 199 954 199 914 z "},"j":{"ha":417,"x_min":-129,"x_max":394,"o":"m 204 654 l 110 654 l 110 729 l 356 729 l 210 63 q 144 -107 186 -42 q 54 -211 101 -172 q -37 -267 7 -250 q -107 -290 -82 -283 l -129 -233 q -84 -210 -111 -225 q -29 -167 -57 -196 q 25 -90 -1 -137 q 68 35 51 -42 l 204 654 m 192 954 q 220 1018 192 994 q 293 1042 249 1042 q 367 1018 340 1042 q 394 954 394 994 q 367 890 394 914 q 293 867 340 867 q 220 890 249 867 q 192 954 192 914 z "},"k":{"ha":740,"x_min":51,"x_max":721,"o":"m 313 346 l 258 346 l 188 0 l 51 0 l 254 967 l 153 967 l 153 1042 l 403 1042 l 271 401 l 315 401 l 536 622 l 536 729 l 721 729 l 721 671 l 428 415 l 617 75 l 697 75 l 697 0 l 496 0 l 313 346 z "},"l":{"ha":413,"x_min":69,"x_max":422,"o":"m 243 967 l 142 967 l 142 1042 l 393 1042 l 224 235 q 215 185 217 204 q 214 147 214 165 q 228 94 214 108 q 263 79 242 79 q 331 101 299 79 q 390 147 363 124 l 422 99 q 383 60 407 79 q 331 24 360 40 q 268 -3 301 7 q 201 -14 235 -14 q 101 19 133 -14 q 69 104 69 53 q 73 151 69 126 q 82 201 76 175 l 243 967 z "},"m":{"ha":1226,"x_min":64,"x_max":1133,"o":"m 969 438 q 988 512 979 474 q 997 574 997 550 q 980 632 997 610 q 918 654 963 654 q 865 642 894 654 q 808 610 836 629 q 755 568 779 592 q 718 522 731 544 l 590 0 l 463 0 l 558 410 q 577 497 569 454 q 585 583 585 539 q 572 635 585 615 q 529 654 560 654 q 469 643 499 654 q 412 614 439 632 q 362 572 385 596 q 319 522 339 549 l 200 0 l 64 0 l 207 654 l 113 654 l 113 729 l 361 729 l 331 608 l 336 608 q 378 651 353 628 q 435 695 403 675 q 506 729 467 715 q 592 743 546 743 q 682 712 647 743 q 717 603 717 681 q 851 705 783 667 q 999 743 919 743 q 1133 603 1133 743 q 1126 525 1133 565 q 1104 438 1118 485 l 1001 75 l 1117 75 l 1117 0 l 853 0 l 969 438 z "},"n":{"ha":847,"x_min":64,"x_max":754,"o":"m 590 415 q 610 499 601 460 q 618 576 618 539 q 601 631 618 608 q 551 654 585 654 q 472 638 510 654 q 401 597 433 621 q 345 546 369 572 q 307 500 321 519 l 199 0 l 64 0 l 201 654 l 106 654 l 106 729 l 353 729 l 321 585 l 328 585 q 458 699 386 656 q 614 743 531 743 q 722 706 689 743 q 754 611 754 669 q 747 531 754 579 q 728 440 739 482 l 640 75 l 754 75 l 754 0 l 633 0 l 497 0 l 590 415 z "},"o":{"ha":783,"x_min":61,"x_max":722,"o":"m 61 271 q 87 433 61 349 q 165 585 113 517 q 295 698 217 653 q 479 743 374 743 q 661 672 600 743 q 722 465 722 601 q 693 283 722 369 q 611 132 664 197 q 485 26 558 67 q 321 -14 411 -14 q 132 59 203 -14 q 61 271 61 132 m 449 678 q 363 657 400 678 q 299 601 325 636 q 254 520 272 565 q 225 426 236 475 q 210 328 214 376 q 206 238 206 281 q 244 104 206 157 q 349 51 282 51 q 444 90 401 51 q 516 190 486 129 q 562 328 546 250 q 578 488 578 406 q 547 626 578 574 q 449 678 515 678 z "},"p":{"ha":832,"x_min":0,"x_max":779,"o":"m 153 -208 l 258 -208 l 258 -278 l 0 -278 l 210 654 l 115 654 l 115 729 l 361 729 l 325 586 l 331 586 q 381 645 353 617 q 442 696 408 674 q 516 731 476 718 q 601 743 556 743 q 729 691 679 743 q 779 525 779 639 q 744 322 779 419 q 649 150 710 225 q 508 31 589 75 q 333 -14 426 -14 q 290 -12 308 -14 q 258 -8 272 -11 q 231 0 244 -4 q 203 11 218 4 l 153 -208 m 528 654 q 453 638 489 654 q 390 597 418 621 q 340 544 361 572 q 310 490 319 515 l 219 81 q 240 66 229 72 q 263 57 250 60 q 294 53 276 54 q 339 51 313 51 q 452 93 399 51 q 546 201 506 135 q 610 349 586 267 q 635 510 635 431 q 608 617 635 579 q 528 654 581 654 z "},"q":{"ha":792,"x_min":61,"x_max":753,"o":"m 547 -208 l 654 -208 l 654 -278 l 396 -278 l 494 136 l 489 136 q 448 85 474 111 q 389 36 422 58 q 317 0 356 14 q 236 -14 278 -14 q 103 47 146 -14 q 61 204 61 107 q 90 406 61 308 q 177 578 119 503 q 321 698 235 653 q 519 743 407 743 q 588 739 553 743 q 655 728 624 735 q 712 713 686 721 q 753 697 738 706 l 547 -208 m 301 79 q 363 92 331 79 q 425 126 396 106 q 477 171 454 147 q 513 215 500 194 l 607 658 q 567 674 588 669 q 511 678 546 678 q 376 636 433 678 q 281 530 318 594 q 224 385 243 465 q 206 228 206 304 q 231 116 206 153 q 301 79 257 79 z "},"r":{"ha":581,"x_min":65,"x_max":588,"o":"m 474 596 q 441 588 460 593 q 401 575 422 583 q 358 553 381 567 q 315 518 336 539 l 201 0 l 65 0 l 208 654 l 113 654 l 113 729 l 358 729 l 325 588 l 332 588 q 400 672 360 631 q 476 729 440 713 l 588 729 l 588 596 l 474 596 z "},"s":{"ha":654,"x_min":8,"x_max":604,"o":"m 254 61 q 308 66 279 61 q 360 83 336 71 q 399 117 383 96 q 414 172 414 139 q 392 233 414 207 q 339 284 371 260 q 269 333 307 308 q 199 385 231 357 q 145 450 167 414 q 124 535 124 486 q 147 626 124 586 q 211 691 171 665 q 307 730 251 717 q 425 743 363 743 q 483 739 454 743 q 535 728 511 735 q 578 714 560 722 q 604 699 596 706 l 563 536 l 476 536 l 500 650 q 460 663 489 658 q 411 668 432 668 q 363 665 389 668 q 315 651 338 661 q 278 622 293 640 q 264 572 264 603 q 285 507 264 535 q 340 456 307 479 q 411 408 374 432 q 482 356 449 385 q 537 291 515 328 q 558 203 558 254 q 531 110 558 150 q 457 42 503 69 q 351 0 411 14 q 226 -14 290 -14 q 155 -7 190 -14 q 90 10 119 0 q 38 33 60 21 q 8 53 17 44 l 61 218 l 156 218 l 119 103 q 169 74 135 88 q 254 61 204 61 z "},"t":{"ha":549,"x_min":81,"x_max":549,"o":"m 81 729 l 228 729 l 268 889 l 399 889 l 361 729 l 549 729 l 549 654 l 346 654 l 238 235 q 228 185 231 207 q 225 139 225 163 q 297 75 225 75 q 382 92 335 75 q 465 142 429 110 l 494 86 q 452 51 479 69 q 390 19 425 33 q 314 -5 356 4 q 228 -14 272 -14 q 122 19 160 -14 q 85 104 85 53 q 86 151 85 126 q 94 201 88 175 l 208 654 l 81 654 l 81 729 z "},"u":{"ha":833,"x_min":81,"x_max":764,"o":"m 750 75 l 750 0 l 494 0 l 524 164 l 518 164 q 467 103 497 135 q 398 47 436 72 q 315 3 360 21 q 219 -14 269 -14 q 118 20 156 -14 q 81 119 81 54 q 84 170 81 139 q 96 242 88 201 l 183 654 l 88 654 l 88 729 l 338 729 l 242 314 q 225 237 233 278 q 217 157 217 196 q 235 95 217 115 q 282 75 253 75 q 372 97 329 75 q 448 149 414 119 q 505 211 482 179 q 539 264 528 243 l 632 729 l 764 729 l 638 75 l 750 75 z "},"v":{"ha":689,"x_min":24,"x_max":697,"o":"m 357 178 l 554 568 l 526 729 l 697 729 l 697 654 l 347 0 l 208 0 l 119 654 l 24 654 l 24 729 l 249 729 l 308 165 l 308 75 l 321 75 l 357 178 z "},"w":{"ha":1057,"x_min":24,"x_max":1065,"o":"m 761 169 l 925 554 l 897 729 l 1065 729 l 1065 654 l 765 0 l 613 0 l 558 392 l 549 514 l 542 514 l 325 0 l 163 0 l 122 654 l 24 654 l 24 729 l 253 729 l 275 75 l 282 75 l 322 189 l 519 654 l 647 654 l 725 75 l 732 75 l 761 169 z "},"x":{"ha":697,"x_min":-7,"x_max":693,"o":"m 307 310 l 150 125 l 172 0 l -7 0 l -7 75 l 286 369 l 181 654 l 86 654 l 86 729 l 303 729 l 394 442 l 543 603 l 532 729 l 693 729 l 693 654 l 414 376 l 531 75 l 622 75 l 622 0 l 407 0 l 307 310 z "},"y":{"ha":706,"x_min":49,"x_max":722,"o":"m 133 654 l 49 654 l 49 729 l 256 729 l 364 151 l 364 75 l 375 75 l 413 147 q 461 257 436 199 q 510 374 486 315 q 556 488 535 432 q 590 594 576 544 l 551 729 l 722 729 l 722 654 q 667 512 700 593 q 596 342 635 431 q 513 163 557 254 q 423 -12 468 71 q 333 -164 378 -94 q 247 -278 288 -233 l 88 -278 l 88 -144 l 242 -144 q 281 -90 261 -121 q 321 0 301 -60 l 253 0 l 133 654 z "},"z":{"ha":671,"x_min":13,"x_max":661,"o":"m 518 613 l 192 613 l 153 513 l 74 513 l 119 729 l 661 729 l 661 654 l 157 117 l 521 117 l 558 217 l 639 217 l 592 0 l 13 0 l 13 75 l 518 613 z "},"{":{"ha":529,"x_min":71,"x_max":631,"o":"m 164 153 q 169 203 169 176 q 144 278 169 251 q 71 304 119 304 l 81 349 q 183 391 142 349 q 236 494 224 433 l 307 825 q 367 932 321 892 q 488 972 413 972 l 631 972 l 618 914 l 544 914 q 480 894 503 914 q 447 831 457 875 l 378 507 q 345 429 368 461 q 292 377 322 397 q 231 347 263 357 q 169 333 199 336 l 167 325 q 215 313 190 322 q 259 287 239 304 q 292 244 279 269 q 306 185 306 219 q 301 146 306 167 l 232 -178 q 230 -192 231 -186 q 229 -206 229 -199 q 299 -261 229 -261 l 369 -261 l 357 -319 l 214 -319 q 123 -294 156 -319 q 90 -215 90 -268 q 94 -174 90 -197 l 164 153 z "},"|":{"ha":369,"x_min":143,"x_max":225,"o":"m 143 972 l 225 972 l 225 -181 l 143 -181 l 143 972 z "},"}":{"ha":529,"x_min":-89,"x_max":468,"o":"m 375 501 q 369 453 369 478 q 394 377 369 404 q 468 350 419 350 l 458 306 q 357 263 399 306 q 303 160 315 221 l 232 -172 q 173 -279 218 -239 q 51 -319 128 -319 l -89 -319 l -76 -261 l -4 -261 q 60 -242 38 -261 q 93 -178 83 -222 l 163 147 q 193 225 172 193 q 240 277 214 257 q 297 308 267 297 q 356 321 326 318 l 357 329 q 312 340 333 331 q 272 365 290 349 q 244 406 254 382 q 233 463 233 429 q 235 488 233 474 q 239 508 238 503 l 308 831 q 310 845 310 839 q 311 858 311 851 q 243 914 311 914 l 171 914 l 183 972 l 326 972 q 417 946 385 972 q 450 868 450 919 q 449 848 450 858 q 444 826 447 838 l 375 501 z "},"~":{"ha":826,"x_min":82,"x_max":746,"o":"m 82 460 q 196 558 139 535 q 301 581 253 581 q 378 566 342 581 q 451 533 415 551 q 524 501 488 515 q 599 486 560 486 q 658 497 628 486 q 719 533 688 507 l 746 489 q 655 413 701 431 q 564 396 608 396 q 485 410 524 396 q 410 443 447 425 q 335 476 372 461 q 260 490 297 490 q 191 476 225 490 q 121 418 157 461 l 82 460 z "}," ":{"ha":381,"x_min":0,"x_max":0,"o":""},"¡":{"ha":497,"x_min":65,"x_max":432,"o":"m 301 397 l 301 151 l 211 -272 l 65 -272 l 156 151 l 260 397 l 301 397 m 432 619 q 403 551 432 576 q 325 526 374 526 q 246 551 276 526 q 215 619 215 576 q 246 686 215 661 q 325 711 276 711 q 403 686 374 711 q 432 619 432 661 z "},"¢":{"ha":833,"x_min":89,"x_max":731,"o":"m 675 138 q 572 30 639 68 q 407 -12 504 -8 l 357 -249 l 274 -249 l 328 -10 q 222 25 267 -1 q 147 89 176 51 q 103 172 118 126 q 89 268 89 218 q 117 450 89 368 q 197 592 144 532 q 325 690 250 653 q 494 739 400 728 l 544 963 l 626 963 l 576 743 q 674 729 632 740 q 731 704 715 718 l 731 525 l 631 525 l 631 650 q 599 663 619 658 q 558 668 578 667 l 426 81 l 442 81 q 552 107 504 81 q 629 174 600 133 l 675 138 m 233 308 q 262 177 233 233 q 350 97 290 121 l 479 661 q 300 547 367 638 q 233 308 233 456 z "},"£":{"ha":833,"x_min":-17,"x_max":857,"o":"m 90 529 l 222 529 q 215 566 218 550 q 208 599 211 582 q 204 635 206 615 q 203 682 203 654 q 226 808 203 751 q 295 906 249 865 q 413 967 342 946 q 582 989 485 989 q 747 976 678 989 q 857 943 817 963 l 806 704 l 717 704 l 754 876 q 683 901 726 888 q 565 914 640 914 q 468 896 508 914 q 402 848 428 878 q 365 778 376 818 q 353 697 353 739 q 358 619 353 657 q 374 529 363 581 l 614 529 l 599 457 l 386 457 q 388 438 388 447 q 388 417 388 428 q 385 367 388 393 q 374 314 382 342 q 356 269 367 293 q 325 218 344 244 q 278 165 306 192 q 211 115 250 139 l 626 115 l 660 272 l 749 272 l 693 0 l -17 0 l -8 46 q 160 144 99 83 q 239 275 222 206 q 247 322 244 299 q 250 371 250 346 q 248 413 250 392 q 243 457 246 435 l 75 457 l 90 529 z "},"¤":{"ha":833,"x_min":56,"x_max":776,"o":"m 56 238 l 185 350 l 238 367 q 207 419 215 390 q 199 481 199 447 q 208 542 199 513 q 238 594 218 571 l 185 611 l 57 725 l 142 803 l 269 688 l 289 640 q 348 668 317 658 q 417 678 379 678 q 544 640 494 675 l 564 688 l 690 801 l 776 724 l 649 611 l 596 596 q 624 543 615 572 q 635 481 633 514 q 596 365 635 413 l 649 350 l 776 236 l 689 158 l 563 272 l 544 319 q 417 286 492 286 q 347 295 379 286 q 285 319 315 304 l 269 274 l 140 160 l 56 238 m 417 367 q 511 399 474 367 q 549 481 549 431 q 511 564 549 531 q 417 597 474 597 q 322 564 360 597 q 285 481 285 531 q 322 399 285 431 q 417 367 360 367 z "},"¥":{"ha":833,"x_min":51,"x_max":1044,"o":"m 697 972 l 1044 972 l 1029 903 l 910 903 l 572 465 l 793 465 l 776 393 l 525 393 l 507 306 l 758 306 l 743 233 l 492 233 l 457 69 l 575 69 l 560 0 l 157 0 l 172 69 l 301 69 l 336 233 l 85 233 l 100 306 l 351 306 l 369 393 l 118 393 l 135 465 l 354 465 l 178 903 l 51 903 l 67 972 l 483 972 l 468 903 l 349 903 l 496 485 l 808 903 l 682 903 l 697 972 z "},"¦":{"ha":369,"x_min":143,"x_max":225,"o":"m 143 264 l 225 264 l 225 -181 l 143 -181 l 143 264 m 225 528 l 143 528 l 143 972 l 225 972 l 225 528 z "},"§":{"ha":813,"x_min":90,"x_max":836,"o":"m 344 -53 q 404 -46 371 -53 q 467 -23 438 -39 q 516 17 496 -7 q 536 78 536 42 q 508 134 536 113 q 438 172 481 156 q 347 205 396 189 q 256 243 299 221 q 186 298 214 265 q 158 382 158 331 q 181 467 158 429 q 240 533 204 504 q 321 585 276 563 q 408 624 365 607 q 324 681 358 647 q 290 774 290 715 q 317 869 290 829 q 388 936 344 910 q 485 976 432 963 q 590 989 538 989 q 733 980 674 989 q 836 951 792 971 l 808 815 l 708 815 l 728 903 q 615 928 692 928 q 560 922 590 928 q 504 903 531 917 q 460 866 478 889 q 442 810 442 843 q 469 752 442 775 q 539 710 497 729 q 630 674 581 692 q 721 634 679 657 q 790 579 763 611 q 818 501 818 547 q 794 415 818 453 q 733 347 769 378 q 652 294 696 317 q 568 256 608 272 q 653 203 618 233 q 688 124 688 172 q 653 16 688 61 q 567 -58 619 -29 q 453 -100 515 -86 q 335 -114 392 -114 q 250 -108 290 -114 q 177 -92 210 -101 q 122 -72 144 -83 q 90 -50 99 -61 l 122 89 l 222 89 l 203 -14 q 255 -39 218 -25 q 344 -53 292 -53 m 503 282 q 552 306 524 290 q 606 345 581 322 q 649 396 632 368 q 667 454 667 424 q 650 503 667 482 q 606 540 633 524 q 544 569 579 556 q 475 594 510 582 q 418 568 447 583 q 365 532 389 553 q 325 485 340 511 q 310 429 310 460 q 326 378 310 400 q 368 338 342 356 q 429 308 394 321 q 503 282 464 294 z "},"¨":{"ha":756,"x_min":232,"x_max":751,"o":"m 232 956 q 256 1020 232 996 q 321 1044 281 1044 q 384 1020 360 1044 q 408 956 408 996 q 384 894 408 918 q 321 869 360 869 q 256 894 281 869 q 232 956 232 918 m 575 956 q 600 1020 575 996 q 664 1044 625 1044 q 728 1020 704 1044 q 751 956 751 996 q 728 894 751 918 q 664 869 704 869 q 600 894 625 869 q 575 956 575 918 z "},"©":{"ha":1260,"x_min":108,"x_max":1138,"o":"m 108 403 q 151 609 108 518 q 267 763 194 700 q 433 858 339 825 q 629 892 528 892 q 823 858 731 892 q 985 763 915 825 q 1097 609 1056 700 q 1138 403 1138 518 q 1097 197 1138 288 q 985 43 1056 106 q 823 -53 915 -19 q 629 -86 731 -86 q 422 -53 517 -86 q 256 43 326 -19 q 147 197 186 106 q 108 403 108 288 m 183 403 q 217 229 183 307 q 310 97 250 151 q 451 11 369 42 q 629 -19 533 -19 q 806 11 726 -19 q 943 97 886 42 q 1031 229 1000 151 q 1063 403 1063 307 q 1029 576 1063 499 q 938 710 996 654 q 800 795 879 765 q 629 825 721 825 q 444 794 526 825 q 304 709 363 764 q 215 576 246 654 q 183 403 183 499 m 757 288 l 821 288 l 821 149 q 753 122 793 129 q 668 114 713 114 q 530 133 593 114 q 421 188 467 151 q 349 279 375 225 q 324 404 324 333 q 352 531 324 476 q 426 621 381 585 q 531 676 472 657 q 649 694 589 694 q 753 687 711 694 q 826 664 794 679 l 826 513 l 757 513 l 757 621 q 741 626 753 624 q 715 631 729 629 q 686 635 701 633 q 660 636 671 636 q 523 574 572 636 q 474 404 474 513 q 485 316 474 358 q 520 242 496 274 q 583 191 544 210 q 676 172 622 172 q 728 179 706 172 q 757 192 750 186 l 757 288 z "},"ª":{"ha":683,"x_min":57,"x_max":622,"o":"m 421 626 q 394 595 413 613 q 350 562 376 578 q 291 535 324 546 q 219 525 258 525 q 99 567 140 525 q 57 685 57 610 q 83 809 57 753 q 151 906 108 865 q 249 967 194 946 q 360 989 303 989 q 451 973 418 989 q 497 935 485 957 l 522 972 l 622 972 l 536 600 l 614 600 l 614 536 l 426 536 l 426 626 l 421 626 m 263 596 q 360 623 315 596 q 436 685 404 650 l 479 882 q 444 910 469 897 q 390 922 418 922 q 317 908 353 922 q 252 867 281 894 q 206 796 224 839 q 189 694 189 753 q 208 624 189 653 q 263 596 226 596 z "},"«":{"ha":722,"x_min":47,"x_max":711,"o":"m 351 360 l 678 646 l 711 618 l 493 358 l 611 107 l 568 78 l 351 360 m 47 360 l 443 649 l 478 619 l 208 357 l 378 106 l 329 75 l 47 360 z "},"¬":{"ha":833,"x_min":69,"x_max":733,"o":"m 69 539 l 733 539 l 733 275 l 633 275 l 633 450 l 69 450 l 69 539 z "},"­":{"ha":660,"x_min":115,"x_max":572,"o":"m 133 436 l 572 436 l 554 347 l 115 347 l 133 436 z "},"®":{"ha":1090,"x_min":150,"x_max":940,"o":"m 150 626 q 182 785 150 715 q 268 901 214 854 q 394 973 322 949 q 544 997 465 997 q 699 973 626 997 q 824 901 771 949 q 909 785 878 854 q 940 626 940 715 q 908 467 940 536 q 822 351 876 399 q 695 280 767 304 q 544 256 624 256 q 396 280 467 256 q 270 351 325 304 q 183 467 215 399 q 150 626 150 536 m 217 626 q 244 497 217 554 q 316 398 271 439 q 420 335 361 357 q 544 314 479 314 q 672 335 613 314 q 777 397 732 357 q 848 495 822 438 q 874 626 874 553 q 847 756 874 699 q 774 854 819 814 q 669 917 729 894 q 544 939 610 939 q 415 917 475 939 q 311 854 356 894 q 242 756 267 814 q 217 626 217 699 m 493 476 l 549 476 l 549 429 l 354 429 l 354 476 l 408 476 l 408 797 l 354 797 l 354 844 l 415 844 q 482 847 443 844 q 546 850 521 850 q 613 844 581 850 q 670 823 646 838 q 709 786 694 808 q 724 733 724 764 q 694 662 724 690 q 621 621 664 633 l 722 476 l 760 476 l 760 429 l 653 429 l 547 615 l 493 615 l 493 476 m 539 804 q 512 803 521 804 q 493 800 503 803 l 493 657 l 542 657 q 632 733 632 657 q 606 787 632 769 q 539 804 579 804 z "},"¯":{"ha":617,"x_min":210,"x_max":626,"o":"m 210 928 l 226 1004 l 626 1004 l 610 928 l 210 928 z "},"°":{"ha":658,"x_min":140,"x_max":558,"o":"m 140 793 q 156 872 140 836 q 199 934 171 908 q 265 974 226 960 q 349 989 303 989 q 499 940 440 989 q 558 793 558 890 q 499 649 558 701 q 349 597 440 597 q 265 610 303 597 q 199 649 226 624 q 156 711 171 675 q 140 793 140 747 m 224 793 q 260 702 224 738 q 349 667 296 667 q 442 699 408 667 q 475 793 475 732 q 441 885 475 851 q 349 919 407 919 q 256 885 289 919 q 224 793 224 851 z "},"±":{"ha":833,"x_min":108,"x_max":781,"o":"m 108 682 l 403 682 l 403 972 l 486 972 l 486 682 l 781 682 l 781 607 l 486 607 l 486 394 l 403 394 l 403 607 l 108 607 l 108 682 m 108 321 l 781 321 l 781 246 l 108 246 l 108 321 z "},"²":{"ha":667,"x_min":99,"x_max":653,"o":"m 281 885 l 192 885 l 228 1057 q 273 1083 250 1071 q 324 1106 296 1096 q 387 1121 351 1115 q 471 1126 422 1126 q 611 1088 569 1126 q 653 989 653 1050 q 624 888 653 936 q 542 795 596 840 q 413 706 489 750 q 240 621 336 663 l 240 613 l 289 621 l 528 621 l 549 715 l 638 715 l 600 533 l 99 533 l 115 621 q 265 702 192 658 q 394 792 338 746 q 485 888 450 839 q 519 982 519 936 q 495 1038 519 1018 q 414 1057 471 1057 q 314 1038 357 1057 l 281 885 z "},"³":{"ha":667,"x_min":113,"x_max":708,"o":"m 354 589 q 428 601 397 589 q 478 633 458 614 q 507 675 497 651 q 517 721 517 699 q 511 752 517 738 q 491 778 506 767 q 449 797 476 790 q 381 803 422 803 l 328 803 l 336 847 l 583 1047 l 318 1047 l 290 917 l 201 917 l 244 1117 l 708 1117 l 693 1047 l 456 864 l 456 863 l 503 868 q 554 859 528 868 q 602 833 581 850 q 637 792 624 817 q 650 733 650 767 q 631 652 650 690 q 574 585 613 614 q 476 540 536 557 q 335 524 417 524 q 210 543 271 524 q 113 594 149 563 l 133 694 l 261 694 l 247 619 q 284 599 258 610 q 354 589 310 589 z "},"´":{"ha":669,"x_min":365,"x_max":676,"o":"m 501 1042 l 676 1042 l 676 985 l 404 822 l 365 854 l 501 1042 z "},"µ":{"ha":833,"x_min":0,"x_max":792,"o":"m 150 -278 l 0 -278 l 207 654 l 111 654 l 111 729 l 364 729 l 268 315 q 250 226 257 267 q 243 157 243 186 q 265 99 243 118 q 326 79 286 79 q 381 88 351 79 q 441 117 410 96 q 505 172 472 138 q 568 256 538 206 l 656 719 l 792 731 l 664 75 l 776 75 l 776 0 l 549 0 l 549 153 l 542 153 q 413 26 489 65 q 264 -14 336 -14 q 203 -7 232 -14 q 150 22 174 0 l 150 -278 z "},"¶":{"ha":822,"x_min":93,"x_max":733,"o":"m 617 131 q 600 -22 617 38 q 554 -116 583 -81 q 485 -169 525 -151 q 400 -194 446 -186 q 326 -261 368 -239 q 244 -294 285 -283 l 213 -249 q 276 -217 247 -236 q 326 -167 306 -199 q 359 -87 347 -136 q 371 33 371 -39 l 371 431 q 272 444 321 431 q 183 490 222 458 q 118 572 143 521 q 93 694 93 622 q 113 803 93 753 q 171 892 132 854 q 269 951 210 929 q 407 972 328 972 l 733 972 l 733 903 l 617 903 l 617 131 m 431 -131 q 503 -53 479 -112 q 528 131 528 7 l 528 903 l 460 903 l 460 33 q 454 -62 460 -22 q 431 -131 449 -101 z "},"·":{"ha":374,"x_min":81,"x_max":297,"o":"m 81 428 q 110 496 81 471 q 188 521 139 521 q 267 496 236 521 q 297 428 297 471 q 267 361 297 386 q 188 336 236 336 q 110 361 139 336 q 81 428 81 386 z "},"¸":{"ha":692,"x_min":124,"x_max":410,"o":"m 269 -85 q 340 -92 313 -86 q 383 -108 367 -97 q 404 -136 399 -119 q 410 -176 410 -153 q 381 -244 410 -218 q 310 -285 353 -271 q 217 -306 267 -300 q 124 -311 167 -311 l 124 -267 q 181 -262 153 -265 q 232 -253 210 -260 q 267 -233 254 -246 q 281 -199 281 -221 q 277 -174 281 -185 q 263 -158 274 -164 q 232 -147 251 -151 q 181 -140 213 -143 l 239 1 l 310 1 l 269 -85 z "},"¹":{"ha":667,"x_min":149,"x_max":603,"o":"m 588 533 l 149 533 l 164 603 l 321 603 l 411 1032 l 263 981 l 246 1043 l 429 1117 l 556 1117 l 447 603 l 603 603 l 588 533 z "},"º":{"ha":668,"x_min":58,"x_max":610,"o":"m 58 696 q 86 813 58 760 q 160 906 114 867 q 265 967 206 944 q 390 989 325 989 q 553 939 497 989 q 610 810 610 889 q 580 683 610 738 q 503 591 550 628 q 397 535 456 554 q 279 517 338 517 q 193 530 233 517 q 123 567 153 543 q 76 623 93 590 q 58 696 58 656 m 190 693 q 196 647 190 669 q 213 608 201 625 q 244 580 225 590 q 292 569 264 569 q 358 585 325 569 q 418 632 392 600 q 461 713 444 664 q 478 828 478 761 q 473 868 478 849 q 457 903 468 888 q 426 927 446 918 q 376 936 406 936 q 310 917 343 936 q 250 867 276 899 q 207 790 224 835 q 190 693 190 744 z "},"»":{"ha":722,"x_min":38,"x_max":710,"o":"m 72 78 l 38 107 l 265 374 l 154 618 l 201 646 l 406 360 l 72 78 m 306 75 l 269 106 l 551 372 l 389 619 l 435 649 l 710 360 l 306 75 z "},"¼":{"ha":1407,"x_min":83,"x_max":1307,"o":"m 522 389 l 83 389 l 99 458 l 256 458 l 346 888 l 197 836 l 181 899 l 364 972 l 490 972 l 382 458 l 538 458 l 522 389 m 1172 996 l 1229 943 l 317 -10 l 263 44 l 1172 996 m 1218 -3 l 885 -3 l 900 67 l 1024 67 l 1043 163 l 696 163 l 711 232 l 1131 581 l 1249 581 l 1175 232 l 1307 232 l 1292 163 l 1160 163 l 1140 67 l 1233 67 l 1218 -3 m 1110 475 l 814 232 l 1058 232 l 1110 475 z "},"½":{"ha":1390,"x_min":83,"x_max":1307,"o":"m 522 389 l 83 389 l 99 458 l 256 458 l 346 888 l 197 836 l 181 899 l 364 972 l 490 972 l 382 458 l 538 458 l 522 389 m 1144 996 l 1201 943 l 289 -10 l 235 44 l 1144 996 m 935 349 l 846 349 l 882 521 q 927 547 904 535 q 978 569 950 560 q 1041 585 1006 579 q 1125 590 1076 590 q 1265 552 1224 590 q 1307 453 1307 514 q 1278 352 1307 400 q 1197 259 1250 304 q 1067 170 1143 214 q 894 85 990 126 l 894 76 l 943 85 l 1182 85 l 1203 179 l 1292 179 l 1254 -3 l 753 -3 l 769 85 q 919 166 846 122 q 1048 256 992 210 q 1139 351 1104 303 q 1174 446 1174 400 q 1149 501 1174 482 q 1068 521 1125 521 q 968 501 1011 521 l 935 349 z "},"¾":{"ha":1464,"x_min":83,"x_max":1364,"o":"m 325 444 q 399 457 368 444 q 449 488 429 469 q 478 531 468 507 q 488 576 488 554 q 482 608 488 593 q 462 634 476 622 q 420 652 447 646 q 351 658 393 658 l 299 658 l 307 703 l 554 903 l 289 903 l 261 772 l 172 772 l 215 972 l 679 972 l 664 903 l 426 719 l 426 718 l 474 724 q 525 715 499 724 q 573 689 551 706 q 608 647 594 672 q 621 589 621 622 q 602 508 621 546 q 545 441 583 469 q 447 396 507 413 q 306 379 388 379 q 181 399 242 379 q 83 450 119 418 l 104 550 l 232 550 l 218 475 q 255 455 229 465 q 325 444 281 444 m 1200 996 l 1257 943 l 344 -10 l 290 44 l 1200 996 m 1275 -3 l 942 -3 l 957 67 l 1081 67 l 1100 163 l 753 163 l 768 232 l 1188 581 l 1306 581 l 1232 232 l 1364 232 l 1349 163 l 1217 163 l 1197 67 l 1290 67 l 1275 -3 m 1167 475 l 871 232 l 1115 232 l 1167 475 z "},"¿":{"ha":724,"x_min":14,"x_max":624,"o":"m 453 -61 l 586 -61 l 551 -229 q 425 -276 485 -264 q 290 -289 365 -289 q 85 -232 156 -289 q 14 -62 14 -175 q 41 65 14 4 q 119 176 68 126 q 242 260 169 225 q 404 308 314 294 l 433 447 l 522 447 l 481 250 q 169 -68 169 179 q 306 -214 169 -214 q 383 -206 354 -214 q 426 -190 411 -197 l 453 -61 m 624 619 q 594 551 624 576 q 517 526 565 526 q 438 551 468 526 q 407 619 407 576 q 438 686 407 661 q 517 711 468 711 q 594 686 565 711 q 624 619 624 661 z "},"À":{"ha":1035,"x_min":-69,"x_max":986,"o":"m 268 0 l -69 0 l -53 78 l 53 78 l 600 972 l 747 972 l 883 78 l 986 78 l 969 0 l 576 0 l 593 78 l 717 78 l 679 322 l 313 322 l 165 78 l 285 78 l 268 0 m 361 400 l 672 400 l 629 721 q 628 748 628 725 q 626 799 628 771 q 625 868 625 829 l 619 868 l 544 718 l 361 400 m 747 1101 l 729 1068 l 374 1168 l 374 1224 l 544 1269 l 747 1101 z "},"Á":{"ha":1035,"x_min":-69,"x_max":997,"o":"m 268 0 l -69 0 l -53 78 l 53 78 l 600 972 l 747 972 l 883 78 l 986 78 l 969 0 l 576 0 l 593 78 l 717 78 l 679 322 l 313 322 l 165 78 l 285 78 l 268 0 m 361 400 l 672 400 l 629 721 q 628 748 628 725 q 626 799 628 771 q 625 868 625 829 l 619 868 l 544 718 l 361 400 m 826 1269 l 997 1224 l 997 1168 l 642 1068 l 624 1101 l 826 1269 z "},"Â":{"ha":1035,"x_min":-69,"x_max":986,"o":"m 268 0 l -69 0 l -53 78 l 53 78 l 600 972 l 747 972 l 883 78 l 986 78 l 969 0 l 576 0 l 593 78 l 717 78 l 679 322 l 313 322 l 165 78 l 285 78 l 268 0 m 361 400 l 672 400 l 629 721 q 628 748 628 725 q 626 799 628 771 q 625 868 625 829 l 619 868 l 544 718 l 361 400 m 464 1057 l 442 1085 l 708 1269 l 751 1269 l 919 1089 l 894 1058 l 697 1136 l 464 1057 z "},"Ã":{"ha":1035,"x_min":-69,"x_max":986,"o":"m 268 0 l -69 0 l -53 78 l 53 78 l 600 972 l 747 972 l 883 78 l 986 78 l 969 0 l 576 0 l 593 78 l 717 78 l 679 322 l 313 322 l 165 78 l 285 78 l 268 0 m 361 400 l 672 400 l 629 721 q 628 748 628 725 q 626 799 628 771 q 625 868 625 829 l 619 868 l 544 718 l 361 400 m 928 1171 q 837 1097 878 1118 q 756 1076 796 1076 q 701 1085 726 1076 q 650 1105 675 1094 q 601 1124 625 1115 q 553 1133 578 1133 q 510 1124 533 1133 q 461 1092 486 1115 l 431 1142 q 536 1221 490 1200 q 622 1242 582 1242 q 676 1233 651 1242 q 725 1215 701 1225 q 772 1196 749 1204 q 819 1188 794 1188 q 862 1194 839 1188 q 908 1221 885 1201 l 928 1171 z "},"Ä":{"ha":1035,"x_min":-69,"x_max":986,"o":"m 268 0 l -69 0 l -53 78 l 53 78 l 600 972 l 747 972 l 883 78 l 986 78 l 969 0 l 576 0 l 593 78 l 717 78 l 679 322 l 313 322 l 165 78 l 285 78 l 268 0 m 361 400 l 672 400 l 629 721 q 628 748 628 725 q 626 799 628 771 q 625 868 625 829 l 619 868 l 544 718 l 361 400 m 406 1106 q 431 1166 406 1146 q 496 1186 457 1186 q 563 1166 536 1186 q 589 1106 589 1146 q 563 1050 589 1069 q 496 1031 536 1031 q 431 1050 457 1031 q 406 1106 406 1069 m 756 1106 q 782 1166 756 1146 q 846 1186 808 1186 q 913 1166 886 1186 q 939 1106 939 1146 q 913 1050 939 1069 q 846 1031 886 1031 q 782 1050 808 1031 q 756 1106 756 1069 z "},"Å":{"ha":1035,"x_min":-69,"x_max":986,"o":"m 268 0 l -69 0 l -53 78 l 53 78 l 600 972 l 747 972 l 883 78 l 986 78 l 969 0 l 576 0 l 593 78 l 717 78 l 679 322 l 313 322 l 165 78 l 285 78 l 268 0 m 361 400 l 672 400 l 629 721 q 628 748 628 725 q 626 799 628 771 q 625 868 625 829 l 619 868 l 544 718 l 361 400 m 500 1094 q 553 1183 500 1151 q 682 1214 606 1214 q 743 1207 713 1214 q 798 1186 774 1200 q 838 1151 822 1172 q 853 1099 853 1129 q 839 1050 853 1071 q 801 1014 825 1029 q 745 991 776 999 q 681 983 714 983 q 550 1013 600 983 q 500 1094 500 1042 m 604 1094 q 624 1056 604 1071 q 672 1042 644 1042 q 731 1056 713 1042 q 749 1093 749 1069 q 728 1142 749 1129 q 678 1156 707 1156 q 622 1138 640 1156 q 604 1094 604 1121 z "},"Æ":{"ha":1414,"x_min":-69,"x_max":1447,"o":"m 1447 972 l 1399 744 l 1310 744 l 1336 864 l 1314 894 l 978 894 l 901 535 l 1136 535 l 1161 556 l 1174 614 l 1263 614 l 1213 376 l 1124 376 l 1136 435 l 1119 457 l 885 457 l 804 78 l 1168 78 l 1201 106 l 1231 242 l 1319 242 l 1268 0 l 510 0 l 526 78 l 649 78 l 707 351 l 411 351 l 175 78 l 306 78 l 289 0 l -69 0 l -53 78 l 60 78 l 775 894 l 692 894 l 708 972 l 1447 972 m 475 429 l 724 429 l 813 847 l 810 847 l 726 718 l 475 429 z "},"Ç":{"ha":956,"x_min":106,"x_max":986,"o":"m 776 256 l 865 256 l 819 38 q 767 16 797 25 q 703 0 738 7 q 635 -11 669 -7 q 567 -17 600 -15 l 529 -89 q 605 -98 576 -90 q 649 -119 633 -106 q 669 -149 664 -132 q 674 -187 674 -167 q 642 -256 674 -229 q 562 -297 610 -282 q 460 -317 514 -311 q 361 -322 406 -322 l 361 -276 q 422 -272 392 -275 q 477 -261 453 -268 q 517 -242 501 -254 q 532 -211 532 -231 q 530 -186 532 -197 q 518 -167 528 -175 q 489 -155 508 -160 q 435 -149 469 -150 l 489 -14 q 297 26 371 -7 q 180 110 222 60 q 122 224 138 161 q 106 350 106 286 q 147 606 106 489 q 267 809 189 724 q 456 942 344 894 q 710 989 568 989 q 874 974 811 989 q 986 936 938 960 l 935 699 l 846 699 l 878 844 l 864 872 q 813 890 849 879 q 704 900 776 900 q 532 861 610 900 q 398 751 454 822 q 310 578 342 679 q 279 354 279 478 q 295 243 279 294 q 347 153 311 192 q 438 94 382 115 q 574 72 494 72 q 665 80 624 72 q 725 100 706 88 l 750 126 l 776 256 z "},"È":{"ha":882,"x_min":-29,"x_max":915,"o":"m 915 972 l 867 744 l 778 744 l 804 864 l 782 894 l 442 894 l 365 535 l 600 535 l 625 556 l 638 614 l 726 614 l 676 376 l 588 376 l 600 435 l 583 457 l 349 457 l 268 78 l 632 78 l 665 106 l 694 242 l 783 242 l 732 0 l -29 0 l -14 78 l 113 78 l 286 894 l 160 894 l 176 972 l 915 972 m 710 1101 l 692 1068 l 336 1168 l 336 1224 l 507 1269 l 710 1101 z "},"É":{"ha":882,"x_min":-29,"x_max":915,"o":"m 915 972 l 867 744 l 778 744 l 804 864 l 782 894 l 442 894 l 365 535 l 600 535 l 625 556 l 638 614 l 726 614 l 676 376 l 588 376 l 600 435 l 583 457 l 349 457 l 268 78 l 632 78 l 665 106 l 694 242 l 783 242 l 732 0 l -29 0 l -14 78 l 113 78 l 286 894 l 160 894 l 176 972 l 915 972 m 688 1269 l 858 1224 l 858 1168 l 503 1068 l 485 1101 l 688 1269 z "},"Ê":{"ha":882,"x_min":-29,"x_max":915,"o":"m 915 972 l 867 744 l 778 744 l 804 864 l 782 894 l 442 894 l 365 535 l 600 535 l 625 556 l 638 614 l 726 614 l 676 376 l 588 376 l 600 435 l 583 457 l 349 457 l 268 78 l 632 78 l 665 106 l 694 242 l 783 242 l 732 0 l -29 0 l -14 78 l 113 78 l 286 894 l 160 894 l 176 972 l 915 972 m 390 1057 l 368 1085 l 635 1269 l 678 1269 l 846 1089 l 821 1058 l 624 1136 l 390 1057 z "},"Ë":{"ha":882,"x_min":-29,"x_max":915,"o":"m 915 972 l 867 744 l 778 744 l 804 864 l 782 894 l 442 894 l 365 535 l 600 535 l 625 556 l 638 614 l 726 614 l 676 376 l 588 376 l 600 435 l 583 457 l 349 457 l 268 78 l 632 78 l 665 106 l 694 242 l 783 242 l 732 0 l -29 0 l -14 78 l 113 78 l 286 894 l 160 894 l 176 972 l 915 972 m 324 1106 q 349 1166 324 1146 q 414 1186 375 1186 q 481 1166 454 1186 q 507 1106 507 1146 q 481 1050 507 1069 q 414 1031 454 1031 q 349 1050 375 1031 q 324 1106 324 1069 m 674 1106 q 700 1166 674 1146 q 764 1186 726 1186 q 831 1166 804 1186 q 857 1106 857 1146 q 831 1050 857 1069 q 764 1031 804 1031 q 700 1050 726 1031 q 674 1106 674 1069 z "},"Ì":{"ha":540,"x_min":-1,"x_max":614,"o":"m 407 0 l -1 0 l 15 78 l 142 78 l 315 894 l 189 894 l 206 972 l 614 972 l 597 894 l 471 894 l 297 78 l 424 78 l 407 0 m 582 1101 l 564 1068 l 208 1168 l 208 1224 l 379 1269 l 582 1101 z "},"Í":{"ha":540,"x_min":-1,"x_max":728,"o":"m 407 0 l -1 0 l 15 78 l 142 78 l 315 894 l 189 894 l 206 972 l 614 972 l 597 894 l 471 894 l 297 78 l 424 78 l 407 0 m 557 1269 l 728 1224 l 728 1168 l 372 1068 l 354 1101 l 557 1269 z "},"Î":{"ha":540,"x_min":-1,"x_max":663,"o":"m 407 0 l -1 0 l 15 78 l 142 78 l 315 894 l 189 894 l 206 972 l 614 972 l 597 894 l 471 894 l 297 78 l 424 78 l 407 0 m 207 1057 l 185 1085 l 451 1269 l 494 1269 l 663 1089 l 638 1058 l 440 1136 l 207 1057 z "},"Ï":{"ha":540,"x_min":-1,"x_max":669,"o":"m 407 0 l -1 0 l 15 78 l 142 78 l 315 894 l 189 894 l 206 972 l 614 972 l 597 894 l 471 894 l 297 78 l 424 78 l 407 0 m 136 1106 q 162 1166 136 1146 q 226 1186 188 1186 q 293 1166 267 1186 q 319 1106 319 1146 q 293 1050 319 1069 q 226 1031 267 1031 q 162 1050 188 1031 q 136 1106 136 1069 m 486 1106 q 513 1166 486 1146 q 576 1186 539 1186 q 643 1166 617 1186 q 669 1106 669 1146 q 643 1050 669 1069 q 576 1031 617 1031 q 513 1050 539 1031 q 486 1106 486 1069 z "},"Ð":{"ha":1075,"x_min":-29,"x_max":1050,"o":"m -29 0 l -14 78 l 113 78 l 193 458 l 53 458 l 68 533 l 208 533 l 286 894 l 160 894 l 176 972 l 347 972 q 410 974 374 972 q 484 977 446 975 q 558 981 522 979 q 617 983 593 983 q 838 952 753 983 q 969 872 922 921 q 1033 764 1017 824 q 1050 646 1050 704 q 1009 378 1050 500 q 888 170 968 257 q 688 35 807 83 q 411 -12 568 -12 q 356 -10 389 -12 q 288 -6 324 -8 q 215 -2 251 -4 q 150 0 179 0 l -29 0 m 579 906 q 503 904 540 906 q 443 899 465 903 l 365 533 l 611 533 l 596 458 l 349 458 l 267 71 q 295 69 275 69 q 338 67 315 68 q 382 66 361 67 q 411 65 403 65 q 634 117 544 65 q 777 251 724 168 q 853 439 831 333 q 876 653 876 544 q 865 749 876 703 q 819 829 853 794 q 728 885 786 864 q 579 906 671 906 z "},"Ñ":{"ha":1125,"x_min":-29,"x_max":1226,"o":"m 889 972 l 1226 972 l 1210 894 l 1083 894 l 889 -17 l 810 -17 l 390 746 l 357 853 l 351 853 l 344 744 l 203 78 l 324 78 l 307 0 l -29 0 l -14 78 l 113 78 l 286 894 l 160 894 l 176 972 l 442 972 l 800 314 l 847 199 l 854 199 l 871 318 l 993 894 l 872 894 l 889 972 m 961 1171 q 870 1097 911 1118 q 789 1076 829 1076 q 734 1085 760 1076 q 683 1105 708 1094 q 635 1124 658 1115 q 586 1133 611 1133 q 543 1124 567 1133 q 494 1092 519 1115 l 464 1142 q 569 1221 524 1200 q 656 1242 615 1242 q 710 1233 685 1242 q 758 1215 735 1225 q 805 1196 782 1204 q 853 1188 828 1188 q 895 1194 872 1188 q 942 1221 918 1201 l 961 1171 z "},"Ò":{"ha":1139,"x_min":106,"x_max":1114,"o":"m 106 393 q 141 613 106 506 q 249 804 176 721 q 433 938 322 888 q 694 989 544 989 q 865 962 788 989 q 998 883 943 935 q 1083 760 1053 832 q 1114 599 1114 688 q 1083 377 1114 488 q 985 179 1053 267 q 810 38 917 92 q 551 -17 703 -17 q 390 7 469 -17 q 247 81 311 31 q 144 208 183 131 q 106 393 106 285 m 279 392 q 303 240 279 303 q 367 138 328 178 q 458 80 407 99 q 563 61 510 61 q 743 110 671 61 q 859 238 815 160 q 922 410 903 315 q 940 597 940 506 q 867 831 940 751 q 660 911 793 911 q 489 865 561 911 q 370 746 417 819 q 301 579 324 672 q 279 392 279 486 m 844 1101 l 826 1068 l 471 1168 l 471 1224 l 642 1269 l 844 1101 z "},"Ó":{"ha":1139,"x_min":106,"x_max":1114,"o":"m 106 393 q 141 613 106 506 q 249 804 176 721 q 433 938 322 888 q 694 989 544 989 q 865 962 788 989 q 998 883 943 935 q 1083 760 1053 832 q 1114 599 1114 688 q 1083 377 1114 488 q 985 179 1053 267 q 810 38 917 92 q 551 -17 703 -17 q 390 7 469 -17 q 247 81 311 31 q 144 208 183 131 q 106 393 106 285 m 279 392 q 303 240 279 303 q 367 138 328 178 q 458 80 407 99 q 563 61 510 61 q 743 110 671 61 q 859 238 815 160 q 922 410 903 315 q 940 597 940 506 q 867 831 940 751 q 660 911 793 911 q 489 865 561 911 q 370 746 417 819 q 301 579 324 672 q 279 392 279 486 m 711 1269 l 882 1224 l 882 1168 l 526 1068 l 508 1101 l 711 1269 z "},"Ô":{"ha":1139,"x_min":106,"x_max":1114,"o":"m 106 393 q 141 613 106 506 q 249 804 176 721 q 433 938 322 888 q 694 989 544 989 q 865 962 788 989 q 998 883 943 935 q 1083 760 1053 832 q 1114 599 1114 688 q 1083 377 1114 488 q 985 179 1053 267 q 810 38 917 92 q 551 -17 703 -17 q 390 7 469 -17 q 247 81 311 31 q 144 208 183 131 q 106 393 106 285 m 279 392 q 303 240 279 303 q 367 138 328 178 q 458 80 407 99 q 563 61 510 61 q 743 110 671 61 q 859 238 815 160 q 922 410 903 315 q 940 597 940 506 q 867 831 940 751 q 660 911 793 911 q 489 865 561 911 q 370 746 417 819 q 301 579 324 672 q 279 392 279 486 m 496 1057 l 474 1085 l 740 1269 l 783 1269 l 951 1089 l 926 1058 l 729 1136 l 496 1057 z "},"Õ":{"ha":1139,"x_min":106,"x_max":1114,"o":"m 106 393 q 141 613 106 506 q 249 804 176 721 q 433 938 322 888 q 694 989 544 989 q 865 962 788 989 q 998 883 943 935 q 1083 760 1053 832 q 1114 599 1114 688 q 1083 377 1114 488 q 985 179 1053 267 q 810 38 917 92 q 551 -17 703 -17 q 390 7 469 -17 q 247 81 311 31 q 144 208 183 131 q 106 393 106 285 m 279 392 q 303 240 279 303 q 367 138 328 178 q 458 80 407 99 q 563 61 510 61 q 743 110 671 61 q 859 238 815 160 q 922 410 903 315 q 940 597 940 506 q 867 831 940 751 q 660 911 793 911 q 489 865 561 911 q 370 746 417 819 q 301 579 324 672 q 279 392 279 486 m 964 1171 q 873 1097 914 1118 q 792 1076 832 1076 q 737 1085 763 1076 q 686 1105 711 1094 q 638 1124 661 1115 q 589 1133 614 1133 q 546 1124 569 1133 q 497 1092 522 1115 l 467 1142 q 572 1221 526 1200 q 658 1242 618 1242 q 713 1233 688 1242 q 761 1215 738 1225 q 808 1196 785 1204 q 856 1188 831 1188 q 898 1194 875 1188 q 944 1221 921 1201 l 964 1171 z "},"Ö":{"ha":1139,"x_min":106,"x_max":1114,"o":"m 106 393 q 141 613 106 506 q 249 804 176 721 q 433 938 322 888 q 694 989 544 989 q 865 962 788 989 q 998 883 943 935 q 1083 760 1053 832 q 1114 599 1114 688 q 1083 377 1114 488 q 985 179 1053 267 q 810 38 917 92 q 551 -17 703 -17 q 390 7 469 -17 q 247 81 311 31 q 144 208 183 131 q 106 393 106 285 m 279 392 q 303 240 279 303 q 367 138 328 178 q 458 80 407 99 q 563 61 510 61 q 743 110 671 61 q 859 238 815 160 q 922 410 903 315 q 940 597 940 506 q 867 831 940 751 q 660 911 793 911 q 489 865 561 911 q 370 746 417 819 q 301 579 324 672 q 279 392 279 486 m 415 1106 q 441 1166 415 1146 q 506 1186 467 1186 q 572 1166 546 1186 q 599 1106 599 1146 q 572 1050 599 1069 q 506 1031 546 1031 q 441 1050 467 1031 q 415 1106 415 1069 m 765 1106 q 792 1166 765 1146 q 856 1186 818 1186 q 922 1166 896 1186 q 949 1106 949 1146 q 922 1050 949 1069 q 856 1031 896 1031 q 792 1050 818 1031 q 765 1106 765 1069 z "},"×":{"ha":833,"x_min":164,"x_max":724,"o":"m 164 285 l 381 478 l 167 669 l 228 724 l 443 532 l 660 726 l 721 672 l 501 479 l 724 282 l 663 226 l 442 425 l 225 231 l 164 285 z "},"Ø":{"ha":1167,"x_min":106,"x_max":1142,"o":"m 106 393 q 141 613 106 506 q 249 804 176 721 q 433 938 322 888 q 694 989 544 989 q 846 968 776 989 q 968 907 915 947 l 1082 1032 l 1142 981 l 1025 854 q 1091 741 1068 806 q 1114 599 1114 676 q 1083 377 1114 488 q 985 179 1053 267 q 810 38 917 92 q 551 -17 703 -17 q 415 -1 482 -17 q 289 51 347 15 l 169 -79 l 114 -25 l 226 97 q 138 220 171 147 q 106 393 106 293 m 279 392 q 319 200 279 276 l 881 813 q 660 911 806 911 q 489 865 561 911 q 370 746 417 819 q 301 579 324 672 q 279 392 279 486 m 940 597 q 919 738 940 676 l 367 138 q 458 79 407 97 q 563 61 510 61 q 743 110 671 61 q 859 238 815 160 q 922 410 903 315 q 940 597 940 506 z "},"Ù":{"ha":1044,"x_min":132,"x_max":1174,"o":"m 913 339 q 766 72 874 156 q 482 -12 658 -12 q 324 9 389 -12 q 217 68 258 31 q 156 158 175 106 q 138 272 138 210 q 150 382 138 324 l 258 894 l 132 894 l 149 972 l 543 972 l 526 894 l 414 894 l 306 385 q 297 333 300 357 q 293 286 293 310 q 349 133 293 186 q 521 81 404 81 q 822 342 765 81 l 942 894 l 828 894 l 844 972 l 1174 972 l 1157 894 l 1031 894 l 913 339 m 733 1101 l 715 1068 l 360 1168 l 360 1224 l 531 1269 l 733 1101 z "},"Ú":{"ha":1044,"x_min":132,"x_max":1174,"o":"m 913 339 q 766 72 874 156 q 482 -12 658 -12 q 324 9 389 -12 q 217 68 258 31 q 156 158 175 106 q 138 272 138 210 q 150 382 138 324 l 258 894 l 132 894 l 149 972 l 543 972 l 526 894 l 414 894 l 306 385 q 297 333 300 357 q 293 286 293 310 q 349 133 293 186 q 521 81 404 81 q 822 342 765 81 l 942 894 l 828 894 l 844 972 l 1174 972 l 1157 894 l 1031 894 l 913 339 m 868 1269 l 1039 1224 l 1039 1168 l 683 1068 l 665 1101 l 868 1269 z "},"Û":{"ha":1044,"x_min":132,"x_max":1174,"o":"m 913 339 q 766 72 874 156 q 482 -12 658 -12 q 324 9 389 -12 q 217 68 258 31 q 156 158 175 106 q 138 272 138 210 q 150 382 138 324 l 258 894 l 132 894 l 149 972 l 543 972 l 526 894 l 414 894 l 306 385 q 297 333 300 357 q 293 286 293 310 q 349 133 293 186 q 521 81 404 81 q 822 342 765 81 l 942 894 l 828 894 l 844 972 l 1174 972 l 1157 894 l 1031 894 l 913 339 m 506 1057 l 483 1085 l 750 1269 l 793 1269 l 961 1089 l 936 1058 l 739 1136 l 506 1057 z "},"Ü":{"ha":1044,"x_min":132,"x_max":1174,"o":"m 913 339 q 766 72 874 156 q 482 -12 658 -12 q 324 9 389 -12 q 217 68 258 31 q 156 158 175 106 q 138 272 138 210 q 150 382 138 324 l 258 894 l 132 894 l 149 972 l 543 972 l 526 894 l 414 894 l 306 385 q 297 333 300 357 q 293 286 293 310 q 349 133 293 186 q 521 81 404 81 q 822 342 765 81 l 942 894 l 828 894 l 844 972 l 1174 972 l 1157 894 l 1031 894 l 913 339 m 421 1106 q 447 1166 421 1146 q 511 1186 472 1186 q 578 1166 551 1186 q 604 1106 604 1146 q 578 1050 604 1069 q 511 1031 551 1031 q 447 1050 472 1031 q 421 1106 421 1069 m 771 1106 q 797 1166 771 1146 q 861 1186 824 1186 q 928 1166 901 1186 q 954 1106 954 1146 q 928 1050 954 1069 q 861 1031 901 1031 q 797 1050 824 1031 q 771 1106 771 1069 z "},"Ý":{"ha":1010,"x_min":125,"x_max":1151,"o":"m 799 972 l 1151 972 l 1135 894 l 1017 894 l 618 413 l 547 78 l 663 78 l 646 0 l 249 0 l 265 78 l 392 78 l 463 411 l 251 894 l 125 894 l 142 972 l 557 972 l 540 894 l 424 894 l 582 483 l 910 894 l 782 894 l 799 972 m 853 1269 l 1024 1224 l 1024 1168 l 668 1068 l 650 1101 l 853 1269 z "},"Þ":{"ha":903,"x_min":-29,"x_max":925,"o":"m 160 894 l 176 972 l 582 972 l 565 894 l 442 894 l 428 829 q 503 833 464 832 q 578 835 543 835 q 843 774 761 835 q 925 601 925 714 q 890 444 925 511 q 790 333 854 378 q 634 265 725 288 q 432 243 543 243 q 406 243 424 243 q 368 244 388 243 q 331 245 349 244 q 304 247 313 246 l 268 78 l 419 78 l 403 0 l -29 0 l -14 78 l 113 78 l 286 894 l 160 894 m 526 757 q 411 749 453 757 l 321 328 q 344 324 328 325 q 377 322 360 324 q 411 321 394 321 q 436 321 428 321 q 575 342 515 321 q 674 399 635 363 q 732 487 713 436 q 751 599 751 538 q 701 717 751 676 q 526 757 650 757 z "},"ß":{"ha":938,"x_min":-90,"x_max":878,"o":"m 432 549 q 515 717 432 649 q 740 824 597 786 q 742 835 742 831 q 742 847 742 840 q 733 901 742 875 q 706 947 724 926 q 660 978 688 967 q 597 990 633 990 q 524 982 563 990 q 453 950 486 974 q 393 884 419 926 q 354 772 367 842 l 232 63 q 174 -105 214 -40 q 90 -206 135 -169 q 1 -259 44 -243 q -67 -282 -42 -275 l -90 -222 q -44 -200 -72 -214 q 11 -158 -17 -186 q 63 -83 39 -129 q 97 35 86 -37 l 196 654 l 86 654 l 86 729 l 213 729 l 219 764 q 284 911 238 854 q 389 1000 331 968 q 510 1044 447 1032 q 624 1056 574 1056 q 742 1040 693 1056 q 820 997 790 1024 q 864 933 850 969 q 878 857 878 897 q 876 823 878 842 q 871 789 874 804 q 758 767 813 781 q 663 729 704 753 q 597 671 622 706 q 572 588 572 636 q 592 525 572 551 q 641 475 611 499 q 706 428 671 451 q 770 375 740 404 q 819 308 800 346 q 839 218 839 269 q 813 123 839 165 q 744 50 788 81 q 643 3 701 19 q 521 -14 585 -14 q 406 1 456 -14 q 325 36 356 17 l 365 117 q 439 77 397 93 q 519 61 481 61 q 585 69 553 61 q 641 92 617 76 q 680 131 665 107 q 694 186 694 154 q 675 259 694 229 q 626 313 656 289 q 563 359 597 338 q 500 406 529 381 q 451 466 471 432 q 432 549 432 500 z "},"à":{"ha":821,"x_min":64,"x_max":756,"o":"m 306 75 q 364 91 332 75 q 427 132 396 107 q 485 188 458 157 q 531 250 513 219 l 604 628 q 563 657 590 646 q 501 668 536 668 q 376 628 431 668 q 285 525 322 589 q 228 383 247 461 q 208 228 208 304 q 306 75 208 75 m 514 163 q 475 108 500 139 q 415 51 450 78 q 335 5 379 24 q 239 -14 290 -14 q 112 40 160 -14 q 64 203 64 94 q 93 403 64 306 q 178 576 122 500 q 315 697 233 651 q 501 743 396 743 q 576 728 540 743 q 626 696 611 714 l 649 729 l 756 729 l 625 75 l 739 75 l 739 0 l 493 0 l 522 163 l 514 163 m 583 854 l 544 822 l 272 985 l 272 1042 l 447 1042 l 583 854 z "},"á":{"ha":821,"x_min":64,"x_max":768,"o":"m 306 75 q 364 91 332 75 q 427 132 396 107 q 485 188 458 157 q 531 250 513 219 l 604 628 q 563 657 590 646 q 501 668 536 668 q 376 628 431 668 q 285 525 322 589 q 228 383 247 461 q 208 228 208 304 q 306 75 208 75 m 514 163 q 475 108 500 139 q 415 51 450 78 q 335 5 379 24 q 239 -14 290 -14 q 112 40 160 -14 q 64 203 64 94 q 93 403 64 306 q 178 576 122 500 q 315 697 233 651 q 501 743 396 743 q 576 728 540 743 q 626 696 611 714 l 649 729 l 756 729 l 625 75 l 739 75 l 739 0 l 493 0 l 522 163 l 514 163 m 593 1042 l 768 1042 l 768 985 l 496 822 l 457 854 l 593 1042 z "},"â":{"ha":821,"x_min":64,"x_max":756,"o":"m 306 75 q 364 91 332 75 q 427 132 396 107 q 485 188 458 157 q 531 250 513 219 l 604 628 q 563 657 590 646 q 501 668 536 668 q 376 628 431 668 q 285 525 322 589 q 228 383 247 461 q 208 228 208 304 q 306 75 208 75 m 514 163 q 475 108 500 139 q 415 51 450 78 q 335 5 379 24 q 239 -14 290 -14 q 112 40 160 -14 q 64 203 64 94 q 93 403 64 306 q 178 576 122 500 q 315 697 233 651 q 501 743 396 743 q 576 728 540 743 q 626 696 611 714 l 649 729 l 756 729 l 625 75 l 739 75 l 739 0 l 493 0 l 522 163 l 514 163 m 372 860 l 328 883 l 599 1156 l 639 1156 l 717 885 l 672 860 l 575 1015 l 372 860 z "},"ã":{"ha":821,"x_min":64,"x_max":776,"o":"m 306 75 q 364 91 332 75 q 427 132 396 107 q 485 188 458 157 q 531 250 513 219 l 604 628 q 563 657 590 646 q 501 668 536 668 q 376 628 431 668 q 285 525 322 589 q 228 383 247 461 q 208 228 208 304 q 306 75 208 75 m 514 163 q 475 108 500 139 q 415 51 450 78 q 335 5 379 24 q 239 -14 290 -14 q 112 40 160 -14 q 64 203 64 94 q 93 403 64 306 q 178 576 122 500 q 315 697 233 651 q 501 743 396 743 q 576 728 540 743 q 626 696 611 714 l 649 729 l 756 729 l 625 75 l 739 75 l 739 0 l 493 0 l 522 163 l 514 163 m 776 979 q 684 915 726 932 q 607 897 642 897 q 554 905 579 897 q 506 922 529 913 q 460 938 482 931 q 414 946 438 946 q 373 938 394 946 q 326 910 351 931 l 296 954 q 399 1022 354 1004 q 481 1040 444 1040 q 533 1033 508 1040 q 579 1017 557 1025 q 624 1001 601 1008 q 669 993 646 993 q 710 999 689 993 q 754 1022 731 1006 l 776 979 z "},"ä":{"ha":821,"x_min":64,"x_max":786,"o":"m 306 75 q 364 91 332 75 q 427 132 396 107 q 485 188 458 157 q 531 250 513 219 l 604 628 q 563 657 590 646 q 501 668 536 668 q 376 628 431 668 q 285 525 322 589 q 228 383 247 461 q 208 228 208 304 q 306 75 208 75 m 514 163 q 475 108 500 139 q 415 51 450 78 q 335 5 379 24 q 239 -14 290 -14 q 112 40 160 -14 q 64 203 64 94 q 93 403 64 306 q 178 576 122 500 q 315 697 233 651 q 501 743 396 743 q 576 728 540 743 q 626 696 611 714 l 649 729 l 756 729 l 625 75 l 739 75 l 739 0 l 493 0 l 522 163 l 514 163 m 267 956 q 291 1020 267 996 q 356 1044 315 1044 q 419 1020 394 1044 q 443 956 443 996 q 419 894 443 918 q 356 869 394 869 q 291 894 315 869 q 267 956 267 918 m 610 956 q 635 1020 610 996 q 699 1044 660 1044 q 763 1020 739 1044 q 786 956 786 996 q 763 894 786 918 q 699 869 739 869 q 635 894 660 869 q 610 956 610 918 z "},"å":{"ha":821,"x_min":64,"x_max":756,"o":"m 306 75 q 364 91 332 75 q 427 132 396 107 q 485 188 458 157 q 531 250 513 219 l 604 628 q 563 657 590 646 q 501 668 536 668 q 376 628 431 668 q 285 525 322 589 q 228 383 247 461 q 208 228 208 304 q 306 75 208 75 m 514 163 q 475 108 500 139 q 415 51 450 78 q 335 5 379 24 q 239 -14 290 -14 q 112 40 160 -14 q 64 203 64 94 q 93 403 64 306 q 178 576 122 500 q 315 697 233 651 q 501 743 396 743 q 576 728 540 743 q 626 696 611 714 l 649 729 l 756 729 l 625 75 l 739 75 l 739 0 l 493 0 l 522 163 l 514 163 m 408 996 q 453 1097 408 1056 q 565 1138 497 1138 q 670 1101 628 1138 q 713 1000 713 1064 q 700 946 713 971 q 667 903 688 921 q 620 874 647 885 q 564 864 593 864 q 451 899 493 864 q 408 996 408 935 m 492 999 q 513 944 492 963 q 558 925 533 925 q 609 942 589 925 q 629 994 629 958 q 610 1056 629 1035 q 560 1076 590 1076 q 508 1056 524 1076 q 492 999 492 1035 z "},"æ":{"ha":1135,"x_min":43,"x_max":1104,"o":"m 304 79 q 368 94 338 79 q 424 131 399 108 q 467 183 449 154 q 497 240 486 213 q 499 295 497 263 q 504 351 501 328 q 442 356 471 356 q 335 341 381 356 q 260 303 290 326 q 216 249 231 279 q 201 189 201 219 q 233 103 201 128 q 304 79 264 79 m 508 154 q 400 32 467 78 q 243 -14 333 -14 q 165 -1 201 -14 q 102 37 129 13 q 59 96 75 61 q 43 175 43 131 q 70 269 43 226 q 149 344 97 313 q 273 392 200 375 q 438 410 346 410 q 476 410 457 410 q 517 407 496 410 q 541 497 532 456 q 550 572 550 539 q 526 650 550 622 q 449 678 503 678 q 390 672 426 678 q 325 650 353 665 l 325 522 l 192 522 l 192 671 q 333 724 258 704 q 494 743 407 743 q 624 721 581 743 q 676 663 667 699 q 787 722 725 700 q 922 743 849 743 q 993 735 960 743 q 1051 709 1026 726 q 1090 666 1075 692 q 1104 606 1104 640 q 997 441 1104 501 q 650 364 890 381 q 641 316 643 339 q 639 271 639 293 q 685 131 639 183 q 819 79 732 79 q 878 89 850 79 q 929 114 906 99 q 972 147 953 129 q 1006 181 992 165 l 1049 132 q 1003 76 1032 103 q 938 30 975 50 q 856 -2 901 10 q 761 -14 811 -14 q 597 27 661 -14 q 510 154 533 68 l 508 154 m 878 678 q 756 622 813 678 q 661 428 700 567 q 888 476 807 432 q 968 600 968 521 q 950 654 968 631 q 878 678 932 678 z "},"ç":{"ha":656,"x_min":61,"x_max":675,"o":"m 606 138 q 509 34 571 72 q 358 -12 447 -4 l 325 -85 q 395 -92 368 -86 q 438 -108 422 -97 q 460 -136 454 -119 q 465 -176 465 -153 q 438 -244 465 -218 q 367 -285 410 -271 q 274 -306 324 -300 q 179 -311 224 -311 l 179 -267 q 237 -262 208 -265 q 288 -253 265 -260 q 323 -233 310 -246 q 336 -199 336 -221 q 333 -174 336 -185 q 318 -158 329 -164 q 288 -147 307 -151 q 236 -140 268 -143 l 289 -12 q 192 15 235 -8 q 121 74 150 38 q 76 156 92 110 q 61 254 61 203 q 90 453 61 363 q 176 608 119 543 q 313 708 232 672 q 496 743 393 743 q 604 728 554 743 q 675 690 654 714 l 633 525 l 536 525 l 565 650 q 528 664 554 660 q 482 668 503 668 q 369 641 419 668 q 281 565 318 614 q 225 448 244 517 q 206 294 206 379 q 251 138 206 194 q 372 81 297 81 q 483 107 435 81 q 560 174 531 133 l 606 138 z "},"è":{"ha":696,"x_min":61,"x_max":668,"o":"m 604 133 q 563 79 589 106 q 500 32 536 53 q 419 -1 464 11 q 324 -14 375 -14 q 133 53 204 -14 q 61 243 61 121 q 92 439 61 347 q 178 597 122 531 q 312 703 233 664 q 486 743 390 743 q 557 734 524 743 q 615 707 590 725 q 654 663 640 689 q 668 601 668 636 q 563 440 668 501 q 217 363 457 379 q 208 315 211 338 q 206 271 206 293 q 251 131 206 183 q 383 79 296 79 q 438 88 411 79 q 490 109 465 96 q 535 139 515 122 q 568 171 556 156 l 604 133 m 440 678 q 321 620 375 678 q 228 428 267 563 q 453 476 375 432 q 532 596 532 521 q 528 626 532 611 q 513 652 524 640 q 485 671 503 664 q 440 678 468 678 m 513 854 l 474 822 l 201 985 l 201 1042 l 376 1042 l 513 854 z "},"é":{"ha":696,"x_min":61,"x_max":721,"o":"m 604 133 q 563 79 589 106 q 500 32 536 53 q 419 -1 464 11 q 324 -14 375 -14 q 133 53 204 -14 q 61 243 61 121 q 92 439 61 347 q 178 597 122 531 q 312 703 233 664 q 486 743 390 743 q 557 734 524 743 q 615 707 590 725 q 654 663 640 689 q 668 601 668 636 q 563 440 668 501 q 217 363 457 379 q 208 315 211 338 q 206 271 206 293 q 251 131 206 183 q 383 79 296 79 q 438 88 411 79 q 490 109 465 96 q 535 139 515 122 q 568 171 556 156 l 604 133 m 440 678 q 321 620 375 678 q 228 428 267 563 q 453 476 375 432 q 532 596 532 521 q 528 626 532 611 q 513 652 524 640 q 485 671 503 664 q 440 678 468 678 m 546 1042 l 721 1042 l 721 985 l 449 822 l 410 854 l 546 1042 z "},"ê":{"ha":696,"x_min":61,"x_max":668,"o":"m 604 133 q 563 79 589 106 q 500 32 536 53 q 419 -1 464 11 q 324 -14 375 -14 q 133 53 204 -14 q 61 243 61 121 q 92 439 61 347 q 178 597 122 531 q 312 703 233 664 q 486 743 390 743 q 557 734 524 743 q 615 707 590 725 q 654 663 640 689 q 668 601 668 636 q 563 440 668 501 q 217 363 457 379 q 208 315 211 338 q 206 271 206 293 q 251 131 206 183 q 383 79 296 79 q 438 88 411 79 q 490 109 465 96 q 535 139 515 122 q 568 171 556 156 l 604 133 m 440 678 q 321 620 375 678 q 228 428 267 563 q 453 476 375 432 q 532 596 532 521 q 528 626 532 611 q 513 652 524 640 q 485 671 503 664 q 440 678 468 678 m 324 860 l 279 883 l 550 1156 l 590 1156 l 668 885 l 624 860 l 526 1015 l 324 860 z "},"ë":{"ha":696,"x_min":61,"x_max":751,"o":"m 604 133 q 563 79 589 106 q 500 32 536 53 q 419 -1 464 11 q 324 -14 375 -14 q 133 53 204 -14 q 61 243 61 121 q 92 439 61 347 q 178 597 122 531 q 312 703 233 664 q 486 743 390 743 q 557 734 524 743 q 615 707 590 725 q 654 663 640 689 q 668 601 668 636 q 563 440 668 501 q 217 363 457 379 q 208 315 211 338 q 206 271 206 293 q 251 131 206 183 q 383 79 296 79 q 438 88 411 79 q 490 109 465 96 q 535 139 515 122 q 568 171 556 156 l 604 133 m 440 678 q 321 620 375 678 q 228 428 267 563 q 453 476 375 432 q 532 596 532 521 q 528 626 532 611 q 513 652 524 640 q 485 671 503 664 q 440 678 468 678 m 232 956 q 256 1020 232 996 q 321 1044 281 1044 q 384 1020 360 1044 q 408 956 408 996 q 384 894 408 918 q 321 869 360 869 q 256 894 281 869 q 232 956 232 918 m 575 956 q 600 1020 575 996 q 664 1044 625 1044 q 728 1020 704 1044 q 751 956 751 996 q 728 894 751 918 q 664 869 704 869 q 600 894 625 869 q 575 956 575 918 z "},"ì":{"ha":426,"x_min":54,"x_max":365,"o":"m 106 654 l 106 729 l 357 729 l 213 75 l 326 75 l 326 0 l 58 0 l 207 654 l 106 654 m 365 854 l 326 822 l 54 985 l 54 1042 l 229 1042 l 365 854 z "},"í":{"ha":426,"x_min":58,"x_max":521,"o":"m 106 654 l 106 729 l 357 729 l 213 75 l 326 75 l 326 0 l 58 0 l 207 654 l 106 654 m 346 1042 l 521 1042 l 521 985 l 249 822 l 210 854 l 346 1042 z "},"î":{"ha":426,"x_min":58,"x_max":489,"o":"m 106 654 l 106 729 l 357 729 l 213 75 l 326 75 l 326 0 l 58 0 l 207 654 l 106 654 m 144 860 l 100 883 l 371 1156 l 411 1156 l 489 885 l 444 860 l 347 1015 l 144 860 z "},"ï":{"ha":426,"x_min":26,"x_max":546,"o":"m 106 654 l 106 729 l 357 729 l 213 75 l 326 75 l 326 0 l 58 0 l 207 654 l 106 654 m 26 956 q 51 1020 26 996 q 115 1044 75 1044 q 178 1020 154 1044 q 203 956 203 996 q 178 894 203 918 q 115 869 154 869 q 51 894 75 869 q 26 956 26 918 m 369 956 q 394 1020 369 996 q 458 1044 419 1044 q 522 1020 499 1044 q 546 956 546 996 q 522 894 546 918 q 458 869 499 869 q 394 894 419 869 q 369 956 369 918 z "},"ð":{"ha":761,"x_min":44,"x_max":804,"o":"m 349 861 l 514 932 q 447 982 489 964 q 364 1011 404 1000 l 364 1042 l 506 1042 q 621 981 575 1026 l 772 1046 l 804 989 l 661 926 q 710 833 685 897 q 735 681 735 769 q 698 405 735 532 q 598 185 661 278 q 451 39 535 92 q 271 -14 367 -14 q 103 53 161 -14 q 44 246 44 121 q 76 423 44 335 q 167 581 108 511 q 308 694 225 651 q 493 738 390 738 q 549 731 521 738 q 594 714 576 725 q 583 810 594 772 q 550 878 571 847 l 383 806 l 349 861 m 479 672 q 341 628 397 672 q 251 519 285 585 q 201 378 217 454 q 186 236 186 301 q 190 171 186 204 q 208 111 194 138 q 245 68 221 85 q 308 51 269 51 q 409 97 358 51 q 501 221 460 142 q 567 408 542 300 q 593 643 593 517 q 535 667 561 661 q 479 672 508 672 z "},"ñ":{"ha":847,"x_min":64,"x_max":771,"o":"m 590 415 q 610 499 601 460 q 618 576 618 539 q 601 631 618 608 q 551 654 585 654 q 472 638 510 654 q 401 597 433 621 q 345 546 369 572 q 307 500 321 519 l 199 0 l 64 0 l 201 654 l 106 654 l 106 729 l 353 729 l 321 585 l 328 585 q 458 699 386 656 q 614 743 531 743 q 722 706 689 743 q 754 611 754 669 q 747 531 754 579 q 728 440 739 482 l 640 75 l 754 75 l 754 0 l 633 0 l 497 0 l 590 415 m 771 979 q 678 915 721 932 q 601 897 636 897 q 549 905 574 897 q 500 922 524 913 q 454 938 476 931 q 408 946 432 946 q 367 938 389 946 q 321 910 346 931 l 290 954 q 394 1022 349 1004 q 475 1040 439 1040 q 527 1033 503 1040 q 574 1017 551 1025 q 618 1001 596 1008 q 664 993 640 993 q 704 999 683 993 q 749 1022 725 1006 l 771 979 z "},"ò":{"ha":783,"x_min":61,"x_max":722,"o":"m 61 271 q 87 433 61 349 q 165 585 113 517 q 295 698 217 653 q 479 743 374 743 q 661 672 600 743 q 722 465 722 601 q 693 283 722 369 q 611 132 664 197 q 485 26 558 67 q 321 -14 411 -14 q 132 59 203 -14 q 61 271 61 132 m 449 678 q 363 657 400 678 q 299 601 325 636 q 254 520 272 565 q 225 426 236 475 q 210 328 214 376 q 206 238 206 281 q 244 104 206 157 q 349 51 282 51 q 444 90 401 51 q 516 190 486 129 q 562 328 546 250 q 578 488 578 406 q 547 626 578 574 q 449 678 515 678 m 564 854 l 525 822 l 253 985 l 253 1042 l 428 1042 l 564 854 z "},"ó":{"ha":783,"x_min":61,"x_max":722,"o":"m 61 271 q 87 433 61 349 q 165 585 113 517 q 295 698 217 653 q 479 743 374 743 q 661 672 600 743 q 722 465 722 601 q 693 283 722 369 q 611 132 664 197 q 485 26 558 67 q 321 -14 411 -14 q 132 59 203 -14 q 61 271 61 132 m 449 678 q 363 657 400 678 q 299 601 325 636 q 254 520 272 565 q 225 426 236 475 q 210 328 214 376 q 206 238 206 281 q 244 104 206 157 q 349 51 282 51 q 444 90 401 51 q 516 190 486 129 q 562 328 546 250 q 578 488 578 406 q 547 626 578 574 q 449 678 515 678 m 529 1042 l 704 1042 l 704 985 l 432 822 l 393 854 l 529 1042 z "},"ô":{"ha":783,"x_min":61,"x_max":722,"o":"m 61 271 q 87 433 61 349 q 165 585 113 517 q 295 698 217 653 q 479 743 374 743 q 661 672 600 743 q 722 465 722 601 q 693 283 722 369 q 611 132 664 197 q 485 26 558 67 q 321 -14 411 -14 q 132 59 203 -14 q 61 271 61 132 m 449 678 q 363 657 400 678 q 299 601 325 636 q 254 520 272 565 q 225 426 236 475 q 210 328 214 376 q 206 238 206 281 q 244 104 206 157 q 349 51 282 51 q 444 90 401 51 q 516 190 486 129 q 562 328 546 250 q 578 488 578 406 q 547 626 578 574 q 449 678 515 678 m 333 860 l 289 883 l 560 1156 l 600 1156 l 678 885 l 633 860 l 536 1015 l 333 860 z "},"õ":{"ha":783,"x_min":61,"x_max":726,"o":"m 61 271 q 87 433 61 349 q 165 585 113 517 q 295 698 217 653 q 479 743 374 743 q 661 672 600 743 q 722 465 722 601 q 693 283 722 369 q 611 132 664 197 q 485 26 558 67 q 321 -14 411 -14 q 132 59 203 -14 q 61 271 61 132 m 449 678 q 363 657 400 678 q 299 601 325 636 q 254 520 272 565 q 225 426 236 475 q 210 328 214 376 q 206 238 206 281 q 244 104 206 157 q 349 51 282 51 q 444 90 401 51 q 516 190 486 129 q 562 328 546 250 q 578 488 578 406 q 547 626 578 574 q 449 678 515 678 m 726 979 q 634 915 676 932 q 557 897 592 897 q 504 905 529 897 q 456 922 479 913 q 410 938 432 931 q 364 946 388 946 q 323 938 344 946 q 276 910 301 931 l 246 954 q 349 1022 304 1004 q 431 1040 394 1040 q 483 1033 458 1040 q 529 1017 507 1025 q 574 1001 551 1008 q 619 993 596 993 q 660 999 639 993 q 704 1022 681 1006 l 726 979 z "},"ö":{"ha":783,"x_min":61,"x_max":751,"o":"m 61 271 q 87 433 61 349 q 165 585 113 517 q 295 698 217 653 q 479 743 374 743 q 661 672 600 743 q 722 465 722 601 q 693 283 722 369 q 611 132 664 197 q 485 26 558 67 q 321 -14 411 -14 q 132 59 203 -14 q 61 271 61 132 m 449 678 q 363 657 400 678 q 299 601 325 636 q 254 520 272 565 q 225 426 236 475 q 210 328 214 376 q 206 238 206 281 q 244 104 206 157 q 349 51 282 51 q 444 90 401 51 q 516 190 486 129 q 562 328 546 250 q 578 488 578 406 q 547 626 578 574 q 449 678 515 678 m 232 956 q 256 1020 232 996 q 321 1044 281 1044 q 384 1020 360 1044 q 408 956 408 996 q 384 894 408 918 q 321 869 360 869 q 256 894 281 869 q 232 956 232 918 m 575 956 q 600 1020 575 996 q 664 1044 625 1044 q 728 1020 704 1044 q 751 956 751 996 q 728 894 751 918 q 664 869 704 869 q 600 894 625 869 q 575 956 575 918 z "},"÷":{"ha":833,"x_min":93,"x_max":794,"o":"m 93 515 l 794 515 l 794 440 l 93 440 l 93 515 m 335 742 q 364 810 335 785 q 442 835 393 835 q 521 810 490 835 q 551 742 551 785 q 521 675 551 700 q 442 650 490 650 q 364 675 393 650 q 335 742 335 700 m 335 213 q 364 281 335 256 q 442 306 393 306 q 521 281 490 306 q 551 213 551 256 q 521 146 551 171 q 442 121 490 121 q 364 146 393 121 q 335 213 335 171 z "},"ø":{"ha":783,"x_min":-28,"x_max":808,"o":"m 61 271 q 87 432 61 349 q 165 585 113 515 q 295 699 217 654 q 479 743 374 743 q 570 731 529 743 q 640 694 611 719 l 749 814 l 808 767 l 688 635 q 713 560 704 601 q 722 469 722 519 q 693 286 722 374 q 611 132 664 199 q 485 26 558 65 q 321 -14 411 -14 q 224 -1 268 -14 q 147 42 181 13 l 28 -89 l -28 -42 l 100 100 q 61 271 61 169 m 349 51 q 442 88 400 51 q 515 185 485 125 q 560 320 544 244 q 578 475 576 396 l 578 515 l 226 129 q 276 71 244 90 q 349 51 308 51 m 449 678 q 330 635 376 678 q 256 528 283 592 q 218 391 229 465 q 206 254 207 317 l 206 215 l 561 606 q 517 658 546 639 q 449 678 489 678 z "},"ù":{"ha":833,"x_min":81,"x_max":764,"o":"m 750 75 l 750 0 l 494 0 l 524 164 l 518 164 q 467 103 497 135 q 398 47 436 72 q 315 3 360 21 q 219 -14 269 -14 q 118 20 156 -14 q 81 119 81 54 q 84 170 81 139 q 96 242 88 201 l 183 654 l 88 654 l 88 729 l 338 729 l 242 314 q 225 237 233 278 q 217 157 217 196 q 235 95 217 115 q 282 75 253 75 q 372 97 329 75 q 448 149 414 119 q 505 211 482 179 q 539 264 528 243 l 632 729 l 764 729 l 638 75 l 750 75 m 567 854 l 528 822 l 256 985 l 256 1042 l 431 1042 l 567 854 z "},"ú":{"ha":833,"x_min":81,"x_max":764,"o":"m 750 75 l 750 0 l 494 0 l 524 164 l 518 164 q 467 103 497 135 q 398 47 436 72 q 315 3 360 21 q 219 -14 269 -14 q 118 20 156 -14 q 81 119 81 54 q 84 170 81 139 q 96 242 88 201 l 183 654 l 88 654 l 88 729 l 338 729 l 242 314 q 225 237 233 278 q 217 157 217 196 q 235 95 217 115 q 282 75 253 75 q 372 97 329 75 q 448 149 414 119 q 505 211 482 179 q 539 264 528 243 l 632 729 l 764 729 l 638 75 l 750 75 m 546 1042 l 721 1042 l 721 985 l 449 822 l 410 854 l 546 1042 z "},"û":{"ha":833,"x_min":81,"x_max":764,"o":"m 750 75 l 750 0 l 494 0 l 524 164 l 518 164 q 467 103 497 135 q 398 47 436 72 q 315 3 360 21 q 219 -14 269 -14 q 118 20 156 -14 q 81 119 81 54 q 84 170 81 139 q 96 242 88 201 l 183 654 l 88 654 l 88 729 l 338 729 l 242 314 q 225 237 233 278 q 217 157 217 196 q 235 95 217 115 q 282 75 253 75 q 372 97 329 75 q 448 149 414 119 q 505 211 482 179 q 539 264 528 243 l 632 729 l 764 729 l 638 75 l 750 75 m 335 860 l 290 883 l 561 1156 l 601 1156 l 679 885 l 635 860 l 538 1015 l 335 860 z "},"ü":{"ha":833,"x_min":81,"x_max":771,"o":"m 750 75 l 750 0 l 494 0 l 524 164 l 518 164 q 467 103 497 135 q 398 47 436 72 q 315 3 360 21 q 219 -14 269 -14 q 118 20 156 -14 q 81 119 81 54 q 84 170 81 139 q 96 242 88 201 l 183 654 l 88 654 l 88 729 l 338 729 l 242 314 q 225 237 233 278 q 217 157 217 196 q 235 95 217 115 q 282 75 253 75 q 372 97 329 75 q 448 149 414 119 q 505 211 482 179 q 539 264 528 243 l 632 729 l 764 729 l 638 75 l 750 75 m 251 956 q 276 1020 251 996 q 340 1044 300 1044 q 403 1020 379 1044 q 428 956 428 996 q 403 894 428 918 q 340 869 379 869 q 276 894 300 869 q 251 956 251 918 m 594 956 q 619 1020 594 996 q 683 1044 644 1044 q 747 1020 724 1044 q 771 956 771 996 q 747 894 771 918 q 683 869 724 869 q 619 894 644 869 q 594 956 594 918 z "},"ý":{"ha":706,"x_min":49,"x_max":722,"o":"m 133 654 l 49 654 l 49 729 l 256 729 l 364 151 l 364 75 l 375 75 l 413 147 q 461 257 436 199 q 510 374 486 315 q 556 488 535 432 q 590 594 576 544 l 551 729 l 722 729 l 722 654 q 667 512 700 593 q 596 342 635 431 q 513 163 557 254 q 423 -12 468 71 q 333 -164 378 -94 q 247 -278 288 -233 l 88 -278 l 88 -144 l 242 -144 q 281 -90 261 -121 q 321 0 301 -60 l 253 0 l 133 654 m 496 1042 l 671 1042 l 671 985 l 399 822 l 360 854 l 496 1042 z "},"þ":{"ha":832,"x_min":0,"x_max":779,"o":"m 153 -208 l 258 -208 l 258 -278 l 0 -278 l 272 967 l 178 967 l 178 1042 l 424 1042 l 325 586 l 331 586 q 381 645 353 617 q 442 696 408 674 q 516 731 476 718 q 601 743 556 743 q 729 691 679 743 q 779 525 779 639 q 744 322 779 419 q 649 150 710 225 q 508 31 589 75 q 333 -14 426 -14 q 290 -12 308 -14 q 258 -8 272 -11 q 231 0 244 -4 q 203 11 218 4 l 153 -208 m 528 654 q 453 638 489 654 q 390 597 418 621 q 340 544 361 572 q 310 490 319 515 l 219 81 q 240 66 229 72 q 263 57 250 60 q 294 53 276 54 q 339 51 313 51 q 452 93 399 51 q 546 201 506 135 q 610 349 586 267 q 635 510 635 431 q 608 617 635 579 q 528 654 581 654 z "},"ÿ":{"ha":706,"x_min":49,"x_max":722,"o":"m 133 654 l 49 654 l 49 729 l 256 729 l 364 151 l 364 75 l 375 75 l 413 147 q 461 257 436 199 q 510 374 486 315 q 556 488 535 432 q 590 594 576 544 l 551 729 l 722 729 l 722 654 q 667 512 700 593 q 596 342 635 431 q 513 163 557 254 q 423 -12 468 71 q 333 -164 378 -94 q 247 -278 288 -233 l 88 -278 l 88 -144 l 242 -144 q 281 -90 261 -121 q 321 0 301 -60 l 253 0 l 133 654 m 183 956 q 208 1020 183 996 q 272 1044 232 1044 q 335 1020 311 1044 q 360 956 360 996 q 335 894 360 918 q 272 869 311 869 q 208 894 232 869 q 183 956 183 918 m 526 956 q 551 1020 526 996 q 615 1044 576 1044 q 679 1020 656 1044 q 703 956 703 996 q 679 894 703 918 q 615 869 656 869 q 551 894 576 869 q 526 956 526 918 z "},"Ā":{"ha":1035,"x_min":-69,"x_max":986,"o":"m 268 0 l -69 0 l -53 78 l 53 78 l 600 972 l 747 972 l 883 78 l 986 78 l 969 0 l 576 0 l 593 78 l 717 78 l 679 322 l 313 322 l 165 78 l 285 78 l 268 0 m 361 400 l 672 400 l 629 721 q 628 748 628 725 q 626 799 628 771 q 625 868 625 829 l 619 868 l 544 718 l 361 400 m 442 1093 l 458 1182 l 931 1182 l 914 1093 l 442 1093 z "},"ā":{"ha":821,"x_min":64,"x_max":785,"o":"m 306 75 q 364 91 332 75 q 427 132 396 107 q 485 188 458 157 q 531 250 513 219 l 604 628 q 563 657 590 646 q 501 668 536 668 q 376 628 431 668 q 285 525 322 589 q 228 383 247 461 q 208 228 208 304 q 306 75 208 75 m 514 163 q 475 108 500 139 q 415 51 450 78 q 335 5 379 24 q 239 -14 290 -14 q 112 40 160 -14 q 64 203 64 94 q 93 403 64 306 q 178 576 122 500 q 315 697 233 651 q 501 743 396 743 q 576 728 540 743 q 626 696 611 714 l 649 729 l 756 729 l 625 75 l 739 75 l 739 0 l 493 0 l 522 163 l 514 163 m 368 928 l 385 1004 l 785 1004 l 768 928 l 368 928 z "},"Ă":{"ha":1035,"x_min":-69,"x_max":986,"o":"m 268 0 l -69 0 l -53 78 l 53 78 l 600 972 l 747 972 l 883 78 l 986 78 l 969 0 l 576 0 l 593 78 l 717 78 l 679 322 l 313 322 l 165 78 l 285 78 l 268 0 m 361 400 l 672 400 l 629 721 q 628 748 628 725 q 626 799 628 771 q 625 868 625 829 l 619 868 l 544 718 l 361 400 m 950 1233 q 910 1172 936 1203 q 848 1115 883 1140 q 769 1072 813 1089 q 676 1056 725 1056 q 606 1070 640 1056 q 543 1110 571 1085 q 497 1167 515 1135 q 475 1236 479 1200 l 540 1257 q 597 1194 558 1218 q 685 1169 635 1169 q 799 1189 744 1169 q 900 1253 854 1208 l 950 1233 z "},"ă":{"ha":821,"x_min":64,"x_max":772,"o":"m 306 75 q 364 91 332 75 q 427 132 396 107 q 485 188 458 157 q 531 250 513 219 l 604 628 q 563 657 590 646 q 501 668 536 668 q 376 628 431 668 q 285 525 322 589 q 228 383 247 461 q 208 228 208 304 q 306 75 208 75 m 514 163 q 475 108 500 139 q 415 51 450 78 q 335 5 379 24 q 239 -14 290 -14 q 112 40 160 -14 q 64 203 64 94 q 93 403 64 306 q 178 576 122 500 q 315 697 233 651 q 501 743 396 743 q 576 728 540 743 q 626 696 611 714 l 649 729 l 756 729 l 625 75 l 739 75 l 739 0 l 493 0 l 522 163 l 514 163 m 772 1050 q 732 985 758 1017 q 672 928 706 953 q 599 887 638 903 q 521 871 560 871 q 449 885 479 871 q 397 924 418 899 q 364 982 376 949 q 346 1053 351 1015 l 390 1072 q 440 1003 406 1029 q 522 976 474 976 q 643 997 592 976 q 735 1067 694 1017 l 772 1050 z "},"Ą":{"ha":1035,"x_min":-69,"x_max":986,"o":"m 268 0 l -69 0 l -53 78 l 53 78 l 600 972 l 747 972 l 883 78 l 986 78 l 969 0 l 889 0 q 774 -61 819 -26 q 728 -153 728 -96 q 749 -205 728 -190 q 815 -219 769 -219 q 903 -211 863 -219 l 903 -254 q 846 -281 881 -269 q 760 -293 811 -293 q 640 -266 686 -293 q 594 -178 594 -239 q 610 -119 594 -146 q 651 -70 625 -92 q 711 -31 676 -49 q 783 0 746 -12 l 576 0 l 593 78 l 717 78 l 679 322 l 313 322 l 165 78 l 285 78 l 268 0 m 361 400 l 672 400 l 629 721 l 625 868 l 619 868 l 544 718 l 361 400 z "},"ą":{"ha":821,"x_min":64,"x_max":756,"o":"m 514 163 q 475 108 500 139 q 415 51 450 78 q 335 5 379 24 q 239 -14 290 -14 q 112 40 160 -14 q 64 203 64 94 q 93 403 64 306 q 178 576 122 500 q 315 697 233 651 q 501 743 396 743 q 576 728 540 743 q 626 696 611 714 l 649 729 l 756 729 l 625 75 l 739 75 l 739 0 l 728 0 q 668 -24 697 -10 q 616 -59 639 -39 q 578 -106 593 -79 q 564 -164 564 -132 q 585 -223 564 -200 q 656 -246 606 -246 q 685 -243 671 -246 q 719 -233 699 -240 l 719 -279 q 663 -300 696 -292 q 601 -308 629 -308 q 471 -274 510 -308 q 432 -186 432 -239 q 448 -120 432 -150 q 492 -67 464 -90 q 557 -28 519 -44 q 638 0 594 -11 l 493 0 l 522 163 l 514 163 m 306 75 q 364 91 332 75 q 427 132 396 107 q 485 188 458 157 q 531 250 513 219 l 604 628 q 563 657 590 646 q 501 668 536 668 q 376 628 431 668 q 285 525 322 589 q 228 383 247 461 q 208 228 208 304 q 306 75 208 75 z "},"Ć":{"ha":956,"x_min":106,"x_max":986,"o":"m 776 256 l 865 256 l 819 38 q 763 15 796 25 q 694 -2 731 6 q 621 -13 658 -10 q 549 -17 583 -17 q 326 15 413 -17 q 190 99 239 47 q 124 217 142 151 q 106 350 106 282 q 147 606 106 489 q 267 809 189 724 q 456 942 344 894 q 710 989 568 989 q 874 974 811 989 q 986 936 938 960 l 935 699 l 846 699 l 878 844 l 864 872 q 813 890 849 879 q 704 900 776 900 q 532 861 610 900 q 398 751 454 822 q 310 578 342 679 q 279 354 279 478 q 295 243 279 294 q 347 153 311 192 q 438 94 382 115 q 574 72 494 72 q 665 80 624 72 q 725 100 706 88 l 750 126 l 776 256 m 788 1269 l 958 1224 l 958 1168 l 603 1068 l 585 1101 l 788 1269 z "},"ć":{"ha":656,"x_min":61,"x_max":722,"o":"m 606 138 q 494 26 567 65 q 317 -14 422 -14 q 210 8 257 -14 q 129 65 163 29 q 78 151 96 101 q 61 254 61 200 q 90 453 61 363 q 176 608 119 543 q 313 708 232 672 q 496 743 393 743 q 604 728 554 743 q 675 690 654 714 l 633 525 l 536 525 l 565 650 q 528 664 554 660 q 482 668 503 668 q 369 641 419 668 q 281 565 318 614 q 225 448 244 517 q 206 294 206 379 q 251 137 206 194 q 372 79 297 79 q 483 106 435 79 q 560 174 531 133 l 606 138 m 547 1042 l 722 1042 l 722 985 l 450 822 l 411 854 l 547 1042 z "},"Ĉ":{"ha":956,"x_min":106,"x_max":986,"o":"m 776 256 l 865 256 l 819 38 q 763 15 796 25 q 694 -2 731 6 q 621 -13 658 -10 q 549 -17 583 -17 q 326 15 413 -17 q 190 99 239 47 q 124 217 142 151 q 106 350 106 282 q 147 606 106 489 q 267 809 189 724 q 456 942 344 894 q 710 989 568 989 q 874 974 811 989 q 986 936 938 960 l 935 699 l 846 699 l 878 844 l 864 872 q 813 890 849 879 q 704 900 776 900 q 532 861 610 900 q 398 751 454 822 q 310 578 342 679 q 279 354 279 478 q 295 243 279 294 q 347 153 311 192 q 438 94 382 115 q 574 72 494 72 q 665 80 624 72 q 725 100 706 88 l 750 126 l 776 256 m 519 1057 l 497 1085 l 764 1269 l 807 1269 l 975 1089 l 950 1058 l 753 1136 l 519 1057 z "},"ĉ":{"ha":656,"x_min":61,"x_max":675,"o":"m 606 138 q 494 26 567 65 q 317 -14 422 -14 q 210 8 257 -14 q 129 65 163 29 q 78 151 96 101 q 61 254 61 200 q 90 453 61 363 q 176 608 119 543 q 313 708 232 672 q 496 743 393 743 q 604 728 554 743 q 675 690 654 714 l 633 525 l 536 525 l 565 650 q 528 664 554 660 q 482 668 503 668 q 369 641 419 668 q 281 565 318 614 q 225 448 244 517 q 206 294 206 379 q 251 137 206 194 q 372 79 297 79 q 483 106 435 79 q 560 174 531 133 l 606 138 m 315 860 l 271 883 l 542 1156 l 582 1156 l 660 885 l 615 860 l 518 1015 l 315 860 z "},"Č":{"ha":956,"x_min":106,"x_max":1007,"o":"m 776 256 l 865 256 l 819 38 q 763 15 796 25 q 694 -2 731 6 q 621 -13 658 -10 q 549 -17 583 -17 q 326 15 413 -17 q 190 99 239 47 q 124 217 142 151 q 106 350 106 282 q 147 606 106 489 q 267 809 189 724 q 456 942 344 894 q 710 989 568 989 q 874 974 811 989 q 986 936 938 960 l 935 699 l 846 699 l 878 844 l 864 872 q 813 890 849 879 q 704 900 776 900 q 532 861 610 900 q 398 751 454 822 q 310 578 342 679 q 279 354 279 478 q 295 243 279 294 q 347 153 311 192 q 438 94 382 115 q 574 72 494 72 q 665 80 624 72 q 725 100 706 88 l 750 126 l 776 256 m 968 1276 l 1007 1251 l 726 1054 l 683 1054 l 571 1247 l 610 1276 l 739 1200 l 968 1276 z "},"č":{"ha":656,"x_min":61,"x_max":771,"o":"m 606 138 q 494 26 567 65 q 317 -14 422 -14 q 210 8 257 -14 q 129 65 163 29 q 78 151 96 101 q 61 254 61 200 q 90 453 61 363 q 176 608 119 543 q 313 708 232 672 q 496 743 393 743 q 604 728 554 743 q 675 690 654 714 l 633 525 l 536 525 l 565 650 q 528 664 554 660 q 482 668 503 668 q 369 641 419 668 q 281 565 318 614 q 225 448 244 517 q 206 294 206 379 q 251 137 206 194 q 372 79 297 79 q 483 106 435 79 q 560 174 531 133 l 606 138 m 726 1119 l 771 1096 l 494 825 l 454 825 l 347 1094 l 403 1119 l 513 967 l 726 1119 z "},"Ď":{"ha":1075,"x_min":-29,"x_max":1050,"o":"m -29 0 l -14 78 l 113 78 l 286 894 l 160 894 l 176 972 l 347 972 q 410 974 374 972 q 484 977 446 975 q 558 981 522 979 q 617 983 593 983 q 838 952 753 983 q 969 872 922 921 q 1033 764 1017 824 q 1050 646 1050 704 q 1009 378 1050 500 q 888 170 968 257 q 688 35 807 83 q 411 -12 568 -12 q 356 -10 389 -12 q 288 -6 324 -8 q 215 -2 251 -4 q 150 0 179 0 l -29 0 m 579 906 q 503 904 540 906 q 443 899 465 903 l 268 71 q 296 69 276 69 q 338 67 315 68 q 382 66 361 67 q 411 65 403 65 q 634 117 544 65 q 777 251 724 168 q 853 439 831 333 q 876 653 876 544 q 865 749 876 703 q 819 829 853 794 q 728 885 786 864 q 579 906 671 906 m 890 1276 l 929 1251 l 649 1054 l 606 1054 l 493 1247 l 532 1276 l 661 1200 l 890 1276 z "},"ď":{"ha":821,"x_min":68,"x_max":1057,"o":"m 319 75 q 387 88 356 75 q 444 121 418 100 q 492 168 471 142 q 529 222 514 194 l 611 640 q 570 662 589 656 q 517 668 551 668 q 387 628 443 668 q 292 526 331 589 q 233 384 253 463 q 213 228 213 306 q 242 114 213 153 q 319 75 272 75 m 507 144 q 468 88 492 117 q 413 37 444 60 q 340 0 381 14 q 253 -14 300 -14 q 179 1 213 -14 q 121 44 146 17 q 82 113 96 72 q 68 204 68 154 q 99 404 68 307 q 187 576 129 501 q 328 697 244 651 q 515 743 411 743 q 551 742 536 743 q 577 738 565 740 q 600 730 589 735 q 626 719 611 725 l 678 967 l 576 967 l 576 1042 l 831 1042 l 629 69 l 742 69 l 742 0 l 496 0 l 514 144 l 507 144 m 839 790 q 889 934 872 857 q 906 1071 906 1011 l 926 1096 l 1057 1060 q 1030 978 1050 1019 q 983 898 1010 936 q 927 828 957 860 q 872 775 897 796 l 839 790 z "},"Đ":{"ha":1075,"x_min":-29,"x_max":1050,"o":"m -29 0 l -14 78 l 113 78 l 193 458 l 53 458 l 68 533 l 208 533 l 286 894 l 160 894 l 176 972 l 347 972 q 410 974 374 972 q 484 977 446 975 q 558 981 522 979 q 617 983 593 983 q 838 952 753 983 q 969 872 922 921 q 1033 764 1017 824 q 1050 646 1050 704 q 1009 378 1050 500 q 888 170 968 257 q 688 35 807 83 q 411 -12 568 -12 q 356 -10 389 -12 q 288 -6 324 -8 q 215 -2 251 -4 q 150 0 179 0 l -29 0 m 579 906 q 503 904 540 906 q 443 899 465 903 l 365 533 l 611 533 l 596 458 l 349 458 l 267 71 q 295 69 275 69 q 338 67 315 68 q 382 66 361 67 q 411 65 403 65 q 634 117 544 65 q 777 251 724 168 q 853 439 831 333 q 876 653 876 544 q 865 749 876 703 q 819 829 853 794 q 728 885 786 864 q 579 906 671 906 z "},"đ":{"ha":821,"x_min":68,"x_max":933,"o":"m 419 893 l 663 893 l 678 967 l 576 967 l 576 1042 l 831 1042 l 800 893 l 933 893 l 915 822 l 785 822 l 629 69 l 742 69 l 742 0 l 496 0 l 514 144 l 507 144 q 468 88 492 117 q 413 37 444 60 q 340 0 381 14 q 253 -14 300 -14 q 179 1 213 -14 q 121 44 146 17 q 82 113 96 72 q 68 204 68 154 q 99 404 68 307 q 187 576 129 501 q 328 697 244 651 q 515 743 411 743 q 551 742 536 743 q 577 738 565 740 q 600 730 589 735 q 626 719 611 725 l 647 822 l 399 822 l 419 893 m 319 75 q 387 88 356 75 q 444 121 418 100 q 492 168 471 142 q 529 222 514 194 l 611 640 q 570 662 589 656 q 517 668 551 668 q 386 628 443 668 q 290 526 329 589 q 231 384 251 463 q 210 228 210 306 q 241 114 210 153 q 319 75 272 75 z "},"Ē":{"ha":882,"x_min":-29,"x_max":915,"o":"m 915 972 l 867 744 l 778 744 l 804 864 l 782 894 l 442 894 l 365 535 l 600 535 l 625 556 l 638 614 l 726 614 l 676 376 l 588 376 l 600 435 l 583 457 l 349 457 l 268 78 l 632 78 l 665 106 l 694 242 l 783 242 l 732 0 l -29 0 l -14 78 l 113 78 l 286 894 l 160 894 l 176 972 l 915 972 m 331 1093 l 347 1182 l 819 1182 l 803 1093 l 331 1093 z "},"ē":{"ha":696,"x_min":61,"x_max":726,"o":"m 604 133 q 563 79 589 106 q 500 32 536 53 q 419 -1 464 11 q 324 -14 375 -14 q 133 53 204 -14 q 61 243 61 121 q 92 439 61 347 q 178 597 122 531 q 312 703 233 664 q 486 743 390 743 q 557 734 524 743 q 615 707 590 725 q 654 663 640 689 q 668 601 668 636 q 563 440 668 501 q 217 363 457 379 q 208 315 211 338 q 206 271 206 293 q 251 131 206 183 q 383 79 296 79 q 438 88 411 79 q 490 109 465 96 q 535 139 515 122 q 568 171 556 156 l 604 133 m 440 678 q 321 620 375 678 q 228 428 267 563 q 453 476 375 432 q 532 596 532 521 q 528 626 532 611 q 513 652 524 640 q 485 671 503 664 q 440 678 468 678 m 310 928 l 326 1004 l 726 1004 l 710 928 l 310 928 z "},"Ė":{"ha":882,"x_min":-29,"x_max":915,"o":"m 915 972 l 867 744 l 778 744 l 804 864 l 782 894 l 442 894 l 365 535 l 600 535 l 625 556 l 638 614 l 726 614 l 676 376 l 588 376 l 600 435 l 583 457 l 349 457 l 268 78 l 632 78 l 665 106 l 694 242 l 783 242 l 732 0 l -29 0 l -14 78 l 113 78 l 286 894 l 160 894 l 176 972 l 915 972 m 486 1140 q 518 1201 486 1181 q 597 1222 550 1222 q 678 1201 646 1222 q 710 1140 710 1181 q 678 1079 710 1100 q 597 1058 646 1058 q 518 1079 550 1058 q 486 1140 486 1100 z "},"ė":{"ha":696,"x_min":61,"x_max":668,"o":"m 604 133 q 563 79 589 106 q 500 32 536 53 q 419 -1 464 11 q 324 -14 375 -14 q 133 53 204 -14 q 61 243 61 121 q 92 439 61 347 q 178 597 122 531 q 312 703 233 664 q 486 743 390 743 q 557 734 524 743 q 615 707 590 725 q 654 663 640 689 q 668 601 668 636 q 563 440 668 501 q 217 363 457 379 q 208 315 211 338 q 206 271 206 293 q 251 131 206 183 q 383 79 296 79 q 438 88 411 79 q 490 109 465 96 q 535 139 515 122 q 568 171 556 156 l 604 133 m 440 678 q 321 620 375 678 q 228 428 267 563 q 453 476 375 432 q 532 596 532 521 q 528 626 532 611 q 513 652 524 640 q 485 671 503 664 q 440 678 468 678 m 411 954 q 440 1018 411 994 q 513 1042 468 1042 q 587 1018 560 1042 q 614 954 614 994 q 587 890 614 914 q 513 867 560 867 q 440 890 468 867 q 411 954 411 914 z "},"Ę":{"ha":882,"x_min":-29,"x_max":915,"o":"m 915 972 l 867 744 l 778 744 l 804 864 l 782 894 l 442 894 l 365 535 l 600 535 l 625 556 l 638 614 l 726 614 l 676 376 l 588 376 l 600 435 l 583 457 l 349 457 l 268 78 l 632 78 l 665 106 l 694 242 l 783 242 l 732 0 l 654 0 q 539 -61 585 -26 q 493 -153 493 -96 q 514 -205 493 -190 q 581 -219 535 -219 q 668 -211 628 -219 l 668 -254 q 611 -281 646 -269 q 525 -293 576 -293 q 406 -266 451 -293 q 360 -178 360 -239 q 375 -119 360 -146 q 416 -70 390 -92 q 476 -31 442 -49 q 549 0 511 -12 l -29 0 l -14 78 l 113 78 l 286 894 l 160 894 l 176 972 l 915 972 z "},"ę":{"ha":696,"x_min":61,"x_max":668,"o":"m 604 133 q 531 51 581 89 q 410 -3 481 13 q 331 -58 363 -26 q 300 -139 300 -90 q 317 -190 300 -167 q 375 -212 333 -212 q 457 -199 417 -212 l 457 -249 q 401 -269 435 -261 q 339 -278 367 -278 q 207 -245 247 -278 q 167 -162 167 -212 q 207 -73 167 -107 q 310 -14 247 -39 q 128 58 196 -10 q 61 243 61 125 q 92 439 61 347 q 178 599 122 531 q 312 706 233 668 q 486 744 390 744 q 557 735 524 744 q 615 708 590 726 q 654 664 640 690 q 668 603 668 638 q 561 440 668 501 q 214 363 454 379 q 207 315 208 338 q 206 271 206 293 q 251 131 206 183 q 383 79 296 79 q 438 88 411 79 q 490 109 465 96 q 535 139 515 122 q 568 171 556 156 l 604 133 m 440 679 q 319 623 375 679 q 225 428 264 567 q 452 476 372 432 q 532 597 532 521 q 528 627 532 613 q 513 653 524 642 q 485 672 503 665 q 440 679 468 679 z "},"Ě":{"ha":882,"x_min":-29,"x_max":915,"o":"m 915 972 l 867 744 l 778 744 l 804 864 l 782 894 l 442 894 l 365 535 l 600 535 l 625 556 l 638 614 l 726 614 l 676 376 l 588 376 l 600 435 l 583 457 l 349 457 l 268 78 l 632 78 l 665 106 l 694 242 l 783 242 l 732 0 l -29 0 l -14 78 l 113 78 l 286 894 l 160 894 l 176 972 l 915 972 m 840 1276 l 879 1251 l 599 1054 l 556 1054 l 443 1247 l 482 1276 l 611 1200 l 840 1276 z "},"ě":{"ha":696,"x_min":61,"x_max":760,"o":"m 604 133 q 563 79 589 106 q 500 32 536 53 q 419 -1 464 11 q 324 -14 375 -14 q 133 53 204 -14 q 61 243 61 121 q 92 439 61 347 q 178 597 122 531 q 312 703 233 664 q 486 743 390 743 q 557 734 524 743 q 615 707 590 725 q 654 663 640 689 q 668 601 668 636 q 563 440 668 501 q 217 363 457 379 q 208 315 211 338 q 206 271 206 293 q 251 131 206 183 q 383 79 296 79 q 438 88 411 79 q 490 109 465 96 q 535 139 515 122 q 568 171 556 156 l 604 133 m 440 678 q 321 620 375 678 q 228 428 267 563 q 453 476 375 432 q 532 596 532 521 q 528 626 532 611 q 513 652 524 640 q 485 671 503 664 q 440 678 468 678 m 715 1119 l 760 1096 l 483 825 l 443 825 l 336 1094 l 392 1119 l 501 967 l 715 1119 z "},"Ĝ":{"ha":1061,"x_min":106,"x_max":1038,"o":"m 857 67 q 701 5 789 26 q 535 -17 614 -17 q 322 16 406 -17 q 191 101 239 49 q 124 219 143 153 q 106 353 106 285 q 147 608 106 492 q 265 810 188 725 q 453 942 342 894 q 706 989 564 989 q 879 974 808 989 q 999 936 950 960 q 997 926 999 936 q 990 899 994 915 q 981 860 986 882 q 972 817 976 839 q 947 699 961 764 l 858 699 l 890 844 l 876 872 q 844 885 865 879 q 800 894 824 890 q 751 899 776 897 q 707 900 726 900 q 524 856 604 900 q 390 738 444 813 q 308 565 336 664 q 279 357 279 467 q 292 253 279 304 q 337 161 304 201 q 426 97 369 121 q 569 72 482 72 q 644 78 615 72 q 701 94 674 85 l 728 119 l 783 382 l 636 382 l 653 460 l 1038 460 l 1021 382 l 924 382 l 857 67 m 515 1057 l 493 1085 l 760 1269 l 803 1269 l 971 1089 l 946 1058 l 749 1136 l 515 1057 z "},"ĝ":{"ha":747,"x_min":-71,"x_max":803,"o":"m 510 -76 q 474 -12 510 -37 q 376 31 439 14 q 228 60 314 49 q 43 81 143 71 l 181 274 q 141 298 161 283 q 106 335 121 313 q 81 387 90 357 q 71 456 71 417 q 97 577 71 524 q 169 667 122 631 q 281 724 217 704 q 425 743 346 743 l 803 743 l 803 668 l 651 668 q 667 617 661 651 q 672 549 672 582 q 644 415 672 472 q 568 317 615 357 q 459 258 521 278 q 331 238 397 238 q 272 240 301 238 q 233 249 243 243 l 172 163 q 332 149 247 157 q 488 119 417 140 q 607 61 560 99 q 654 -39 654 24 q 621 -147 654 -100 q 533 -226 588 -194 q 406 -275 478 -258 q 256 -292 333 -292 q 130 -279 189 -292 q 26 -244 71 -267 q -45 -190 -19 -221 q -71 -119 -71 -158 q -40 -43 -71 -74 q 29 0 -10 -12 l 106 0 q 74 -41 86 -17 q 63 -87 63 -65 q 82 -145 63 -121 q 132 -185 101 -169 q 201 -209 163 -201 q 278 -217 239 -217 q 378 -205 335 -217 q 450 -173 421 -193 q 494 -128 479 -153 q 510 -76 510 -103 m 432 674 q 265 619 329 674 q 200 446 200 564 q 212 381 200 408 q 242 334 224 353 q 285 306 261 315 q 335 297 310 297 q 422 314 382 297 q 489 360 461 331 q 532 432 517 390 q 547 525 547 474 q 537 615 547 578 q 507 674 526 651 l 432 674 m 317 860 l 272 883 l 543 1156 l 583 1156 l 661 885 l 617 860 l 519 1015 l 317 860 z "},"Ğ":{"ha":1061,"x_min":106,"x_max":1038,"o":"m 857 67 q 701 5 789 26 q 535 -17 614 -17 q 322 16 406 -17 q 191 101 239 49 q 124 219 143 153 q 106 353 106 285 q 147 608 106 492 q 265 810 188 725 q 453 942 342 894 q 706 989 564 989 q 879 974 808 989 q 999 936 950 960 q 997 926 999 936 q 990 899 994 915 q 981 860 986 882 q 972 817 976 839 q 947 699 961 764 l 858 699 l 890 844 l 876 872 q 844 885 865 879 q 800 894 824 890 q 751 899 776 897 q 707 900 726 900 q 524 856 604 900 q 390 738 444 813 q 308 565 336 664 q 279 357 279 467 q 292 253 279 304 q 337 161 304 201 q 426 97 369 121 q 569 72 482 72 q 644 78 615 72 q 701 94 674 85 l 728 119 l 783 382 l 636 382 l 653 460 l 1038 460 l 1021 382 l 924 382 l 857 67 m 994 1233 q 954 1172 981 1203 q 892 1115 928 1140 q 813 1072 857 1089 q 721 1056 769 1056 q 650 1070 685 1056 q 588 1110 615 1085 q 542 1167 560 1135 q 519 1236 524 1200 l 585 1257 q 641 1194 603 1218 q 729 1169 679 1169 q 844 1189 789 1169 q 944 1253 899 1208 l 994 1233 z "},"ğ":{"ha":747,"x_min":-71,"x_max":803,"o":"m 510 -76 q 474 -12 510 -37 q 376 31 439 14 q 228 60 314 49 q 43 81 143 71 l 181 274 q 141 298 161 283 q 106 335 121 313 q 81 387 90 357 q 71 456 71 417 q 97 577 71 524 q 169 667 122 631 q 281 724 217 704 q 425 743 346 743 l 803 743 l 803 668 l 651 668 q 667 617 661 651 q 672 549 672 582 q 644 415 672 472 q 568 317 615 357 q 459 258 521 278 q 331 238 397 238 q 272 240 301 238 q 233 249 243 243 l 172 163 q 332 149 247 157 q 488 119 417 140 q 607 61 560 99 q 654 -39 654 24 q 621 -147 654 -100 q 533 -226 588 -194 q 406 -275 478 -258 q 256 -292 333 -292 q 130 -279 189 -292 q 26 -244 71 -267 q -45 -190 -19 -221 q -71 -119 -71 -158 q -40 -43 -71 -74 q 29 0 -10 -12 l 106 0 q 74 -41 86 -17 q 63 -87 63 -65 q 82 -145 63 -121 q 132 -185 101 -169 q 201 -209 163 -201 q 278 -217 239 -217 q 378 -205 335 -217 q 450 -173 421 -193 q 494 -128 479 -153 q 510 -76 510 -103 m 432 674 q 265 619 329 674 q 200 446 200 564 q 212 381 200 408 q 242 334 224 353 q 285 306 261 315 q 335 297 310 297 q 422 314 382 297 q 489 360 461 331 q 532 432 517 390 q 547 525 547 474 q 537 615 547 578 q 507 674 526 651 l 432 674 m 719 1050 q 679 985 706 1017 q 619 928 653 953 q 546 887 585 903 q 468 871 507 871 q 396 885 426 871 q 344 924 365 899 q 311 982 324 949 q 293 1053 299 1015 l 338 1072 q 387 1003 353 1029 q 469 976 421 976 q 590 997 539 976 q 682 1067 642 1017 l 719 1050 z "},"Ģ":{"ha":1061,"x_min":106,"x_max":1038,"o":"m 857 67 q 701 5 789 26 q 535 -17 614 -17 q 322 16 406 -17 q 191 101 239 49 q 124 219 143 153 q 106 353 106 285 q 147 608 106 492 q 265 810 188 725 q 453 942 342 894 q 706 989 564 989 q 879 974 808 989 q 999 936 950 960 q 997 926 999 936 q 990 899 994 915 q 981 860 986 882 q 972 817 976 839 q 947 699 961 764 l 858 699 l 890 844 l 876 872 q 844 885 865 879 q 800 894 824 890 q 751 899 776 897 q 707 900 726 900 q 524 856 604 900 q 390 738 444 813 q 308 565 336 664 q 279 357 279 467 q 292 253 279 304 q 337 161 304 201 q 426 97 369 121 q 569 72 482 72 q 644 78 615 72 q 701 94 674 85 l 728 119 l 783 382 l 636 382 l 653 460 l 1038 460 l 1021 382 l 924 382 l 857 67 m 346 -331 q 444 -292 408 -318 q 490 -218 479 -265 l 417 -218 q 401 -188 406 -204 q 397 -157 397 -172 q 407 -105 397 -129 q 431 -67 417 -81 l 610 -67 q 621 -137 621 -107 q 599 -233 621 -190 q 540 -306 576 -275 q 458 -358 503 -337 q 367 -389 413 -379 l 346 -331 z "},"ģ":{"ha":747,"x_min":-71,"x_max":803,"o":"m 510 -76 q 474 -12 510 -37 q 376 31 439 14 q 228 60 314 49 q 43 81 143 71 l 181 274 q 141 298 161 283 q 106 335 121 313 q 81 387 90 357 q 71 456 71 417 q 97 577 71 524 q 169 667 122 631 q 281 724 217 704 q 425 743 346 743 l 803 743 l 803 668 l 651 668 q 667 617 661 651 q 672 549 672 582 q 644 415 672 472 q 568 317 615 357 q 459 258 521 278 q 331 238 397 238 q 272 240 301 238 q 233 249 243 243 l 172 163 q 332 149 247 157 q 488 119 417 140 q 607 61 560 99 q 654 -39 654 24 q 621 -147 654 -100 q 533 -226 588 -194 q 406 -275 478 -258 q 256 -292 333 -292 q 130 -279 189 -292 q 26 -244 71 -267 q -45 -190 -19 -221 q -71 -119 -71 -158 q -40 -43 -71 -74 q 29 0 -10 -12 l 106 0 q 74 -41 86 -17 q 63 -87 63 -65 q 82 -145 63 -121 q 132 -185 101 -169 q 201 -209 163 -201 q 278 -217 239 -217 q 378 -205 335 -217 q 450 -173 421 -193 q 494 -128 479 -153 q 510 -76 510 -103 m 432 674 q 265 619 329 674 q 200 446 200 564 q 212 381 200 408 q 242 334 224 353 q 285 306 261 315 q 335 297 310 297 q 422 314 382 297 q 489 360 461 331 q 532 432 517 390 q 547 525 547 474 q 537 615 547 578 q 507 674 526 651 l 432 674 m 631 1126 q 488 999 508 1093 l 557 999 q 572 970 568 985 q 576 940 576 956 q 567 892 576 914 q 543 856 557 869 l 382 856 q 373 894 375 875 q 371 932 371 914 q 392 1025 371 983 q 446 1097 413 1067 q 522 1148 479 1128 q 611 1178 565 1168 l 631 1126 z "},"Ĥ":{"ha":1125,"x_min":-29,"x_max":1226,"o":"m 383 78 l 367 0 l -29 0 l -14 78 l 113 78 l 286 894 l 160 894 l 176 972 l 574 972 l 557 894 l 442 894 l 367 538 l 853 538 l 928 894 l 813 894 l 829 972 l 1226 972 l 1210 894 l 1083 894 l 910 78 l 1036 78 l 1019 0 l 624 0 l 639 78 l 754 78 l 836 460 l 350 460 l 268 78 l 383 78 m 508 1057 l 486 1085 l 753 1269 l 796 1269 l 964 1089 l 939 1058 l 742 1136 l 508 1057 z "},"ĥ":{"ha":835,"x_min":51,"x_max":742,"o":"m 157 967 l 157 1042 l 408 1042 l 310 613 l 318 613 q 436 705 371 667 q 593 743 501 743 q 735 576 735 743 q 727 491 735 536 q 708 404 719 446 l 624 75 l 742 75 l 742 0 l 482 0 l 569 379 q 590 464 581 424 q 599 540 599 504 q 577 621 599 592 q 511 650 556 650 q 449 641 479 650 q 390 618 418 632 q 339 586 363 604 q 299 550 315 568 l 185 0 l 51 0 l 257 967 l 157 967 m 128 1057 l 106 1085 l 372 1269 l 415 1269 l 583 1089 l 558 1058 l 361 1136 l 128 1057 z "},"Ħ":{"ha":1125,"x_min":-29,"x_max":1226,"o":"m 140 778 l 261 778 l 286 894 l 160 894 l 176 972 l 574 972 l 557 894 l 442 894 l 417 778 l 903 778 l 928 894 l 813 894 l 829 972 l 1226 972 l 1210 894 l 1083 894 l 1058 778 l 1185 778 l 1168 703 l 1042 703 l 910 78 l 1036 78 l 1019 0 l 622 0 l 639 78 l 754 78 l 836 460 l 350 460 l 268 78 l 383 78 l 367 0 l -29 0 l -14 78 l 113 78 l 244 703 l 124 703 l 140 778 m 853 538 l 888 703 l 401 703 l 367 538 l 853 538 z "},"ħ":{"ha":835,"x_min":51,"x_max":742,"o":"m 113 893 l 242 893 l 257 967 l 157 967 l 157 1042 l 408 1042 l 374 893 l 626 893 l 608 822 l 357 822 l 310 613 l 318 613 q 436 705 371 667 q 593 743 501 743 q 735 576 735 743 q 727 491 735 536 q 708 404 719 446 l 624 75 l 742 75 l 742 0 l 482 0 l 569 379 q 590 464 581 424 q 599 540 599 504 q 577 621 599 592 q 511 650 556 650 q 449 641 479 650 q 390 618 418 632 q 339 586 363 604 q 299 550 315 568 l 185 0 l 51 0 l 226 822 l 92 822 l 113 893 z "},"Ī":{"ha":540,"x_min":-1,"x_max":672,"o":"m 407 0 l -1 0 l 15 78 l 142 78 l 315 894 l 189 894 l 206 972 l 614 972 l 597 894 l 471 894 l 297 78 l 424 78 l 407 0 m 183 1093 l 200 1182 l 672 1182 l 656 1093 l 183 1093 z "},"ī":{"ha":426,"x_min":58,"x_max":486,"o":"m 106 654 l 106 729 l 357 729 l 213 75 l 326 75 l 326 0 l 58 0 l 207 654 l 106 654 m 69 928 l 86 1004 l 486 1004 l 469 928 l 69 928 z "},"Į":{"ha":540,"x_min":-1,"x_max":614,"o":"m 407 0 l 329 0 q 214 -61 260 -26 q 168 -153 168 -96 q 189 -205 168 -190 q 256 -219 210 -219 q 343 -211 303 -219 l 343 -254 q 286 -281 321 -269 q 200 -293 251 -293 q 81 -266 126 -293 q 35 -178 35 -239 q 50 -119 35 -146 q 91 -70 65 -92 q 151 -31 117 -49 q 224 0 186 -12 l -1 0 l 15 78 l 142 78 l 315 894 l 189 894 l 206 972 l 614 972 l 597 894 l 471 894 l 297 78 l 424 78 l 407 0 z "},"į":{"ha":426,"x_min":21,"x_max":401,"o":"m 106 654 l 106 729 l 357 729 l 213 75 l 326 75 l 326 0 l 317 0 q 257 -24 286 -10 q 205 -59 228 -39 q 167 -106 182 -79 q 153 -164 153 -132 q 174 -223 153 -200 q 244 -246 194 -246 q 274 -243 260 -246 q 308 -233 288 -240 l 308 -279 q 251 -300 285 -292 q 190 -308 218 -308 q 60 -274 99 -308 q 21 -186 21 -239 q 37 -120 21 -150 q 81 -67 53 -90 q 146 -28 108 -44 q 226 0 183 -11 l 58 0 l 207 654 l 106 654 m 199 954 q 227 1018 199 994 q 300 1042 256 1042 q 374 1018 347 1042 q 401 954 401 994 q 374 890 401 914 q 300 867 347 867 q 227 890 256 867 q 199 954 199 914 z "},"İ":{"ha":540,"x_min":-1,"x_max":614,"o":"m 407 0 l -1 0 l 15 78 l 142 78 l 315 894 l 189 894 l 206 972 l 614 972 l 597 894 l 471 894 l 297 78 l 424 78 l 407 0 m 317 1140 q 349 1201 317 1181 q 428 1222 381 1222 q 508 1201 476 1222 q 540 1140 540 1181 q 508 1079 540 1100 q 428 1058 476 1058 q 349 1079 381 1058 q 317 1140 317 1100 z "},"ı":{"ha":426,"x_min":58,"x_max":357,"o":"m 106 654 l 106 729 l 357 729 l 213 75 l 326 75 l 326 0 l 58 0 l 207 654 l 106 654 z "},"Ĵ":{"ha":514,"x_min":-57,"x_max":650,"o":"m -57 -157 q -6 -128 -32 -146 q 42 -81 19 -111 q 85 -6 65 -51 q 121 108 106 40 l 289 894 l 174 894 l 190 972 l 588 972 l 571 894 l 444 894 l 281 122 q 220 -40 260 24 q 135 -142 181 -104 q 42 -197 89 -179 q -39 -222 -4 -215 l -57 -157 m 194 1057 l 172 1085 l 439 1269 l 482 1269 l 650 1089 l 625 1058 l 428 1136 l 194 1057 z "},"ĵ":{"ha":417,"x_min":-129,"x_max":458,"o":"m 204 654 l 110 654 l 110 729 l 356 729 l 210 63 q 144 -107 186 -42 q 54 -211 101 -172 q -37 -267 7 -250 q -107 -290 -82 -283 l -129 -233 q -84 -210 -111 -225 q -29 -167 -57 -196 q 25 -90 -1 -137 q 68 35 51 -42 l 204 654 m 114 860 l 69 883 l 340 1156 l 381 1156 l 458 885 l 414 860 l 317 1015 l 114 860 z "},"Ķ":{"ha":975,"x_min":-29,"x_max":1078,"o":"m 449 531 l 822 894 l 710 894 l 726 972 l 1078 972 l 1061 894 l 951 894 l 549 528 l 833 78 l 921 78 l 904 0 l 696 0 l 433 461 l 350 461 l 268 78 l 383 78 l 367 0 l -29 0 l -14 78 l 113 78 l 286 894 l 160 894 l 176 972 l 574 972 l 557 894 l 442 894 l 364 531 l 449 531 m 269 -331 q 367 -292 332 -318 q 414 -218 403 -265 l 340 -218 q 325 -188 329 -204 q 321 -157 321 -172 q 331 -105 321 -129 q 354 -67 340 -81 l 533 -67 q 544 -137 544 -107 q 522 -233 544 -190 q 463 -306 500 -275 q 381 -358 426 -337 q 290 -389 336 -379 l 269 -331 z "},"ķ":{"ha":740,"x_min":51,"x_max":721,"o":"m 313 346 l 258 346 l 188 0 l 51 0 l 254 967 l 153 967 l 153 1042 l 403 1042 l 271 401 l 315 401 l 536 622 l 536 729 l 721 729 l 721 671 l 428 415 l 617 75 l 697 75 l 697 0 l 496 0 l 313 346 m 151 -337 q 294 -210 274 -304 l 225 -210 q 210 -181 214 -196 q 206 -151 206 -167 q 215 -103 206 -125 q 239 -67 225 -81 l 400 -67 q 409 -106 407 -86 q 411 -143 411 -125 q 390 -236 411 -194 q 336 -308 369 -278 q 260 -359 303 -339 q 171 -389 217 -379 l 151 -337 z "},"Ĺ":{"ha":832,"x_min":-29,"x_max":813,"o":"m 160 894 l 176 972 l 608 972 l 592 894 l 442 894 l 268 78 l 638 78 l 672 108 l 713 300 l 813 300 l 749 0 l -29 0 l -14 78 l 113 78 l 286 894 l 160 894 m 585 1269 l 756 1224 l 756 1168 l 400 1068 l 382 1101 l 585 1269 z "},"ĺ":{"ha":413,"x_min":69,"x_max":571,"o":"m 243 967 l 142 967 l 142 1042 l 393 1042 l 224 235 q 215 185 217 204 q 214 147 214 165 q 228 94 214 108 q 263 79 242 79 q 331 101 299 79 q 390 147 363 124 l 422 99 q 383 60 407 79 q 331 24 360 40 q 268 -3 301 7 q 201 -14 235 -14 q 101 19 133 -14 q 69 104 69 53 q 73 151 69 126 q 82 201 76 175 l 243 967 m 400 1286 l 571 1240 l 571 1185 l 215 1085 l 197 1118 l 400 1286 z "},"Ļ":{"ha":832,"x_min":-29,"x_max":813,"o":"m 160 894 l 176 972 l 608 972 l 592 894 l 442 894 l 268 78 l 638 78 l 672 108 l 713 300 l 813 300 l 749 0 l -29 0 l -14 78 l 113 78 l 286 894 l 160 894 m 206 -331 q 303 -292 268 -318 q 350 -218 339 -265 l 276 -218 q 261 -188 265 -204 q 257 -157 257 -172 q 267 -105 257 -129 q 290 -67 276 -81 l 469 -67 q 481 -137 481 -107 q 458 -233 481 -190 q 399 -306 436 -275 q 317 -358 363 -337 q 226 -389 272 -379 l 206 -331 z "},"ļ":{"ha":413,"x_min":33,"x_max":422,"o":"m 243 967 l 142 967 l 142 1042 l 393 1042 l 224 235 q 215 185 217 204 q 214 147 214 165 q 228 94 214 108 q 263 79 242 79 q 331 101 299 79 q 390 147 363 124 l 422 99 q 383 60 407 79 q 331 24 360 40 q 268 -3 301 7 q 201 -14 235 -14 q 101 19 133 -14 q 69 104 69 53 q 73 151 69 126 q 82 201 76 175 l 243 967 m 33 -337 q 176 -210 156 -304 l 107 -210 q 92 -181 96 -196 q 88 -151 88 -167 q 97 -103 88 -125 q 121 -67 107 -81 l 282 -67 q 291 -106 289 -86 q 293 -143 293 -125 q 272 -236 293 -194 q 218 -308 251 -278 q 142 -359 185 -339 q 53 -389 99 -379 l 33 -337 z "},"Ľ":{"ha":832,"x_min":-29,"x_max":883,"o":"m 160 894 l 176 972 l 608 972 l 592 894 l 442 894 l 268 78 l 638 78 l 672 108 l 713 300 l 813 300 l 749 0 l -29 0 l -14 78 l 113 78 l 286 894 l 160 894 m 649 694 l 713 832 l 713 949 l 735 972 l 883 972 q 857 866 879 915 q 805 777 835 817 q 741 709 775 738 q 681 665 707 681 l 649 694 z "},"ľ":{"ha":413,"x_min":69,"x_max":636,"o":"m 243 967 l 142 967 l 142 1042 l 393 1042 l 224 235 q 215 185 217 204 q 214 147 214 165 q 228 94 214 108 q 263 79 242 79 q 331 101 299 79 q 390 147 363 124 l 422 99 q 383 60 407 79 q 331 24 360 40 q 268 -3 301 7 q 201 -14 235 -14 q 101 19 133 -14 q 69 104 69 53 q 73 151 69 126 q 82 201 76 175 l 243 967 m 418 790 q 468 934 451 857 q 485 1071 485 1011 l 506 1096 l 636 1060 q 609 978 629 1019 q 563 898 589 936 q 506 828 536 860 q 451 775 476 796 l 418 790 z "},"Ł":{"ha":832,"x_min":-29,"x_max":813,"o":"m 160 894 l 176 972 l 608 972 l 592 894 l 442 894 l 369 553 l 618 676 l 596 569 l 346 447 l 268 78 l 638 78 l 672 108 l 713 300 l 813 300 l 749 0 l -29 0 l -14 78 l 113 78 l 172 361 l 28 290 l 50 396 l 194 467 l 286 894 l 160 894 z "},"ł":{"ha":458,"x_min":-1,"x_max":486,"o":"m 19 431 l 171 514 l 267 967 l 165 967 l 165 1042 l 417 1042 l 324 599 l 486 689 l 465 590 l 303 501 l 247 235 q 239 185 240 204 q 238 147 238 165 q 251 94 238 108 q 286 79 265 79 q 354 101 322 79 q 414 147 386 124 l 446 99 q 407 60 431 79 q 354 24 383 40 q 292 -3 325 7 q 225 -14 258 -14 q 125 19 157 -14 q 93 104 93 53 q 97 151 93 126 q 106 201 100 175 l 150 417 l -1 333 l 19 431 z "},"Ń":{"ha":1125,"x_min":-29,"x_max":1226,"o":"m 889 972 l 1226 972 l 1210 894 l 1083 894 l 889 -17 l 810 -17 l 390 746 l 357 853 l 351 853 l 344 744 l 203 78 l 324 78 l 307 0 l -29 0 l -14 78 l 113 78 l 286 894 l 160 894 l 176 972 l 442 972 l 800 314 l 847 199 l 854 199 l 871 318 l 993 894 l 872 894 l 889 972 m 826 1269 l 997 1224 l 997 1168 l 642 1068 l 624 1101 l 826 1269 z "},"ń":{"ha":847,"x_min":64,"x_max":754,"o":"m 590 415 q 610 499 601 460 q 618 576 618 539 q 601 631 618 608 q 551 654 585 654 q 472 638 510 654 q 401 597 433 621 q 345 546 369 572 q 307 500 321 519 l 199 0 l 64 0 l 201 654 l 106 654 l 106 729 l 353 729 l 321 585 l 328 585 q 458 699 386 656 q 614 743 531 743 q 722 706 689 743 q 754 611 754 669 q 747 531 754 579 q 728 440 739 482 l 640 75 l 754 75 l 754 0 l 633 0 l 497 0 l 590 415 m 558 1042 l 733 1042 l 733 985 l 461 822 l 422 854 l 558 1042 z "},"Ņ":{"ha":1125,"x_min":-29,"x_max":1226,"o":"m 889 972 l 1226 972 l 1210 894 l 1083 894 l 889 -17 l 810 -17 l 390 746 l 357 853 l 351 853 l 344 744 l 203 78 l 324 78 l 307 0 l -29 0 l -14 78 l 113 78 l 286 894 l 160 894 l 176 972 l 442 972 l 800 314 l 847 199 l 854 199 l 871 318 l 993 894 l 872 894 l 889 972 m 328 -331 q 426 -292 390 -318 q 472 -218 461 -265 l 399 -218 q 383 -188 388 -204 q 379 -157 379 -172 q 389 -105 379 -129 q 413 -67 399 -81 l 592 -67 q 603 -137 603 -107 q 581 -233 603 -190 q 522 -306 558 -275 q 440 -358 485 -337 q 349 -389 394 -379 l 328 -331 z "},"ņ":{"ha":847,"x_min":64,"x_max":754,"o":"m 590 415 q 610 499 601 460 q 618 576 618 539 q 601 631 618 608 q 551 654 585 654 q 472 638 510 654 q 401 597 433 621 q 345 546 369 572 q 307 500 321 519 l 199 0 l 64 0 l 201 654 l 106 654 l 106 729 l 353 729 l 321 585 l 328 585 q 458 699 386 656 q 614 743 531 743 q 722 706 689 743 q 754 611 754 669 q 747 531 754 579 q 728 440 739 482 l 640 75 l 754 75 l 754 0 l 633 0 l 497 0 l 590 415 m 185 -337 q 328 -210 307 -304 l 258 -210 q 243 -181 247 -196 q 239 -151 239 -167 q 249 -103 239 -125 q 272 -67 258 -81 l 433 -67 q 442 -106 440 -86 q 444 -143 444 -125 q 424 -236 444 -194 q 369 -308 403 -278 q 293 -359 336 -339 q 204 -389 250 -379 l 185 -337 z "},"Ň":{"ha":1125,"x_min":-29,"x_max":1226,"o":"m 889 972 l 1226 972 l 1210 894 l 1083 894 l 889 -17 l 810 -17 l 390 746 l 357 853 l 351 853 l 344 744 l 203 78 l 324 78 l 307 0 l -29 0 l -14 78 l 113 78 l 286 894 l 160 894 l 176 972 l 442 972 l 800 314 l 847 199 l 854 199 l 871 318 l 993 894 l 872 894 l 889 972 m 982 1276 l 1021 1251 l 740 1054 l 697 1054 l 585 1247 l 624 1276 l 753 1200 l 982 1276 z "},"ň":{"ha":847,"x_min":64,"x_max":774,"o":"m 590 415 q 610 499 601 460 q 618 576 618 539 q 601 631 618 608 q 551 654 585 654 q 472 638 510 654 q 401 597 433 621 q 345 546 369 572 q 307 500 321 519 l 199 0 l 64 0 l 201 654 l 106 654 l 106 729 l 353 729 l 321 585 l 328 585 q 458 699 386 656 q 614 743 531 743 q 722 706 689 743 q 754 611 754 669 q 747 531 754 579 q 728 440 739 482 l 640 75 l 754 75 l 754 0 l 633 0 l 497 0 l 590 415 m 729 1119 l 774 1096 l 497 825 l 457 825 l 350 1094 l 406 1119 l 515 967 l 729 1119 z "},"Ō":{"ha":1139,"x_min":106,"x_max":1114,"o":"m 106 393 q 141 613 106 506 q 249 804 176 721 q 433 938 322 888 q 694 989 544 989 q 865 962 788 989 q 998 883 943 935 q 1083 760 1053 832 q 1114 599 1114 688 q 1083 377 1114 488 q 985 179 1053 267 q 810 38 917 92 q 551 -17 703 -17 q 390 7 469 -17 q 247 81 311 31 q 144 208 183 131 q 106 393 106 285 m 279 392 q 303 240 279 303 q 367 138 328 178 q 458 80 407 99 q 563 61 510 61 q 743 110 671 61 q 859 238 815 160 q 922 410 903 315 q 940 597 940 506 q 867 831 940 751 q 660 911 793 911 q 489 865 561 911 q 370 746 417 819 q 301 579 324 672 q 279 392 279 486 m 447 1093 l 464 1182 l 936 1182 l 919 1093 l 447 1093 z "},"ō":{"ha":783,"x_min":61,"x_max":722,"o":"m 61 271 q 87 433 61 349 q 165 585 113 517 q 295 698 217 653 q 479 743 374 743 q 661 672 600 743 q 722 465 722 601 q 693 283 722 369 q 611 132 664 197 q 485 26 558 67 q 321 -14 411 -14 q 132 59 203 -14 q 61 271 61 132 m 449 678 q 363 657 400 678 q 299 601 325 636 q 254 520 272 565 q 225 426 236 475 q 210 328 214 376 q 206 238 206 281 q 244 104 206 157 q 349 51 282 51 q 444 90 401 51 q 516 190 486 129 q 562 328 546 250 q 578 488 578 406 q 547 626 578 574 q 449 678 515 678 m 281 928 l 297 1004 l 697 1004 l 681 928 l 281 928 z "},"Ő":{"ha":1139,"x_min":106,"x_max":1114,"o":"m 106 393 q 141 613 106 506 q 249 804 176 721 q 433 938 322 888 q 694 989 544 989 q 865 962 788 989 q 998 883 943 935 q 1083 760 1053 832 q 1114 599 1114 688 q 1083 377 1114 488 q 985 179 1053 267 q 810 38 917 92 q 551 -17 703 -17 q 390 7 469 -17 q 247 81 311 31 q 144 208 183 131 q 106 393 106 285 m 279 392 q 303 240 279 303 q 367 138 328 178 q 458 80 407 99 q 563 61 510 61 q 743 110 671 61 q 859 238 815 160 q 922 410 903 315 q 940 597 940 506 q 867 831 940 751 q 660 911 793 911 q 489 865 561 911 q 370 746 417 819 q 301 579 324 672 q 279 392 279 486 m 600 1261 l 740 1228 l 740 1194 l 494 1051 l 464 1078 l 600 1261 m 874 1261 l 1021 1231 l 1021 1196 l 701 1049 l 667 1075 l 874 1261 z "},"ő":{"ha":783,"x_min":61,"x_max":861,"o":"m 61 271 q 87 433 61 349 q 165 585 113 517 q 295 698 217 653 q 479 743 374 743 q 661 672 600 743 q 722 465 722 601 q 693 283 722 369 q 611 132 664 197 q 485 26 558 67 q 321 -14 411 -14 q 132 59 203 -14 q 61 271 61 132 m 449 678 q 363 657 400 678 q 299 601 325 636 q 254 520 272 565 q 225 426 236 475 q 210 328 214 376 q 206 238 206 281 q 244 104 206 157 q 349 51 282 51 q 444 90 401 51 q 516 190 486 129 q 562 328 546 250 q 578 488 578 406 q 547 626 578 574 q 449 678 515 678 m 453 1119 l 588 1089 l 588 1053 l 372 872 l 335 894 l 453 1119 m 725 1119 l 861 1079 l 861 1044 l 550 872 l 518 897 l 725 1119 z "},"Œ":{"ha":1461,"x_min":106,"x_max":1494,"o":"m 704 989 q 792 985 740 989 q 886 972 844 981 l 1494 972 l 1446 744 l 1357 744 l 1383 864 l 1361 894 l 1025 894 l 949 535 l 1183 535 l 1208 556 l 1221 614 l 1310 614 l 1260 376 l 1171 376 l 1183 435 l 1167 457 l 932 457 l 851 78 l 1215 78 l 1249 106 l 1278 242 l 1367 242 l 1315 0 l 681 0 q 592 -12 640 -8 q 500 -17 543 -17 q 357 3 428 -17 q 231 70 286 24 q 140 193 175 117 q 106 381 106 269 q 153 640 106 526 q 283 831 201 753 q 474 949 365 908 q 704 989 583 989 m 535 58 q 697 86 619 58 l 867 879 q 783 904 831 894 q 683 914 736 914 q 514 869 589 914 q 387 748 439 824 q 307 574 335 672 q 279 368 279 475 q 301 220 279 279 q 358 125 322 161 q 440 74 393 89 q 535 58 486 58 z "},"œ":{"ha":1192,"x_min":61,"x_max":1163,"o":"m 447 678 q 362 657 399 678 q 298 601 325 636 q 253 522 271 567 q 224 428 235 478 q 210 330 214 379 q 206 238 206 281 q 244 102 206 153 q 349 51 282 51 q 444 90 401 51 q 515 190 486 128 q 560 331 544 251 q 576 492 576 410 q 545 628 576 578 q 447 678 514 678 m 588 106 q 524 48 558 71 q 455 11 490 25 q 385 -8 419 -3 q 321 -14 350 -14 q 132 57 203 -14 q 61 271 61 128 q 87 432 61 349 q 165 585 113 515 q 295 699 217 654 q 478 743 374 743 q 610 713 553 743 q 690 621 668 683 q 833 717 757 692 q 981 743 908 743 q 1051 735 1018 743 q 1110 709 1085 726 q 1149 666 1135 692 q 1163 606 1163 640 q 1056 440 1163 501 q 708 363 949 379 q 699 271 699 315 q 744 131 699 183 q 878 79 790 79 q 935 88 908 79 q 987 110 963 96 q 1031 140 1011 124 q 1067 171 1050 156 l 1103 126 q 1060 73 1088 99 q 997 28 1033 47 q 915 -3 960 8 q 819 -14 869 -14 q 667 22 724 -14 q 588 106 611 57 m 935 678 q 872 665 903 678 q 815 622 842 651 q 763 545 788 593 q 719 428 739 497 q 947 476 867 432 q 1026 600 1026 521 q 1008 654 1026 631 q 935 678 990 678 z "},"Ŕ":{"ha":972,"x_min":-29,"x_max":917,"o":"m 268 78 l 388 78 l 371 0 l -29 0 l -14 78 l 113 78 l 286 894 l 160 894 l 176 972 l 317 972 q 454 978 379 972 q 600 983 529 983 q 836 924 756 983 q 917 751 917 865 q 890 627 917 682 q 822 533 864 572 q 728 469 781 493 q 622 436 675 444 l 824 78 l 917 78 l 900 0 l 685 0 l 482 421 l 340 421 l 268 78 m 465 492 q 573 507 522 492 q 661 554 624 522 q 721 635 699 586 q 743 750 743 683 q 699 865 743 825 q 549 906 654 906 q 488 903 513 906 q 442 897 463 900 l 356 492 l 465 492 m 718 1269 l 889 1224 l 889 1168 l 533 1068 l 515 1101 l 718 1269 z "},"ŕ":{"ha":581,"x_min":65,"x_max":631,"o":"m 474 596 q 441 588 460 593 q 401 575 422 583 q 358 553 381 567 q 315 518 336 539 l 201 0 l 65 0 l 208 654 l 113 654 l 113 729 l 358 729 l 325 588 l 332 588 q 400 672 360 631 q 476 729 440 713 l 588 729 l 588 596 l 474 596 m 456 1042 l 631 1042 l 631 985 l 358 822 l 319 854 l 456 1042 z "},"Ŗ":{"ha":972,"x_min":-29,"x_max":917,"o":"m 268 78 l 388 78 l 371 0 l -29 0 l -14 78 l 113 78 l 286 894 l 160 894 l 176 972 l 317 972 q 454 978 379 972 q 600 983 529 983 q 836 924 756 983 q 917 751 917 865 q 890 627 917 682 q 822 533 864 572 q 728 469 781 493 q 622 436 675 444 l 824 78 l 917 78 l 900 0 l 685 0 l 482 421 l 340 421 l 268 78 m 465 492 q 573 507 522 492 q 661 554 624 522 q 721 635 699 586 q 743 750 743 683 q 699 865 743 825 q 549 906 654 906 q 488 903 513 906 q 442 897 463 900 l 356 492 l 465 492 m 253 -331 q 351 -292 315 -318 q 397 -218 386 -265 l 324 -218 q 308 -188 313 -204 q 304 -157 304 -172 q 314 -105 304 -129 q 338 -67 324 -81 l 517 -67 q 528 -137 528 -107 q 506 -233 528 -190 q 447 -306 483 -275 q 365 -358 410 -337 q 274 -389 319 -379 l 253 -331 z "},"ŗ":{"ha":581,"x_min":38,"x_max":588,"o":"m 474 596 q 441 588 460 593 q 401 575 422 583 q 358 553 381 567 q 315 518 336 539 l 201 0 l 65 0 l 208 654 l 113 654 l 113 729 l 358 729 l 325 588 l 332 588 q 400 672 360 631 q 476 729 440 713 l 588 729 l 588 596 l 474 596 m 38 -337 q 181 -210 160 -304 l 111 -210 q 96 -181 100 -196 q 92 -151 92 -167 q 101 -103 92 -125 q 125 -67 111 -81 l 286 -67 q 295 -106 293 -86 q 297 -143 297 -125 q 276 -236 297 -194 q 222 -308 256 -278 q 146 -359 189 -339 q 57 -389 103 -379 l 38 -337 z "},"Ř":{"ha":972,"x_min":-29,"x_max":917,"o":"m 268 78 l 388 78 l 371 0 l -29 0 l -14 78 l 113 78 l 286 894 l 160 894 l 176 972 l 317 972 q 454 978 379 972 q 600 983 529 983 q 836 924 756 983 q 917 751 917 865 q 890 627 917 682 q 822 533 864 572 q 728 469 781 493 q 622 436 675 444 l 824 78 l 917 78 l 900 0 l 685 0 l 482 421 l 340 421 l 268 78 m 465 492 q 573 507 522 492 q 661 554 624 522 q 721 635 699 586 q 743 750 743 683 q 699 865 743 825 q 549 906 654 906 q 488 903 513 906 q 442 897 463 900 l 356 492 l 465 492 m 818 1276 l 857 1251 l 576 1054 l 533 1054 l 421 1247 l 460 1276 l 589 1200 l 818 1276 z "},"ř":{"ha":581,"x_min":65,"x_max":681,"o":"m 474 596 q 441 588 460 593 q 401 575 422 583 q 358 553 381 567 q 315 518 336 539 l 201 0 l 65 0 l 208 654 l 113 654 l 113 729 l 358 729 l 325 588 l 332 588 q 400 672 360 631 q 476 729 440 713 l 588 729 l 588 596 l 474 596 m 636 1119 l 681 1096 l 404 825 l 364 825 l 257 1094 l 313 1119 l 422 967 l 636 1119 z "},"Ś":{"ha":814,"x_min":35,"x_max":872,"o":"m 142 144 l 160 111 q 189 94 169 103 q 233 77 208 85 q 284 65 257 69 q 338 61 311 61 q 524 108 458 61 q 590 246 590 156 q 560 339 590 300 q 486 410 531 378 q 389 471 442 442 q 292 535 336 500 q 217 617 247 571 q 188 726 188 663 q 283 921 188 853 q 564 989 379 989 q 722 976 660 989 q 829 942 785 963 q 826 931 829 942 q 821 904 824 921 q 813 866 818 888 q 804 822 808 844 q 779 704 793 769 l 690 704 l 721 853 l 706 888 q 638 905 682 899 q 544 911 593 911 q 392 869 440 911 q 343 769 343 828 q 373 685 343 721 q 447 619 403 650 q 544 558 492 588 q 642 491 597 528 q 716 406 686 454 q 746 290 746 357 q 718 165 746 221 q 637 68 690 108 q 504 6 583 28 q 322 -17 425 -17 q 228 -10 274 -17 q 146 8 183 -3 q 80 32 108 19 q 35 57 51 44 l 88 310 l 176 310 l 142 144 m 701 1269 l 872 1224 l 872 1168 l 517 1068 l 499 1101 l 701 1269 z "},"ś":{"ha":654,"x_min":8,"x_max":649,"o":"m 254 61 q 308 66 279 61 q 360 83 336 71 q 399 117 383 96 q 414 172 414 139 q 392 233 414 207 q 339 284 371 260 q 269 333 307 308 q 199 385 231 357 q 145 450 167 414 q 124 535 124 486 q 147 626 124 586 q 211 691 171 665 q 307 730 251 717 q 425 743 363 743 q 483 739 454 743 q 535 728 511 735 q 578 714 560 722 q 604 699 596 706 l 563 536 l 476 536 l 500 650 q 460 663 489 658 q 411 668 432 668 q 363 665 389 668 q 315 651 338 661 q 278 622 293 640 q 264 572 264 603 q 285 507 264 535 q 340 456 307 479 q 411 408 374 432 q 482 356 449 385 q 537 291 515 328 q 558 203 558 254 q 531 110 558 150 q 457 42 503 69 q 351 0 411 14 q 226 -14 290 -14 q 155 -7 190 -14 q 90 10 119 0 q 38 33 60 21 q 8 53 17 44 l 61 218 l 156 218 l 119 103 q 169 74 135 88 q 254 61 204 61 m 474 1042 l 649 1042 l 649 985 l 376 822 l 338 854 l 474 1042 z "},"Ŝ":{"ha":814,"x_min":35,"x_max":838,"o":"m 142 144 l 160 111 q 189 94 169 103 q 233 77 208 85 q 284 65 257 69 q 338 61 311 61 q 524 108 458 61 q 590 246 590 156 q 560 339 590 300 q 486 410 531 378 q 389 471 442 442 q 292 535 336 500 q 217 617 247 571 q 188 726 188 663 q 283 921 188 853 q 564 989 379 989 q 722 976 660 989 q 829 942 785 963 q 826 931 829 942 q 821 904 824 921 q 813 866 818 888 q 804 822 808 844 q 779 704 793 769 l 690 704 l 721 853 l 706 888 q 638 905 682 899 q 544 911 593 911 q 392 869 440 911 q 343 769 343 828 q 373 685 343 721 q 447 619 403 650 q 544 558 492 588 q 642 491 597 528 q 716 406 686 454 q 746 290 746 357 q 718 165 746 221 q 637 68 690 108 q 504 6 583 28 q 322 -17 425 -17 q 228 -10 274 -17 q 146 8 183 -3 q 80 32 108 19 q 35 57 51 44 l 88 310 l 176 310 l 142 144 m 382 1057 l 360 1085 l 626 1269 l 669 1269 l 838 1089 l 813 1058 l 615 1136 l 382 1057 z "},"ŝ":{"ha":654,"x_min":8,"x_max":618,"o":"m 254 61 q 308 66 279 61 q 360 83 336 71 q 399 117 383 96 q 414 172 414 139 q 392 233 414 207 q 339 284 371 260 q 269 333 307 308 q 199 385 231 357 q 145 450 167 414 q 124 535 124 486 q 147 626 124 586 q 211 691 171 665 q 307 730 251 717 q 425 743 363 743 q 483 739 454 743 q 535 728 511 735 q 578 714 560 722 q 604 699 596 706 l 563 536 l 476 536 l 500 650 q 460 663 489 658 q 411 668 432 668 q 363 665 389 668 q 315 651 338 661 q 278 622 293 640 q 264 572 264 603 q 285 507 264 535 q 340 456 307 479 q 411 408 374 432 q 482 356 449 385 q 537 291 515 328 q 558 203 558 254 q 531 110 558 150 q 457 42 503 69 q 351 0 411 14 q 226 -14 290 -14 q 155 -7 190 -14 q 90 10 119 0 q 38 33 60 21 q 8 53 17 44 l 61 218 l 156 218 l 119 103 q 169 74 135 88 q 254 61 204 61 m 274 860 l 229 883 l 500 1156 l 540 1156 l 618 885 l 574 860 l 476 1015 l 274 860 z "},"Ş":{"ha":814,"x_min":35,"x_max":829,"o":"m 142 144 l 160 111 q 189 94 169 103 q 233 77 208 85 q 284 65 257 69 q 338 61 311 61 q 524 108 458 61 q 590 246 590 156 q 560 339 590 300 q 486 410 531 378 q 389 471 442 442 q 292 535 336 500 q 217 617 247 571 q 188 726 188 663 q 283 921 188 853 q 564 989 379 989 q 722 976 660 989 q 829 942 785 963 q 826 931 829 942 q 821 904 824 921 q 813 866 818 888 q 804 822 808 844 q 779 704 793 769 l 690 704 l 721 853 l 706 888 q 638 905 682 899 q 544 911 593 911 q 392 869 440 911 q 343 769 343 828 q 373 685 343 721 q 447 619 403 650 q 544 558 492 588 q 642 491 597 528 q 716 406 686 454 q 746 290 746 357 q 654 81 746 163 q 385 -14 563 -1 l 347 -89 q 423 -98 394 -90 q 467 -119 451 -106 q 487 -149 482 -132 q 492 -187 492 -167 q 460 -256 492 -229 q 380 -297 428 -282 q 278 -317 332 -311 q 179 -322 224 -322 l 179 -276 q 240 -272 210 -275 q 295 -261 271 -268 q 335 -242 319 -254 q 350 -211 350 -231 q 348 -186 350 -197 q 336 -167 346 -175 q 307 -155 326 -160 q 253 -149 288 -150 l 307 -17 q 140 10 213 -14 q 35 57 67 33 l 88 310 l 176 310 l 142 144 z "},"ş":{"ha":654,"x_min":8,"x_max":604,"o":"m 254 61 q 308 66 279 61 q 360 83 336 71 q 399 117 383 96 q 414 172 414 139 q 392 233 414 207 q 339 284 371 260 q 269 333 307 308 q 199 385 231 357 q 145 450 167 414 q 124 535 124 486 q 147 626 124 586 q 211 691 171 665 q 307 730 251 717 q 425 743 363 743 q 483 739 454 743 q 535 728 511 735 q 578 714 560 722 q 604 699 596 706 l 563 536 l 476 536 l 500 650 q 460 663 489 658 q 411 668 432 668 q 363 665 389 668 q 315 651 338 661 q 278 622 293 640 q 264 572 264 603 q 285 507 264 535 q 340 456 307 479 q 411 408 374 432 q 482 356 449 385 q 537 291 515 328 q 558 203 558 254 q 540 125 558 160 q 489 64 521 90 q 413 20 457 38 q 319 -6 369 3 l 283 -85 q 353 -92 326 -86 q 397 -108 381 -97 q 418 -136 413 -119 q 424 -176 424 -153 q 395 -244 424 -218 q 324 -285 367 -271 q 231 -306 282 -300 q 138 -311 181 -311 l 138 -267 q 195 -262 167 -265 q 246 -253 224 -260 q 281 -233 268 -246 q 294 -199 294 -221 q 291 -174 294 -185 q 276 -158 288 -164 q 246 -147 265 -151 q 194 -140 226 -143 l 246 -12 q 236 -13 240 -12 q 226 -14 232 -14 q 155 -7 190 -14 q 90 10 119 0 q 38 33 60 21 q 8 53 17 44 l 61 218 l 156 218 l 119 103 q 169 74 135 88 q 254 61 204 61 z "},"Š":{"ha":814,"x_min":35,"x_max":865,"o":"m 142 144 l 160 111 q 189 94 169 103 q 233 77 208 85 q 284 65 257 69 q 338 61 311 61 q 524 108 458 61 q 590 246 590 156 q 560 339 590 300 q 486 410 531 378 q 389 471 442 442 q 292 535 336 500 q 217 617 247 571 q 188 726 188 663 q 283 921 188 853 q 564 989 379 989 q 722 976 660 989 q 829 942 785 963 q 826 931 829 942 q 821 904 824 921 q 813 866 818 888 q 804 822 808 844 q 779 704 793 769 l 690 704 l 721 853 l 706 888 q 638 905 682 899 q 544 911 593 911 q 392 869 440 911 q 343 769 343 828 q 373 685 343 721 q 447 619 403 650 q 544 558 492 588 q 642 491 597 528 q 716 406 686 454 q 746 290 746 357 q 718 165 746 221 q 637 68 690 108 q 504 6 583 28 q 322 -17 425 -17 q 228 -10 274 -17 q 146 8 183 -3 q 80 32 108 19 q 35 57 51 44 l 88 310 l 176 310 l 142 144 m 826 1276 l 865 1251 l 585 1054 l 542 1054 l 429 1247 l 468 1276 l 597 1200 l 826 1276 z "},"š":{"ha":654,"x_min":8,"x_max":688,"o":"m 254 61 q 308 66 279 61 q 360 83 336 71 q 399 117 383 96 q 414 172 414 139 q 392 233 414 207 q 339 284 371 260 q 269 333 307 308 q 199 385 231 357 q 145 450 167 414 q 124 535 124 486 q 147 626 124 586 q 211 691 171 665 q 307 730 251 717 q 425 743 363 743 q 483 739 454 743 q 535 728 511 735 q 578 714 560 722 q 604 699 596 706 l 563 536 l 476 536 l 500 650 q 460 663 489 658 q 411 668 432 668 q 363 665 389 668 q 315 651 338 661 q 278 622 293 640 q 264 572 264 603 q 285 507 264 535 q 340 456 307 479 q 411 408 374 432 q 482 356 449 385 q 537 291 515 328 q 558 203 558 254 q 531 110 558 150 q 457 42 503 69 q 351 0 411 14 q 226 -14 290 -14 q 155 -7 190 -14 q 90 10 119 0 q 38 33 60 21 q 8 53 17 44 l 61 218 l 156 218 l 119 103 q 169 74 135 88 q 254 61 204 61 m 643 1119 l 688 1096 l 411 825 l 371 825 l 264 1094 l 319 1119 l 429 967 l 643 1119 z "},"Ţ":{"ha":956,"x_min":101,"x_max":1071,"o":"m 631 0 l 447 0 l 401 -89 q 477 -98 449 -90 q 521 -119 506 -106 q 541 -149 536 -132 q 546 -187 546 -167 q 514 -256 546 -229 q 434 -297 482 -282 q 332 -317 386 -311 q 233 -322 278 -322 l 233 -276 q 294 -272 264 -275 q 349 -261 325 -268 q 389 -242 374 -254 q 404 -211 404 -231 q 402 -186 404 -197 q 390 -167 400 -175 q 361 -155 381 -160 q 307 -149 342 -150 l 368 0 l 189 0 l 206 78 l 349 78 l 522 894 l 272 894 l 240 864 l 201 685 l 101 685 l 163 972 l 1071 972 l 1010 685 l 910 685 l 949 864 l 925 894 l 678 894 l 504 78 l 647 78 l 631 0 z "},"ţ":{"ha":549,"x_min":68,"x_max":549,"o":"m 81 729 l 228 729 l 268 889 l 399 889 l 361 729 l 549 729 l 549 654 l 346 654 l 236 235 q 227 185 229 207 q 225 139 225 163 q 297 75 225 75 q 382 92 335 75 q 465 142 429 110 l 494 86 q 454 53 479 69 q 397 22 429 36 q 327 -2 365 8 q 247 -14 289 -12 l 214 -85 q 284 -92 257 -86 q 327 -108 311 -97 q 349 -136 343 -119 q 354 -176 354 -153 q 326 -244 354 -218 q 254 -285 297 -271 q 161 -306 211 -300 q 68 -311 111 -311 l 68 -267 q 126 -262 97 -265 q 176 -253 154 -260 q 212 -233 199 -246 q 225 -199 225 -221 q 222 -174 225 -185 q 207 -158 218 -164 q 176 -147 196 -151 q 125 -140 157 -143 l 179 -10 q 109 32 133 1 q 85 104 85 63 q 86 151 85 126 q 94 201 88 175 l 208 654 l 81 654 l 81 729 z "},"Ť":{"ha":956,"x_min":101,"x_max":1071,"o":"m 631 0 l 189 0 l 206 78 l 349 78 l 522 894 l 272 894 l 240 864 l 201 685 l 101 685 l 163 972 l 1071 972 l 1010 685 l 910 685 l 949 864 l 925 894 l 678 894 l 504 78 l 647 78 l 631 0 m 874 1276 l 913 1251 l 632 1054 l 589 1054 l 476 1247 l 515 1276 l 644 1200 l 874 1276 z "},"ť":{"ha":549,"x_min":81,"x_max":639,"o":"m 81 729 l 228 729 l 268 889 l 399 889 l 361 729 l 549 729 l 549 654 l 346 654 l 238 235 q 228 185 231 207 q 225 139 225 163 q 297 75 225 75 q 382 92 335 75 q 465 142 429 110 l 494 86 q 452 51 479 69 q 390 19 425 33 q 314 -5 356 4 q 228 -14 272 -14 q 122 19 160 -14 q 85 104 85 53 q 86 151 85 126 q 94 201 88 175 l 208 654 l 81 654 l 81 729 m 421 793 q 471 937 454 860 q 488 1074 488 1014 l 508 1099 l 639 1063 q 612 981 632 1022 q 565 901 592 939 q 509 831 539 863 q 454 778 479 799 l 421 793 z "},"Ū":{"ha":1044,"x_min":132,"x_max":1174,"o":"m 913 339 q 766 72 874 156 q 482 -12 658 -12 q 324 9 389 -12 q 217 68 258 31 q 156 158 175 106 q 138 272 138 210 q 150 382 138 324 l 258 894 l 132 894 l 149 972 l 543 972 l 526 894 l 414 894 l 306 385 q 297 333 300 357 q 293 286 293 310 q 349 133 293 186 q 521 81 404 81 q 822 342 765 81 l 942 894 l 828 894 l 844 972 l 1174 972 l 1157 894 l 1031 894 l 913 339 m 463 1093 l 479 1182 l 951 1182 l 935 1093 l 463 1093 z "},"ū":{"ha":833,"x_min":81,"x_max":764,"o":"m 750 75 l 750 0 l 494 0 l 524 164 l 518 164 q 467 103 497 135 q 398 47 436 72 q 315 3 360 21 q 219 -14 269 -14 q 118 20 156 -14 q 81 119 81 54 q 84 170 81 139 q 96 242 88 201 l 183 654 l 88 654 l 88 729 l 338 729 l 242 314 q 225 237 233 278 q 217 157 217 196 q 235 95 217 115 q 282 75 253 75 q 372 97 329 75 q 448 149 414 119 q 505 211 482 179 q 539 264 528 243 l 632 729 l 764 729 l 638 75 l 750 75 m 310 928 l 326 1004 l 726 1004 l 710 928 l 310 928 z "},"Ŭ":{"ha":1044,"x_min":132,"x_max":1174,"o":"m 913 339 q 766 72 874 156 q 482 -12 658 -12 q 324 9 389 -12 q 217 68 258 31 q 156 158 175 106 q 138 272 138 210 q 150 382 138 324 l 258 894 l 132 894 l 149 972 l 543 972 l 526 894 l 414 894 l 306 385 q 297 333 300 357 q 293 286 293 310 q 349 133 293 186 q 521 81 404 81 q 822 342 765 81 l 942 894 l 828 894 l 844 972 l 1174 972 l 1157 894 l 1031 894 l 913 339 m 967 1233 q 926 1172 953 1203 q 865 1115 900 1140 q 785 1072 829 1089 q 693 1056 742 1056 q 622 1070 657 1056 q 560 1110 588 1085 q 514 1167 532 1135 q 492 1236 496 1200 l 557 1257 q 613 1194 575 1218 q 701 1169 651 1169 q 816 1189 761 1169 q 917 1253 871 1208 l 967 1233 z "},"ŭ":{"ha":833,"x_min":81,"x_max":764,"o":"m 750 75 l 750 0 l 494 0 l 524 164 l 518 164 q 467 103 497 135 q 398 47 436 72 q 315 3 360 21 q 219 -14 269 -14 q 118 20 156 -14 q 81 119 81 54 q 84 170 81 139 q 96 242 88 201 l 183 654 l 88 654 l 88 729 l 338 729 l 242 314 q 225 237 233 278 q 217 157 217 196 q 235 95 217 115 q 282 75 253 75 q 372 97 329 75 q 448 149 414 119 q 505 211 482 179 q 539 264 528 243 l 632 729 l 764 729 l 638 75 l 750 75 m 756 1050 q 715 985 742 1017 q 655 928 689 953 q 582 887 621 903 q 504 871 543 871 q 432 885 463 871 q 381 924 401 899 q 347 982 360 949 q 329 1053 335 1015 l 374 1072 q 423 1003 389 1029 q 506 976 457 976 q 626 997 575 976 q 718 1067 678 1017 l 756 1050 z "},"Ů":{"ha":1044,"x_min":132,"x_max":1174,"o":"m 913 339 q 766 72 874 156 q 482 -12 658 -12 q 324 9 389 -12 q 217 68 258 31 q 156 158 175 106 q 138 272 138 210 q 150 382 138 324 l 258 894 l 132 894 l 149 972 l 543 972 l 526 894 l 414 894 l 306 385 q 297 333 300 357 q 293 286 293 310 q 349 133 293 186 q 521 81 404 81 q 822 342 765 81 l 942 894 l 828 894 l 844 972 l 1174 972 l 1157 894 l 1031 894 l 913 339 m 525 1094 q 578 1183 525 1151 q 707 1214 631 1214 q 768 1207 738 1214 q 823 1186 799 1200 q 863 1151 847 1172 q 878 1099 878 1129 q 864 1050 878 1071 q 826 1014 850 1029 q 770 991 801 999 q 706 983 739 983 q 575 1013 625 983 q 525 1094 525 1042 m 629 1094 q 649 1056 629 1071 q 697 1042 669 1042 q 756 1056 738 1042 q 774 1093 774 1069 q 753 1142 774 1129 q 703 1156 732 1156 q 647 1138 665 1156 q 629 1094 629 1121 z "},"ů":{"ha":833,"x_min":81,"x_max":764,"o":"m 750 75 l 750 0 l 494 0 l 524 164 l 518 164 q 467 103 497 135 q 398 47 436 72 q 315 3 360 21 q 219 -14 269 -14 q 118 20 156 -14 q 81 119 81 54 q 84 170 81 139 q 96 242 88 201 l 183 654 l 88 654 l 88 729 l 338 729 l 242 314 q 225 237 233 278 q 217 157 217 196 q 235 95 217 115 q 282 75 253 75 q 372 97 329 75 q 448 149 414 119 q 505 211 482 179 q 539 264 528 243 l 632 729 l 764 729 l 638 75 l 750 75 m 365 996 q 410 1097 365 1056 q 522 1138 454 1138 q 627 1101 585 1138 q 669 1000 669 1064 q 657 946 669 971 q 624 903 644 921 q 577 874 604 885 q 521 864 550 864 q 408 899 450 864 q 365 996 365 935 m 449 999 q 469 944 449 963 q 515 925 490 925 q 566 942 546 925 q 586 994 586 958 q 567 1056 586 1035 q 517 1076 547 1076 q 465 1056 481 1076 q 449 999 449 1035 z "},"Ű":{"ha":1044,"x_min":132,"x_max":1174,"o":"m 913 339 q 766 72 874 156 q 482 -12 658 -12 q 324 9 389 -12 q 217 68 258 31 q 156 158 175 106 q 138 272 138 210 q 150 382 138 324 l 258 894 l 132 894 l 149 972 l 543 972 l 526 894 l 414 894 l 306 385 q 297 333 300 357 q 293 286 293 310 q 349 133 293 186 q 521 81 404 81 q 822 342 765 81 l 942 894 l 828 894 l 844 972 l 1174 972 l 1157 894 l 1031 894 l 913 339 m 629 1261 l 769 1228 l 769 1194 l 524 1051 l 493 1078 l 629 1261 m 903 1261 l 1050 1231 l 1050 1196 l 731 1049 l 696 1075 l 903 1261 z "},"ű":{"ha":833,"x_min":81,"x_max":900,"o":"m 750 75 l 750 0 l 494 0 l 524 164 l 518 164 q 467 103 497 135 q 398 47 436 72 q 315 3 360 21 q 219 -14 269 -14 q 118 20 156 -14 q 81 119 81 54 q 84 170 81 139 q 96 242 88 201 l 183 654 l 88 654 l 88 729 l 338 729 l 242 314 q 225 237 233 278 q 217 157 217 196 q 235 95 217 115 q 282 75 253 75 q 372 97 329 75 q 448 149 414 119 q 505 211 482 179 q 539 264 528 243 l 632 729 l 764 729 l 638 75 l 750 75 m 492 1119 l 626 1089 l 626 1053 l 411 872 l 374 894 l 492 1119 m 764 1119 l 900 1079 l 900 1044 l 589 872 l 557 897 l 764 1119 z "},"Ų":{"ha":1044,"x_min":132,"x_max":1174,"o":"m 913 339 q 808 111 882 193 q 615 1 733 29 q 497 -60 544 -25 q 450 -153 450 -94 q 471 -205 450 -190 q 538 -219 492 -219 q 625 -211 585 -219 l 625 -254 q 568 -281 603 -269 q 482 -293 533 -293 q 363 -266 408 -293 q 317 -178 317 -239 q 362 -81 317 -121 q 474 -12 407 -40 q 319 10 383 -11 q 215 69 256 32 q 156 159 175 107 q 138 272 138 211 q 150 382 138 324 l 258 894 l 132 894 l 149 972 l 543 972 l 526 894 l 414 894 l 304 385 q 296 333 299 357 q 293 286 293 310 q 349 133 293 186 q 521 81 404 81 q 822 342 765 81 l 940 894 l 828 894 l 844 972 l 1174 972 l 1157 894 l 1031 894 l 913 339 z "},"ų":{"ha":833,"x_min":81,"x_max":764,"o":"m 750 75 l 750 0 l 739 0 q 679 -24 708 -10 q 627 -59 650 -39 q 590 -106 604 -79 q 575 -164 575 -132 q 596 -223 575 -200 q 667 -246 617 -246 q 696 -243 682 -246 q 731 -233 710 -240 l 731 -279 q 674 -300 707 -292 q 613 -308 640 -308 q 482 -274 521 -308 q 443 -186 443 -239 q 459 -120 443 -150 q 503 -67 475 -90 q 568 -28 531 -44 q 649 0 606 -11 l 494 0 l 524 164 l 518 164 q 467 103 497 135 q 398 47 436 72 q 315 3 360 21 q 219 -14 269 -14 q 118 20 156 -14 q 81 119 81 54 q 84 170 81 139 q 96 242 88 201 l 183 654 l 88 654 l 88 729 l 338 729 l 242 314 q 225 237 233 278 q 217 157 217 196 q 235 95 217 115 q 282 75 253 75 q 372 97 329 75 q 448 149 414 119 q 505 211 482 179 q 539 264 528 243 l 632 729 l 764 729 l 638 75 l 750 75 z "},"Ÿ":{"ha":1010,"x_min":125,"x_max":1151,"o":"m 799 972 l 1151 972 l 1135 894 l 1017 894 l 618 413 l 547 78 l 663 78 l 646 0 l 249 0 l 265 78 l 392 78 l 463 411 l 251 894 l 125 894 l 142 972 l 557 972 l 540 894 l 424 894 l 582 483 l 910 894 l 782 894 l 799 972 m 422 1106 q 448 1166 422 1146 q 513 1186 474 1186 q 579 1166 553 1186 q 606 1106 606 1146 q 579 1050 606 1069 q 513 1031 553 1031 q 448 1050 474 1031 q 422 1106 422 1069 m 772 1106 q 799 1166 772 1146 q 863 1186 825 1186 q 929 1166 903 1186 q 956 1106 956 1146 q 929 1050 956 1069 q 863 1031 903 1031 q 799 1050 825 1031 q 772 1106 772 1069 z "},"Ź":{"ha":919,"x_min":-22,"x_max":990,"o":"m -6 78 l 786 894 l 331 894 l 297 864 l 260 690 l 160 690 l 219 972 l 990 972 l 974 894 l 182 78 l 689 78 l 724 108 l 760 282 l 860 282 l 800 0 l -22 0 l -6 78 m 743 1269 l 914 1224 l 914 1168 l 558 1068 l 540 1101 l 743 1269 z "},"ź":{"ha":671,"x_min":13,"x_max":661,"o":"m 518 613 l 192 613 l 153 513 l 74 513 l 119 729 l 661 729 l 661 654 l 157 117 l 521 117 l 558 217 l 639 217 l 592 0 l 13 0 l 13 75 l 518 613 m 461 1042 l 636 1042 l 636 985 l 364 822 l 325 854 l 461 1042 z "},"Ż":{"ha":919,"x_min":-22,"x_max":990,"o":"m -6 78 l 786 894 l 331 894 l 297 864 l 260 690 l 160 690 l 219 972 l 990 972 l 974 894 l 182 78 l 689 78 l 724 108 l 760 282 l 860 282 l 800 0 l -22 0 l -6 78 m 496 1140 q 528 1201 496 1181 q 607 1222 560 1222 q 688 1201 656 1222 q 719 1140 719 1181 q 688 1079 719 1100 q 607 1058 656 1058 q 528 1079 560 1058 q 496 1140 496 1100 z "},"ż":{"ha":671,"x_min":13,"x_max":661,"o":"m 518 613 l 192 613 l 153 513 l 74 513 l 119 729 l 661 729 l 661 654 l 157 117 l 521 117 l 558 217 l 639 217 l 592 0 l 13 0 l 13 75 l 518 613 m 335 954 q 363 1018 335 994 q 436 1042 392 1042 q 510 1018 483 1042 q 538 954 538 994 q 510 890 538 914 q 436 867 483 867 q 363 890 392 867 q 335 954 335 914 z "},"Ž":{"ha":919,"x_min":-22,"x_max":990,"o":"m -6 78 l 786 894 l 331 894 l 297 864 l 260 690 l 160 690 l 219 972 l 990 972 l 974 894 l 182 78 l 689 78 l 724 108 l 760 282 l 860 282 l 800 0 l -22 0 l -6 78 m 846 1276 l 885 1251 l 604 1054 l 561 1054 l 449 1247 l 488 1276 l 617 1200 l 846 1276 z "},"ž":{"ha":671,"x_min":13,"x_max":699,"o":"m 518 613 l 192 613 l 153 513 l 74 513 l 119 729 l 661 729 l 661 654 l 157 117 l 521 117 l 558 217 l 639 217 l 592 0 l 13 0 l 13 75 l 518 613 m 654 1119 l 699 1096 l 422 825 l 382 825 l 275 1094 l 331 1119 l 440 967 l 654 1119 z "},"ſ":{"ha":454,"x_min":-83,"x_max":672,"o":"m 194 654 l 85 654 l 85 729 l 214 729 l 225 793 q 266 910 238 863 q 338 986 294 957 q 435 1028 381 1015 q 551 1042 489 1042 q 613 1035 578 1042 q 672 1018 647 1029 l 635 860 l 556 860 l 575 956 q 543 964 560 961 q 511 967 526 967 q 417 928 458 967 q 360 801 375 890 l 232 63 q 176 -105 214 -40 q 95 -208 139 -169 q 10 -263 51 -246 q -57 -287 -32 -281 l -83 -231 q -38 -207 -64 -222 q 14 -162 -12 -192 q 63 -85 40 -132 q 97 35 85 -37 l 194 654 z "},"ƒ":{"ha":833,"x_min":14,"x_max":769,"o":"m 292 654 l 182 654 l 182 729 l 311 729 l 322 793 q 363 910 335 863 q 435 986 392 957 q 532 1028 478 1015 q 649 1042 586 1042 q 710 1035 675 1042 q 769 1018 744 1029 l 732 860 l 653 860 l 672 956 q 640 964 657 961 q 608 967 624 967 q 516 931 556 967 q 457 801 476 894 l 442 729 l 611 729 l 611 654 l 426 654 l 329 63 q 274 -106 313 -40 q 192 -209 236 -171 q 107 -264 149 -247 q 40 -287 65 -281 l 14 -231 q 59 -207 33 -222 q 111 -162 85 -192 q 160 -85 138 -132 q 194 35 182 -37 l 292 654 z "},"Ǵ":{"ha":1061,"x_min":106,"x_max":1038,"o":"m 857 67 q 701 5 789 26 q 535 -17 614 -17 q 322 16 406 -17 q 191 101 239 49 q 124 219 143 153 q 106 353 106 285 q 147 608 106 492 q 265 810 188 725 q 453 942 342 894 q 706 989 564 989 q 879 974 808 989 q 999 936 950 960 q 997 926 999 936 q 990 899 994 915 q 981 860 986 882 q 972 817 976 839 q 947 699 961 764 l 858 699 l 890 844 l 876 872 q 844 885 865 879 q 800 894 824 890 q 751 899 776 897 q 707 900 726 900 q 524 856 604 900 q 390 738 444 813 q 308 565 336 664 q 279 357 279 467 q 292 253 279 304 q 337 161 304 201 q 426 97 369 121 q 569 72 482 72 q 644 78 615 72 q 701 94 674 85 l 728 119 l 783 382 l 636 382 l 653 460 l 1038 460 l 1021 382 l 924 382 l 857 67 m 840 1269 l 1011 1224 l 1011 1168 l 656 1068 l 638 1101 l 840 1269 z "},"ǵ":{"ha":747,"x_min":-71,"x_max":803,"o":"m 510 -76 q 474 -12 510 -37 q 376 31 439 14 q 228 60 314 49 q 43 81 143 71 l 181 274 q 141 298 161 283 q 106 335 121 313 q 81 387 90 357 q 71 456 71 417 q 97 577 71 524 q 169 667 122 631 q 281 724 217 704 q 425 743 346 743 l 803 743 l 803 668 l 651 668 q 667 617 661 651 q 672 549 672 582 q 644 415 672 472 q 568 317 615 357 q 459 258 521 278 q 331 238 397 238 q 272 240 301 238 q 233 249 243 243 l 172 163 q 332 149 247 157 q 488 119 417 140 q 607 61 560 99 q 654 -39 654 24 q 621 -147 654 -100 q 533 -226 588 -194 q 406 -275 478 -258 q 256 -292 333 -292 q 130 -279 189 -292 q 26 -244 71 -267 q -45 -190 -19 -221 q -71 -119 -71 -158 q -40 -43 -71 -74 q 29 0 -10 -12 l 106 0 q 74 -41 86 -17 q 63 -87 63 -65 q 82 -145 63 -121 q 132 -185 101 -169 q 201 -209 163 -201 q 278 -217 239 -217 q 378 -205 335 -217 q 450 -173 421 -193 q 494 -128 479 -153 q 510 -76 510 -103 m 432 674 q 265 619 329 674 q 200 446 200 564 q 212 381 200 408 q 242 334 224 353 q 285 306 261 315 q 335 297 310 297 q 422 314 382 297 q 489 360 461 331 q 532 432 517 390 q 547 525 547 474 q 537 615 547 578 q 507 674 526 651 l 432 674 m 560 1042 l 735 1042 l 735 985 l 463 822 l 424 854 l 560 1042 z "},"Ș":{"ha":814,"x_min":35,"x_max":829,"o":"m 142 144 l 160 111 q 189 94 169 103 q 233 77 208 85 q 284 65 257 69 q 338 61 311 61 q 524 108 458 61 q 590 246 590 156 q 560 339 590 300 q 486 410 531 378 q 389 471 442 442 q 292 535 336 500 q 217 617 247 571 q 188 726 188 663 q 283 921 188 853 q 564 989 379 989 q 722 976 660 989 q 829 942 785 963 q 826 931 829 942 q 821 904 824 921 q 813 866 818 888 q 804 822 808 844 q 779 704 793 769 l 690 704 l 721 853 l 706 888 q 638 905 682 899 q 544 911 593 911 q 392 869 440 911 q 343 769 343 828 q 373 685 343 721 q 447 619 403 650 q 544 558 492 588 q 642 491 597 528 q 716 406 686 454 q 746 290 746 357 q 718 165 746 221 q 637 68 690 108 q 504 6 583 28 q 322 -17 425 -17 q 228 -10 274 -17 q 146 8 183 -3 q 80 32 108 19 q 35 57 51 44 l 88 310 l 176 310 l 142 144 m 196 -331 q 294 -292 258 -318 q 340 -218 329 -265 l 267 -218 q 251 -188 256 -204 q 247 -157 247 -172 q 257 -105 247 -129 q 281 -67 267 -81 l 460 -67 q 471 -137 471 -107 q 449 -233 471 -190 q 390 -306 426 -275 q 308 -358 353 -337 q 217 -389 263 -379 l 196 -331 z "},"ș":{"ha":654,"x_min":8,"x_max":604,"o":"m 254 61 q 308 66 279 61 q 360 83 336 71 q 399 117 383 96 q 414 172 414 139 q 392 233 414 207 q 339 284 371 260 q 269 333 307 308 q 199 385 231 357 q 145 450 167 414 q 124 535 124 486 q 147 626 124 586 q 211 691 171 665 q 307 730 251 717 q 425 743 363 743 q 483 739 454 743 q 535 728 511 735 q 578 714 560 722 q 604 699 596 706 l 563 536 l 476 536 l 500 650 q 460 663 489 658 q 411 668 432 668 q 363 665 389 668 q 315 651 338 661 q 278 622 293 640 q 264 572 264 603 q 285 507 264 535 q 340 456 307 479 q 411 408 374 432 q 482 356 449 385 q 537 291 515 328 q 558 203 558 254 q 531 110 558 150 q 457 42 503 69 q 351 0 411 14 q 226 -14 290 -14 q 155 -7 190 -14 q 90 10 119 0 q 38 33 60 21 q 8 53 17 44 l 61 218 l 156 218 l 119 103 q 169 74 135 88 q 254 61 204 61 m 96 -337 q 239 -210 218 -304 l 169 -210 q 154 -181 158 -196 q 150 -151 150 -167 q 160 -103 150 -125 q 183 -67 169 -81 l 344 -67 q 353 -106 351 -86 q 356 -143 356 -125 q 335 -236 356 -194 q 281 -308 314 -278 q 204 -359 247 -339 q 115 -389 161 -379 l 96 -337 z "},"Ț":{"ha":956,"x_min":101,"x_max":1071,"o":"m 631 0 l 189 0 l 206 78 l 349 78 l 522 894 l 272 894 l 240 864 l 201 685 l 101 685 l 163 972 l 1071 972 l 1010 685 l 910 685 l 949 864 l 925 894 l 678 894 l 504 78 l 647 78 l 631 0 m 249 -331 q 347 -292 311 -318 q 393 -218 382 -265 l 319 -218 q 304 -188 308 -204 q 300 -157 300 -172 q 310 -105 300 -129 q 333 -67 319 -81 l 513 -67 q 524 -137 524 -107 q 501 -233 524 -190 q 442 -306 479 -275 q 360 -358 406 -337 q 269 -389 315 -379 l 249 -331 z "},"ț":{"ha":549,"x_min":81,"x_max":549,"o":"m 81 729 l 228 729 l 268 889 l 399 889 l 361 729 l 549 729 l 549 654 l 346 654 l 238 235 q 228 185 231 207 q 225 139 225 163 q 297 75 225 75 q 382 92 335 75 q 465 142 429 110 l 494 86 q 452 51 479 69 q 390 19 425 33 q 314 -5 356 4 q 228 -14 272 -14 q 122 19 160 -14 q 85 104 85 53 q 86 151 85 126 q 94 201 88 175 l 208 654 l 81 654 l 81 729 m 83 -337 q 226 -210 206 -304 l 157 -210 q 142 -181 146 -196 q 138 -151 138 -167 q 147 -103 138 -125 q 171 -67 157 -81 l 332 -67 q 341 -106 339 -86 q 343 -143 343 -125 q 322 -236 343 -194 q 268 -308 301 -278 q 192 -359 235 -339 q 103 -389 149 -379 l 83 -337 z "},"ȷ":{"ha":417,"x_min":-129,"x_max":356,"o":"m 204 654 l 110 654 l 110 729 l 356 729 l 210 63 q 144 -107 186 -42 q 54 -211 101 -172 q -37 -267 7 -250 q -107 -290 -82 -283 l -129 -233 q -84 -210 -111 -225 q -29 -167 -57 -196 q 25 -90 -1 -137 q 68 35 51 -42 l 204 654 z "},"ʼ":{"ha":456,"x_min":176,"x_max":450,"o":"m 176 642 q 235 668 207 650 q 284 709 263 686 q 319 758 306 732 q 336 810 332 785 l 257 810 q 244 858 244 832 q 257 913 244 886 q 289 963 269 940 l 443 963 q 450 904 450 931 q 428 797 450 847 q 369 706 406 746 q 286 639 332 667 q 193 601 240 611 l 176 642 z "},"ˆ":{"ha":610,"x_min":206,"x_max":594,"o":"m 250 860 l 206 883 l 476 1156 l 517 1156 l 594 885 l 550 860 l 453 1015 l 250 860 z "},"ˇ":{"ha":607,"x_min":264,"x_max":688,"o":"m 643 1119 l 688 1096 l 411 825 l 371 825 l 264 1094 l 319 1119 l 429 967 l 643 1119 z "},"˘":{"ha":613,"x_min":254,"x_max":681,"o":"m 681 1050 q 640 985 667 1017 q 580 928 614 953 q 507 887 546 903 q 429 871 468 871 q 357 885 388 871 q 306 924 326 899 q 272 982 285 949 q 254 1053 260 1015 l 299 1072 q 348 1003 314 1029 q 431 976 382 976 q 551 997 500 976 q 643 1067 603 1017 l 681 1050 z "},"˙":{"ha":490,"x_min":288,"x_max":490,"o":"m 288 954 q 316 1018 288 994 q 389 1042 344 1042 q 463 1018 436 1042 q 490 954 490 994 q 463 890 490 914 q 389 867 436 867 q 316 890 344 867 q 288 954 288 914 z "},"˚":{"ha":553,"x_min":242,"x_max":546,"o":"m 242 996 q 286 1097 242 1056 q 399 1138 331 1138 q 503 1101 461 1138 q 546 1000 546 1064 q 533 946 546 971 q 501 903 521 921 q 453 874 481 885 q 397 864 426 864 q 284 899 326 864 q 242 996 242 935 m 325 999 q 346 944 325 963 q 392 925 367 925 q 442 942 422 925 q 463 994 463 958 q 443 1056 463 1035 q 393 1076 424 1076 q 341 1056 357 1076 q 325 999 325 1035 z "},"˛":{"ha":653,"x_min":146,"x_max":469,"o":"m 469 29 q 399 1 433 17 q 338 -34 364 -14 q 295 -80 311 -54 q 279 -139 279 -106 q 296 -190 279 -167 q 354 -212 313 -212 q 436 -199 396 -212 l 436 -249 q 380 -269 414 -261 q 318 -278 346 -278 q 186 -245 226 -278 q 146 -162 146 -212 q 167 -95 146 -124 q 225 -45 189 -67 q 309 -6 261 -24 q 410 29 357 11 l 469 29 z "},"˜":{"ha":581,"x_min":101,"x_max":582,"o":"m 582 979 q 490 915 532 932 q 413 897 447 897 q 360 905 385 897 q 311 922 335 913 q 265 938 288 931 q 219 946 243 946 q 178 938 200 946 q 132 910 157 931 l 101 954 q 205 1022 160 1004 q 286 1040 250 1040 q 338 1033 314 1040 q 385 1017 363 1025 q 429 1001 407 1008 q 475 993 451 993 q 515 999 494 993 q 560 1022 536 1006 l 582 979 z "},"˝":{"ha":871,"x_min":351,"x_max":878,"o":"m 469 1119 l 604 1089 l 604 1053 l 389 872 l 351 894 l 469 1119 m 742 1119 l 878 1079 l 878 1044 l 567 872 l 535 897 l 742 1119 z "},"́":{"ha":3,"x_min":-451,"x_max":-140,"o":"m -315 1042 l -140 1042 l -140 985 l -412 822 l -451 854 l -315 1042 z "},"Δ":{"ha":1011,"x_min":31,"x_max":981,"o":"m 31 0 l 31 44 l 488 972 l 533 972 l 981 44 l 981 0 l 31 0 m 478 776 l 143 86 l 794 86 l 478 776 z "},"Ω":{"ha":1243,"x_min":86,"x_max":1156,"o":"m 86 0 l 86 203 l 175 203 l 175 108 l 463 108 q 331 169 393 131 q 220 260 268 207 q 144 379 172 313 q 117 526 117 446 q 153 716 117 631 q 256 862 189 801 q 418 955 322 922 q 633 988 514 988 q 847 956 754 988 q 1002 865 939 924 q 1098 724 1065 807 q 1131 540 1131 642 q 1100 383 1131 454 q 1021 258 1069 313 q 913 165 972 203 q 794 108 853 128 l 1068 108 l 1068 203 l 1156 203 l 1156 0 l 713 0 l 713 118 q 792 165 750 132 q 872 250 835 199 q 933 370 908 301 q 957 524 957 439 q 938 676 957 604 q 878 800 918 747 q 776 883 838 853 q 633 914 715 914 q 475 884 540 914 q 369 803 410 854 q 309 683 328 751 q 290 539 290 615 q 316 382 290 453 q 381 257 342 311 q 464 167 419 203 q 546 118 508 132 l 546 0 l 86 0 z "},"π":{"ha":946,"x_min":21,"x_max":1019,"o":"m 815 69 l 800 0 l 542 0 l 676 636 l 385 636 l 328 363 q 302 264 317 314 q 269 167 288 214 q 231 76 251 119 q 188 0 210 33 l 21 0 q 108 133 64 54 q 192 301 153 213 q 263 478 232 390 q 308 636 293 565 l 282 636 q 198 615 238 636 q 114 550 158 594 l 79 569 q 117 637 96 607 q 168 688 138 667 q 242 719 199 708 q 347 729 285 729 l 783 729 q 867 730 833 729 q 924 735 900 731 q 964 747 947 739 q 999 767 981 754 l 1019 754 q 960 671 1003 706 q 851 636 918 636 l 832 636 l 713 69 l 815 69 z "},"Ё":{"ha":882,"x_min":-29,"x_max":915,"o":"m 915 972 l 867 744 l 778 744 l 804 864 l 782 894 l 442 894 l 365 535 l 600 535 l 625 556 l 638 614 l 726 614 l 676 376 l 588 376 l 600 435 l 583 457 l 349 457 l 268 78 l 632 78 l 665 106 l 694 242 l 783 242 l 732 0 l -29 0 l -14 78 l 113 78 l 286 894 l 160 894 l 176 972 l 915 972 m 324 1106 q 349 1166 324 1146 q 414 1186 375 1186 q 481 1166 454 1186 q 507 1106 507 1146 q 481 1050 507 1069 q 414 1031 454 1031 q 349 1050 375 1031 q 324 1106 324 1069 m 674 1106 q 700 1166 674 1146 q 764 1186 726 1186 q 831 1166 804 1186 q 857 1106 857 1146 q 831 1050 857 1069 q 764 1031 804 1031 q 700 1050 726 1031 q 674 1106 674 1069 z "},"Ђ":{"ha":1172,"x_min":101,"x_max":1126,"o":"m 597 0 l 188 0 l 203 78 l 349 78 l 522 894 l 274 894 l 240 864 l 201 685 l 101 685 l 163 972 l 1071 972 l 1010 685 l 910 685 l 949 864 l 926 894 l 678 894 l 603 540 q 722 583 656 563 q 878 603 788 603 q 1069 551 1011 603 q 1126 385 1126 499 q 1092 213 1126 286 q 1003 91 1058 139 q 876 19 947 43 q 729 -4 804 -4 l 735 47 q 821 79 779 54 q 895 146 863 104 q 948 247 928 188 q 968 381 968 306 q 938 491 968 454 q 828 528 907 528 q 699 512 763 528 q 589 472 636 496 l 504 78 l 613 78 l 597 0 z "},"Ѓ":{"ha":760,"x_min":-29,"x_max":889,"o":"m 160 894 l 176 972 l 889 972 l 828 685 l 728 685 l 767 864 l 744 894 l 442 894 l 268 78 l 418 78 l 401 0 l -29 0 l -14 78 l 113 78 l 286 894 l 160 894 m 686 1269 l 857 1224 l 857 1168 l 501 1068 l 483 1101 l 686 1269 z "},"Є":{"ha":956,"x_min":106,"x_max":986,"o":"m 776 256 l 865 256 l 819 38 q 763 15 796 25 q 694 -2 731 6 q 621 -13 658 -10 q 549 -17 583 -17 q 326 15 413 -17 q 190 99 239 47 q 124 217 142 151 q 106 350 106 282 q 147 606 106 489 q 267 809 189 724 q 456 942 344 894 q 710 989 568 989 q 874 974 811 989 q 986 936 938 960 l 935 699 l 846 699 l 878 844 l 864 872 q 813 890 849 879 q 704 900 776 900 q 565 875 629 900 q 449 804 500 850 q 360 692 397 758 q 301 544 322 626 l 769 544 l 751 456 l 285 456 q 281 406 282 431 q 279 354 279 381 q 295 243 279 294 q 347 153 311 192 q 438 94 382 115 q 574 72 494 72 q 665 80 624 72 q 725 100 706 88 l 750 126 l 776 256 z "},"Ѕ":{"ha":814,"x_min":35,"x_max":829,"o":"m 142 144 l 160 111 q 189 94 169 103 q 233 77 208 85 q 284 65 257 69 q 338 61 311 61 q 524 108 458 61 q 590 246 590 156 q 560 339 590 300 q 486 410 531 378 q 389 471 442 442 q 292 535 336 500 q 217 617 247 571 q 188 726 188 663 q 283 921 188 853 q 564 989 379 989 q 722 976 660 989 q 829 942 785 963 q 826 931 829 942 q 821 904 824 921 q 813 866 818 888 q 804 822 808 844 q 779 704 793 769 l 690 704 l 721 853 l 706 888 q 638 905 682 899 q 544 911 593 911 q 392 869 440 911 q 343 769 343 828 q 373 685 343 721 q 447 619 403 650 q 544 558 492 588 q 642 491 597 528 q 716 406 686 454 q 746 290 746 357 q 718 165 746 221 q 637 68 690 108 q 504 6 583 28 q 322 -17 425 -17 q 228 -10 274 -17 q 146 8 183 -3 q 80 32 108 19 q 35 57 51 44 l 88 310 l 176 310 l 142 144 z "},"І":{"ha":540,"x_min":-1,"x_max":614,"o":"m 407 0 l -1 0 l 15 78 l 142 78 l 315 894 l 189 894 l 206 972 l 614 972 l 597 894 l 471 894 l 297 78 l 424 78 l 407 0 z "},"Ї":{"ha":540,"x_min":-1,"x_max":653,"o":"m 190 1106 q 216 1166 190 1146 q 281 1186 242 1186 q 347 1166 321 1186 q 374 1106 374 1146 q 347 1050 374 1069 q 281 1031 321 1031 q 216 1050 242 1031 q 190 1106 190 1069 m 469 1106 q 496 1166 469 1146 q 560 1186 522 1186 q 626 1166 600 1186 q 653 1106 653 1146 q 626 1050 653 1069 q 560 1031 600 1031 q 496 1050 522 1031 q 469 1106 469 1069 m 407 0 l -1 0 l 15 78 l 142 78 l 315 894 l 189 894 l 206 972 l 614 972 l 597 894 l 471 894 l 297 78 l 424 78 l 407 0 z "},"Ј":{"ha":514,"x_min":-57,"x_max":588,"o":"m -57 -157 q -6 -128 -32 -146 q 42 -81 19 -111 q 85 -6 65 -51 q 121 108 106 40 l 289 894 l 174 894 l 190 972 l 588 972 l 571 894 l 444 894 l 281 122 q 220 -40 260 24 q 135 -142 181 -104 q 42 -197 89 -179 q -39 -222 -4 -215 l -57 -157 z "},"Љ":{"ha":1440,"x_min":-39,"x_max":1394,"o":"m 904 579 q 974 587 933 585 q 1047 589 1015 589 q 1189 576 1125 589 q 1299 534 1253 563 q 1369 461 1344 506 q 1394 354 1394 417 q 1358 198 1394 265 q 1256 86 1321 131 q 1098 19 1190 42 q 896 -4 1006 -4 q 866 -3 889 -4 q 815 -2 843 -3 q 755 -1 786 -1 q 700 0 724 0 l 501 0 l 515 78 l 642 78 l 815 894 l 525 894 q 463 663 492 764 q 406 483 433 561 q 354 347 379 406 q 306 242 329 288 q 258 162 282 197 q 211 94 235 126 q 169 47 193 71 q 121 0 146 24 l -39 0 l -3 175 l 158 175 q 221 267 188 210 q 290 412 254 325 q 360 618 325 499 q 429 894 396 738 l 285 894 l 301 972 l 1126 972 l 1110 894 l 971 894 l 904 579 m 996 511 q 933 508 958 511 q 888 503 908 506 l 799 81 q 822 78 807 79 q 852 76 836 76 q 883 74 868 75 q 907 74 899 74 q 1018 88 963 74 q 1119 134 1074 101 q 1192 219 1164 167 q 1221 346 1221 271 q 1210 411 1221 381 q 1174 464 1200 442 q 1106 499 1149 486 q 996 511 1063 511 z "},"Њ":{"ha":1532,"x_min":-29,"x_max":1486,"o":"m 1010 551 q 1079 558 1039 556 q 1151 561 1119 561 q 1290 546 1228 561 q 1395 500 1351 531 q 1463 426 1439 469 q 1486 324 1486 382 q 1360 78 1486 161 q 1008 -4 1235 -4 q 978 -3 1000 -4 q 927 -2 956 -3 q 868 -1 899 -1 q 814 0 838 0 l 622 0 l 638 78 l 753 78 l 835 460 l 349 460 l 267 78 l 382 78 l 367 0 l -29 0 l -15 78 l 111 78 l 285 894 l 158 894 l 175 972 l 572 972 l 556 894 l 440 894 l 365 538 l 851 538 l 926 894 l 811 894 l 828 972 l 1239 972 l 1222 894 l 1082 894 l 1010 551 m 1099 483 q 1038 481 1063 483 q 993 475 1014 478 l 910 81 q 930 77 915 78 q 961 75 944 76 q 993 74 978 74 q 1017 74 1008 74 q 1122 86 1069 74 q 1217 128 1175 99 q 1286 208 1260 158 q 1313 332 1313 257 q 1303 390 1313 363 q 1268 439 1293 418 q 1202 472 1243 460 q 1099 483 1161 483 z "},"Ћ":{"ha":1217,"x_min":88,"x_max":1156,"o":"m 582 0 l 172 0 l 189 78 l 335 78 l 508 894 l 260 894 l 226 864 l 188 685 l 88 685 l 149 972 l 1057 972 l 996 685 l 896 685 l 935 864 l 913 894 l 664 894 l 589 539 q 703 581 636 561 q 857 601 769 601 q 1030 549 969 601 q 1090 399 1090 497 q 1088 359 1090 379 q 1081 317 1086 339 l 1029 78 l 1156 78 l 1139 0 l 857 0 l 917 285 q 929 386 929 343 q 896 490 929 456 q 785 524 863 524 q 670 507 718 524 q 574 467 622 490 l 490 78 l 599 78 l 582 0 z "},"Ќ":{"ha":975,"x_min":-29,"x_max":1078,"o":"m 449 531 l 822 894 l 710 894 l 726 972 l 1078 972 l 1061 894 l 951 894 l 549 528 l 833 78 l 921 78 l 904 0 l 696 0 l 433 461 l 350 461 l 268 78 l 383 78 l 367 0 l -29 0 l -14 78 l 113 78 l 286 894 l 160 894 l 176 972 l 574 972 l 557 894 l 442 894 l 364 531 l 449 531 m 749 1269 l 919 1224 l 919 1168 l 564 1068 l 546 1101 l 749 1269 z "},"Ў":{"ha":1017,"x_min":125,"x_max":1158,"o":"m 917 894 l 788 894 l 804 972 l 1158 972 l 1142 894 l 1029 894 l 653 304 q 585 210 624 260 q 506 117 546 160 q 432 42 467 74 q 376 0 397 10 l 242 0 l 278 171 l 440 171 q 462 191 450 179 q 485 215 474 203 q 505 240 496 228 q 518 260 514 251 l 243 894 l 125 894 l 142 972 l 554 972 l 538 894 l 413 894 l 581 465 l 607 369 l 613 369 l 661 461 l 917 894 m 672 1032 q 484 1078 543 1032 q 425 1222 425 1125 l 600 1222 l 600 1128 q 634 1113 610 1117 q 678 1108 658 1108 q 741 1113 708 1108 q 803 1129 774 1117 q 856 1164 832 1142 q 894 1222 881 1186 l 979 1222 q 944 1146 968 1181 q 883 1085 921 1111 q 794 1046 846 1060 q 672 1032 742 1032 z "},"Џ":{"ha":1108,"x_min":-29,"x_max":1210,"o":"m 739 78 l 913 894 l 797 894 l 814 972 l 1210 972 l 1194 894 l 1068 894 l 894 78 l 1021 78 l 1004 0 l 556 0 l 456 -278 l 386 -278 l 408 0 l -29 0 l -12 78 l 114 78 l 288 894 l 161 894 l 178 972 l 575 972 l 558 894 l 443 894 l 269 78 l 739 78 z "},"А":{"ha":1035,"x_min":-69,"x_max":986,"o":"m 268 0 l -69 0 l -53 78 l 53 78 l 600 972 l 747 972 l 883 78 l 986 78 l 969 0 l 576 0 l 593 78 l 717 78 l 679 322 l 313 322 l 165 78 l 285 78 l 268 0 m 361 400 l 672 400 l 629 721 q 628 748 628 725 q 626 799 628 771 q 625 868 625 829 l 619 868 l 544 718 l 361 400 z "},"Б":{"ha":924,"x_min":-29,"x_max":921,"o":"m 367 553 q 446 560 396 557 q 538 563 496 563 q 771 504 686 563 q 856 325 856 446 q 818 184 856 246 q 715 81 781 122 q 560 17 649 39 q 368 -4 471 -4 q 337 -3 360 -4 q 284 -2 314 -3 q 222 -1 254 -1 q 167 0 190 0 l -29 0 l -15 78 l 111 78 l 285 894 l 158 894 l 175 972 l 921 972 l 867 718 l 767 718 l 799 864 l 776 894 l 440 894 l 367 553 m 472 485 q 403 483 436 485 q 350 476 371 481 l 268 81 q 290 77 275 78 q 321 75 304 76 q 353 74 338 74 q 376 74 368 74 q 501 89 443 74 q 602 135 560 104 q 669 212 644 165 q 694 321 694 258 q 683 387 694 357 q 644 439 671 417 q 576 473 618 461 q 472 485 533 485 z "},"В":{"ha":939,"x_min":-29,"x_max":919,"o":"m -29 0 l -14 78 l 113 78 l 286 894 l 160 894 l 176 972 l 356 972 q 413 974 385 972 q 471 976 440 975 q 536 979 501 978 q 613 981 571 981 q 731 970 675 981 q 829 936 788 960 q 895 874 871 913 q 919 781 919 836 q 849 605 919 672 q 663 519 778 538 l 663 514 q 733 499 697 511 q 800 463 769 488 q 850 399 831 438 q 869 307 869 361 q 833 171 869 229 q 733 72 797 113 q 579 12 668 32 q 386 -8 490 -8 q 264 -4 332 -8 q 133 0 196 0 l -29 0 m 414 69 q 522 84 469 69 q 617 128 575 99 q 683 203 658 158 q 708 307 708 247 q 643 426 708 393 q 464 458 578 458 l 349 458 l 269 82 q 319 73 289 76 q 414 69 350 69 m 440 532 q 503 534 468 532 q 563 539 539 536 q 658 583 621 557 q 718 639 696 608 q 749 703 740 669 q 758 771 758 738 q 719 865 758 828 q 581 903 679 903 q 499 901 533 903 q 442 896 465 899 l 364 532 l 440 532 z "},"Г":{"ha":760,"x_min":-29,"x_max":889,"o":"m 160 894 l 176 972 l 889 972 l 828 685 l 728 685 l 767 864 l 744 894 l 442 894 l 268 78 l 418 78 l 401 0 l -29 0 l -14 78 l 113 78 l 286 894 l 160 894 z "},"Д":{"ha":1054,"x_min":-117,"x_max":1136,"o":"m 1119 894 l 993 894 l 819 78 l 964 78 l 899 -225 l 794 -225 l 836 -31 l 815 0 l 63 0 l 28 -31 l -14 -225 l -117 -225 l -51 78 l 83 78 q 192 228 138 136 q 295 428 246 319 q 384 658 344 538 q 447 894 424 778 l 297 894 l 314 972 l 1136 972 l 1119 894 m 664 78 l 838 894 l 544 894 q 453 589 500 722 q 358 356 406 456 q 268 189 311 257 q 190 78 225 121 l 664 78 z "},"Е":{"ha":882,"x_min":-29,"x_max":915,"o":"m 915 972 l 867 744 l 778 744 l 804 864 l 782 894 l 442 894 l 365 535 l 600 535 l 625 556 l 638 614 l 726 614 l 676 376 l 588 376 l 600 435 l 583 457 l 349 457 l 268 78 l 632 78 l 665 106 l 694 242 l 783 242 l 732 0 l -29 0 l -14 78 l 113 78 l 286 894 l 160 894 l 176 972 l 915 972 z "},"Ж":{"ha":1440,"x_min":-64,"x_max":1543,"o":"m 572 461 l 157 0 l -64 0 l -47 78 l 35 78 q 257 301 160 203 q 339 383 299 343 q 410 456 379 424 q 461 507 442 488 q 481 526 481 526 l 253 894 l 144 894 l 161 972 l 497 972 l 481 894 l 376 894 l 575 531 l 683 531 l 761 894 l 654 894 l 671 972 l 1035 972 l 1018 894 l 911 894 l 833 531 l 938 531 l 1278 894 l 1167 894 l 1183 972 l 1543 972 l 1526 894 l 1408 894 l 1028 522 l 1308 78 l 1392 78 l 1375 0 l 1175 0 l 919 461 l 819 461 l 738 78 l 844 78 l 828 0 l 464 0 l 481 78 l 588 78 l 669 461 l 572 461 z "},"З":{"ha":856,"x_min":26,"x_max":836,"o":"m 326 -17 q 218 -8 268 -17 q 129 13 168 0 q 64 42 90 26 q 26 69 38 57 q 34 108 26 71 q 51 188 42 144 l 76 301 l 165 301 l 131 133 l 146 107 q 222 74 176 88 q 313 61 268 61 q 529 131 451 61 q 607 315 607 201 q 557 422 607 389 q 415 456 507 456 l 292 456 l 311 544 l 492 544 q 627 633 579 571 q 675 771 675 696 q 667 823 675 797 q 638 868 658 849 q 584 899 618 888 q 499 911 550 911 q 450 909 475 911 q 402 903 425 907 q 360 894 379 899 q 332 883 342 889 l 308 857 l 279 719 l 190 719 l 236 932 q 301 958 265 947 q 375 975 338 968 q 451 985 413 982 q 522 989 489 989 q 643 978 586 989 q 743 942 700 967 q 811 876 786 917 q 836 779 836 836 q 822 702 836 742 q 779 627 808 663 q 704 563 750 592 q 593 519 658 533 l 593 514 q 656 493 625 507 q 713 456 688 479 q 753 398 738 432 q 768 318 768 364 q 730 167 768 231 q 630 63 692 104 q 489 3 568 22 q 326 -17 410 -17 z "},"И":{"ha":1143,"x_min":-29,"x_max":1244,"o":"m 368 0 l -29 0 l -14 78 l 113 78 l 286 894 l 160 894 l 176 972 l 575 972 l 558 894 l 442 894 l 315 299 l 276 194 l 369 307 l 949 864 l 954 894 l 828 894 l 844 972 l 1244 972 l 1228 894 l 1101 894 l 928 78 l 1054 78 l 1038 0 l 638 0 l 654 78 l 772 78 l 899 672 l 936 776 l 850 669 l 264 106 l 258 78 l 385 78 l 368 0 z "},"Й":{"ha":1143,"x_min":-29,"x_max":1244,"o":"m 368 0 l -29 0 l -14 78 l 113 78 l 286 894 l 160 894 l 176 972 l 575 972 l 558 894 l 442 894 l 315 299 l 276 194 l 369 307 l 949 864 l 954 894 l 828 894 l 844 972 l 1244 972 l 1228 894 l 1101 894 l 928 78 l 1054 78 l 1038 0 l 638 0 l 654 78 l 772 78 l 899 672 l 936 776 l 850 669 l 264 106 l 258 78 l 385 78 l 368 0 m 696 1032 q 508 1078 567 1032 q 449 1222 449 1125 l 624 1222 l 624 1128 q 658 1113 633 1117 q 701 1108 682 1108 q 765 1113 732 1108 q 826 1129 797 1117 q 880 1164 856 1142 q 918 1222 904 1186 l 1003 1222 q 968 1146 992 1181 q 907 1085 944 1111 q 817 1046 869 1060 q 696 1032 765 1032 z "},"К":{"ha":975,"x_min":-29,"x_max":1078,"o":"m 449 531 l 822 894 l 710 894 l 726 972 l 1078 972 l 1061 894 l 951 894 l 549 528 l 833 78 l 921 78 l 904 0 l 696 0 l 433 461 l 350 461 l 268 78 l 383 78 l 367 0 l -29 0 l -14 78 l 113 78 l 286 894 l 160 894 l 176 972 l 574 972 l 557 894 l 442 894 l 364 531 l 449 531 z "},"Л":{"ha":1013,"x_min":-39,"x_max":1114,"o":"m 525 894 q 463 663 492 764 q 406 483 433 561 q 354 347 379 406 q 306 242 329 288 q 258 162 282 197 q 211 94 235 126 q 169 47 193 71 q 121 0 146 24 l -39 0 l -3 175 l 158 175 q 221 267 188 210 q 290 412 254 325 q 360 618 325 499 q 429 894 396 738 l 285 894 l 301 972 l 1114 972 l 1097 894 l 971 894 l 797 78 l 924 78 l 907 0 l 506 0 l 522 78 l 642 78 l 815 894 l 525 894 z "},"М":{"ha":1353,"x_min":-29,"x_max":1454,"o":"m 160 894 l 176 972 l 492 972 l 685 360 l 1151 972 l 1454 972 l 1438 894 l 1311 894 l 1138 78 l 1264 78 l 1247 0 l 844 0 l 861 78 l 988 78 l 1119 697 q 1128 727 1121 701 q 1142 782 1135 753 l 1161 860 l 1149 860 l 1057 711 l 665 208 l 581 208 l 410 711 l 383 874 l 369 874 l 353 790 q 340 731 346 758 q 333 697 335 703 l 201 78 l 319 78 l 303 0 l -29 0 l -14 78 l 113 78 l 286 894 l 160 894 z "},"Н":{"ha":1125,"x_min":-29,"x_max":1226,"o":"m 383 78 l 367 0 l -29 0 l -14 78 l 113 78 l 286 894 l 160 894 l 176 972 l 574 972 l 557 894 l 442 894 l 367 538 l 853 538 l 928 894 l 813 894 l 829 972 l 1226 972 l 1210 894 l 1083 894 l 910 78 l 1036 78 l 1019 0 l 624 0 l 639 78 l 754 78 l 836 460 l 350 460 l 268 78 l 383 78 z "},"О":{"ha":1139,"x_min":106,"x_max":1114,"o":"m 106 393 q 141 613 106 506 q 249 804 176 721 q 433 938 322 888 q 694 989 544 989 q 865 962 788 989 q 998 883 943 935 q 1083 760 1053 832 q 1114 599 1114 688 q 1083 377 1114 488 q 985 179 1053 267 q 810 38 917 92 q 551 -17 703 -17 q 390 7 469 -17 q 247 81 311 31 q 144 208 183 131 q 106 393 106 285 m 279 392 q 303 240 279 303 q 367 138 328 178 q 458 80 407 99 q 563 61 510 61 q 743 110 671 61 q 859 238 815 160 q 922 410 903 315 q 940 597 940 506 q 867 831 940 751 q 660 911 793 911 q 489 865 561 911 q 370 746 417 819 q 301 579 324 672 q 279 392 279 486 z "},"П":{"ha":1108,"x_min":-29,"x_max":1210,"o":"m 442 894 l 268 78 l 383 78 l 367 0 l -29 0 l -14 78 l 113 78 l 286 894 l 160 894 l 176 972 l 1210 972 l 1193 894 l 1067 894 l 893 78 l 1019 78 l 1003 0 l 606 0 l 622 78 l 738 78 l 911 894 l 442 894 z "},"Р":{"ha":913,"x_min":-29,"x_max":944,"o":"m 160 894 l 176 972 l 332 972 q 465 978 394 972 q 603 983 535 983 q 742 969 679 983 q 850 926 806 956 q 919 852 894 897 q 944 744 944 807 q 908 583 944 653 q 808 467 872 514 q 654 396 743 419 q 461 372 565 372 q 435 372 453 372 q 399 373 418 372 q 360 375 379 374 q 332 378 342 376 l 268 78 l 407 78 l 390 0 l -29 0 l -14 78 l 113 78 l 286 894 l 160 894 m 349 457 q 369 453 356 454 q 397 451 382 453 q 427 450 413 450 q 450 450 442 450 q 572 467 514 450 q 675 518 631 483 q 745 606 719 553 q 771 735 771 660 q 718 859 771 813 q 543 906 665 906 q 483 903 506 906 q 442 897 461 900 l 349 457 z "},"С":{"ha":956,"x_min":106,"x_max":986,"o":"m 776 256 l 865 256 l 819 38 q 763 15 796 25 q 694 -2 731 6 q 621 -13 658 -10 q 549 -17 583 -17 q 326 15 413 -17 q 190 99 239 47 q 124 217 142 151 q 106 350 106 282 q 147 606 106 489 q 267 809 189 724 q 456 942 344 894 q 710 989 568 989 q 874 974 811 989 q 986 936 938 960 l 935 699 l 846 699 l 878 844 l 864 872 q 813 890 849 879 q 704 900 776 900 q 532 861 610 900 q 398 751 454 822 q 310 578 342 679 q 279 354 279 478 q 295 243 279 294 q 347 153 311 192 q 438 94 382 115 q 574 72 494 72 q 665 80 624 72 q 725 100 706 88 l 750 126 l 776 256 z "},"Т":{"ha":956,"x_min":101,"x_max":1071,"o":"m 631 0 l 189 0 l 206 78 l 349 78 l 522 894 l 272 894 l 240 864 l 201 685 l 101 685 l 163 972 l 1071 972 l 1010 685 l 910 685 l 949 864 l 925 894 l 678 894 l 504 78 l 647 78 l 631 0 z "},"У":{"ha":1017,"x_min":125,"x_max":1158,"o":"m 917 894 l 788 894 l 804 972 l 1158 972 l 1142 894 l 1029 894 l 653 304 q 585 210 624 260 q 506 117 546 160 q 432 42 467 74 q 376 0 397 10 l 242 0 l 278 171 l 440 171 q 462 191 450 179 q 485 215 474 203 q 505 240 496 228 q 518 260 514 251 l 243 894 l 125 894 l 142 972 l 554 972 l 538 894 l 413 894 l 581 465 l 607 369 l 613 369 l 661 461 l 917 894 z "},"Ф":{"ha":1215,"x_min":78,"x_max":1204,"o":"m 536 838 q 590 836 557 838 q 642 832 622 835 l 654 894 l 546 894 l 563 972 l 922 972 l 906 894 l 797 894 l 783 828 q 851 836 813 835 q 915 838 889 838 q 1042 819 988 838 q 1133 768 1097 800 q 1186 691 1168 736 q 1204 594 1204 646 q 1176 423 1204 504 q 1090 281 1147 342 q 945 185 1032 221 q 742 150 858 150 q 720 151 733 150 q 692 152 707 151 q 664 155 678 153 q 642 160 650 157 l 624 78 l 732 78 l 715 0 l 356 0 l 372 78 l 481 78 l 497 157 q 426 151 465 153 q 357 150 388 150 q 234 170 286 150 q 147 224 182 190 q 95 304 113 258 q 78 403 78 350 q 107 572 78 493 q 194 710 136 651 q 338 803 251 769 q 536 838 424 838 m 849 763 q 807 761 825 763 q 767 754 789 760 l 654 229 q 690 226 669 226 q 725 225 711 225 q 863 255 804 225 q 961 335 922 285 q 1019 454 1000 386 q 1038 599 1038 522 q 1029 665 1038 635 q 999 717 1021 694 q 941 751 978 739 q 849 763 904 763 m 436 225 q 474 226 456 225 q 515 232 492 228 l 626 758 q 550 763 589 763 q 413 735 471 763 q 318 658 356 707 q 263 544 281 610 q 244 401 244 478 q 254 335 244 367 q 286 278 264 303 q 345 240 308 254 q 436 225 382 225 z "},"Х":{"ha":1036,"x_min":-60,"x_max":1108,"o":"m 753 972 l 1108 972 l 1092 894 l 978 894 l 625 521 l 850 78 l 976 78 l 960 0 l 558 0 l 575 78 l 676 78 l 506 421 l 203 78 l 310 78 l 293 0 l -60 0 l -43 78 l 72 78 l 465 489 l 260 894 l 136 894 l 153 972 l 564 972 l 547 894 l 436 894 l 586 585 l 858 894 l 736 894 l 753 972 z "},"Ц":{"ha":1110,"x_min":-29,"x_max":1206,"o":"m 733 78 l 907 894 l 792 894 l 808 972 l 1206 972 l 1189 894 l 1063 894 l 889 78 l 1043 78 l 978 -225 l 882 -225 l 924 -31 l 903 0 l -29 0 l -12 78 l 114 78 l 288 894 l 161 894 l 178 972 l 575 972 l 558 894 l 443 894 l 269 78 l 733 78 z "},"Ч":{"ha":997,"x_min":132,"x_max":1099,"o":"m 796 78 l 908 78 l 892 0 l 479 0 l 496 78 l 640 78 l 715 431 q 596 388 668 407 q 433 368 524 368 q 253 419 321 368 q 186 578 186 469 q 188 620 186 597 q 196 667 190 643 l 244 894 l 132 894 l 149 972 l 518 972 l 501 894 l 400 894 l 351 669 q 344 628 347 649 q 342 590 342 608 q 377 485 342 524 q 496 446 413 446 q 622 463 561 446 q 731 503 682 479 l 814 894 l 703 894 l 719 972 l 1099 972 l 1082 894 l 969 894 l 796 78 z "},"Ш":{"ha":1478,"x_min":-29,"x_max":1579,"o":"m 160 894 l 176 972 l 558 972 l 542 894 l 442 894 l 268 78 l 610 78 l 783 894 l 683 894 l 700 972 l 1056 972 l 1039 894 l 939 894 l 765 78 l 1107 78 l 1281 894 l 1181 894 l 1197 972 l 1579 972 l 1563 894 l 1436 894 l 1263 78 l 1389 78 l 1372 0 l -29 0 l -14 78 l 113 78 l 286 894 l 160 894 z "},"Щ":{"ha":1485,"x_min":-29,"x_max":1581,"o":"m 161 894 l 178 972 l 560 972 l 543 894 l 443 894 l 269 78 l 611 78 l 785 894 l 685 894 l 701 972 l 1057 972 l 1040 894 l 940 894 l 767 78 l 1108 78 l 1282 894 l 1182 894 l 1199 972 l 1581 972 l 1564 894 l 1438 894 l 1264 78 l 1419 78 l 1354 -225 l 1258 -225 l 1300 -31 l 1279 0 l -29 0 l -12 78 l 114 78 l 288 894 l 161 894 z "},"Ъ":{"ha":1101,"x_min":100,"x_max":1056,"o":"m 565 579 q 635 587 594 585 q 708 589 676 589 q 850 576 786 589 q 960 533 914 563 q 1031 460 1006 504 q 1056 353 1056 415 q 1019 197 1056 264 q 917 85 982 131 q 759 18 851 40 q 557 -4 667 -4 q 527 -3 550 -4 q 476 -2 504 -3 q 416 -1 447 -1 q 361 0 385 0 l 163 0 l 176 78 l 303 78 l 476 894 l 261 894 l 228 864 l 189 685 l 100 685 l 161 972 l 788 972 l 771 894 l 632 894 l 565 579 m 657 511 q 594 508 619 511 q 549 503 569 506 l 460 81 q 483 78 468 79 q 513 76 497 76 q 544 74 529 75 q 568 74 560 74 q 679 88 624 74 q 780 133 735 101 q 853 216 825 164 q 882 343 882 268 q 872 409 882 378 q 835 463 861 440 q 767 498 810 485 q 657 511 724 511 z "},"Ы":{"ha":1308,"x_min":-29,"x_max":1410,"o":"m 990 894 l 1007 972 l 1410 972 l 1393 894 l 1267 894 l 1093 78 l 1219 78 l 1204 0 l 801 0 l 817 78 l 938 78 l 1111 894 l 990 894 m 374 579 q 442 587 403 585 q 514 589 482 589 q 757 531 671 589 q 843 353 843 472 q 809 203 843 269 q 713 92 775 138 q 561 21 650 46 q 363 -4 472 -4 q 333 -3 356 -4 q 283 -2 311 -3 q 224 -1 254 -1 q 169 0 193 0 l -29 0 l -15 78 l 111 78 l 285 894 l 158 894 l 175 972 l 596 972 l 579 894 l 440 894 l 374 579 m 463 511 q 401 508 425 511 q 357 503 378 506 l 268 81 q 290 78 276 79 q 320 76 304 76 q 351 74 336 75 q 374 74 365 74 q 479 88 426 74 q 574 133 532 101 q 643 217 617 165 q 669 343 669 268 q 660 409 669 378 q 628 463 651 440 q 565 498 606 485 q 463 511 525 511 z "},"Ь":{"ha":910,"x_min":-29,"x_max":864,"o":"m 374 579 q 444 587 403 585 q 517 589 485 589 q 658 576 594 589 q 768 534 722 563 q 839 461 814 506 q 864 354 864 417 q 827 198 864 265 q 725 86 790 131 q 567 19 660 42 q 365 -4 475 -4 q 335 -3 358 -4 q 284 -2 313 -3 q 224 -1 256 -1 q 169 0 193 0 l -29 0 l -15 78 l 111 78 l 285 894 l 158 894 l 175 972 l 596 972 l 579 894 l 440 894 l 374 579 m 465 511 q 403 508 428 511 q 357 503 378 506 l 268 81 q 291 78 276 79 q 322 76 306 76 q 353 74 338 75 q 376 74 368 74 q 488 88 432 74 q 588 134 543 101 q 662 219 633 167 q 690 346 690 271 q 680 411 690 381 q 644 464 669 442 q 575 499 618 486 q 465 511 532 511 z "},"Э":{"ha":944,"x_min":43,"x_max":919,"o":"m 315 456 l 335 544 l 756 544 q 758 575 757 560 q 758 606 758 590 q 690 825 758 750 q 464 900 622 900 q 381 892 418 900 q 326 874 344 883 l 301 846 l 274 718 l 185 718 l 231 932 q 361 976 288 964 q 501 989 435 989 q 694 960 615 989 q 824 883 774 932 q 897 767 874 833 q 919 625 919 700 q 879 367 919 485 q 763 165 839 250 q 580 31 688 79 q 338 -17 472 -17 q 144 8 218 -17 q 43 61 71 33 l 94 301 l 183 301 l 149 144 l 163 115 q 223 86 182 100 q 322 72 264 72 q 458 90 390 72 q 583 151 525 107 q 683 269 640 194 q 743 456 726 343 l 315 456 z "},"Ю":{"ha":1486,"x_min":-29,"x_max":1461,"o":"m 521 388 q 521 423 521 406 q 524 460 521 440 l 350 460 l 268 78 l 386 78 l 369 0 l -29 0 l -14 78 l 113 78 l 286 894 l 160 894 l 176 972 l 576 972 l 560 894 l 442 894 l 367 538 l 538 538 q 601 708 557 626 q 712 851 644 789 q 871 951 779 914 q 1079 989 963 989 q 1243 960 1172 989 q 1363 881 1314 932 q 1436 758 1411 831 q 1461 599 1461 686 q 1427 377 1461 488 q 1325 179 1393 267 q 1155 38 1257 92 q 917 -17 1053 -17 q 765 6 838 -17 q 639 76 693 28 q 553 201 585 125 q 521 388 521 278 m 694 392 q 712 240 694 303 q 760 138 729 178 q 835 80 792 99 q 932 61 879 61 q 1100 113 1032 61 q 1210 243 1168 164 q 1269 417 1251 322 q 1288 597 1288 511 q 1231 828 1288 746 q 1051 911 1175 911 q 894 863 961 911 q 783 740 828 815 q 717 573 739 665 q 694 392 694 481 z "},"Я":{"ha":976,"x_min":-61,"x_max":1078,"o":"m 1078 972 l 1061 894 l 935 894 l 761 78 l 888 78 l 871 0 l 454 0 l 471 78 l 606 78 l 675 406 l 519 406 q 503 387 519 404 q 463 341 488 369 q 406 276 438 313 q 340 201 374 239 q 164 0 263 113 l -61 0 l -44 78 l 40 78 l 375 425 q 329 442 357 429 q 275 481 301 456 q 229 547 249 507 q 210 642 210 586 q 334 889 210 801 q 700 976 458 976 q 780 974 732 976 q 876 972 828 972 l 1078 972 m 581 476 q 640 478 608 476 q 692 483 672 479 l 779 892 q 735 897 764 894 q 683 899 707 899 q 560 884 615 899 q 466 839 506 869 q 405 760 426 808 q 383 643 383 711 q 399 565 383 597 q 442 513 415 533 q 505 485 469 493 q 581 476 540 476 z "},"а":{"ha":821,"x_min":64,"x_max":756,"o":"m 306 75 q 364 91 332 75 q 427 132 396 107 q 485 188 458 157 q 531 250 513 219 l 604 628 q 563 657 590 646 q 501 668 536 668 q 376 628 431 668 q 285 525 322 589 q 228 383 247 461 q 208 228 208 304 q 306 75 208 75 m 514 163 q 475 108 500 139 q 415 51 450 78 q 335 5 379 24 q 239 -14 290 -14 q 112 40 160 -14 q 64 203 64 94 q 93 403 64 306 q 178 576 122 500 q 315 697 233 651 q 501 743 396 743 q 576 728 540 743 q 626 696 611 714 l 649 729 l 756 729 l 625 75 l 739 75 l 739 0 l 493 0 l 522 163 l 514 163 z "},"б":{"ha":790,"x_min":61,"x_max":829,"o":"m 61 279 q 79 482 61 381 q 135 672 97 583 q 229 831 172 761 q 364 940 286 901 q 528 990 442 979 q 706 1007 614 1001 l 754 1083 l 829 1083 l 765 881 q 549 874 643 881 q 385 833 456 867 q 263 731 314 800 q 174 536 211 661 l 181 536 q 336 674 250 633 q 518 715 422 715 q 676 649 615 715 q 736 468 736 583 q 708 294 736 381 q 626 140 679 208 q 499 28 574 71 q 331 -14 424 -14 q 134 58 207 -14 q 61 279 61 129 m 449 622 q 330 586 385 622 q 236 503 275 550 q 208 390 218 447 q 197 279 197 332 q 206 190 197 232 q 233 118 215 149 q 280 69 251 88 q 349 51 308 51 q 434 83 392 51 q 510 169 476 115 q 564 296 543 224 q 585 450 585 368 q 548 578 585 535 q 449 622 511 622 z "},"в":{"ha":775,"x_min":61,"x_max":706,"o":"m 706 606 q 651 488 706 538 q 494 404 596 439 q 581 388 546 401 q 637 353 615 374 q 667 307 658 332 q 676 260 676 282 q 652 164 676 213 q 583 76 628 115 q 478 11 539 36 q 342 -14 417 -14 q 220 4 272 -14 q 133 55 168 22 q 79 131 97 88 q 61 226 61 175 q 76 369 61 303 q 119 492 92 436 q 183 591 146 547 q 263 667 219 635 q 372 722 308 700 q 524 743 436 743 q 594 735 561 743 q 652 709 628 726 q 691 666 676 692 q 706 606 706 640 m 532 235 q 500 323 532 294 q 394 363 468 351 q 356 358 378 360 q 310 353 333 356 q 262 349 286 351 q 217 346 238 347 q 206 239 206 304 q 242 103 206 156 q 358 51 279 51 q 420 64 389 51 q 476 100 451 76 q 517 158 501 124 q 532 235 532 192 m 494 678 q 415 663 454 678 q 341 617 376 649 q 276 532 306 585 q 224 403 246 479 q 356 419 294 403 q 465 462 418 435 q 538 525 511 489 q 564 600 564 561 q 549 654 564 631 q 494 678 533 678 z "},"г":{"ha":599,"x_min":24,"x_max":563,"o":"m 24 139 q 52 230 24 189 q 124 306 81 271 q 218 374 168 342 q 312 438 268 406 q 384 505 356 471 q 413 578 413 539 q 398 631 413 607 q 347 654 383 654 q 288 642 317 654 q 232 614 258 631 q 184 579 206 597 q 149 547 163 561 l 110 594 q 150 643 122 617 q 215 692 178 669 q 297 728 253 714 q 386 743 340 743 q 464 732 431 743 q 519 702 497 721 q 551 659 540 683 q 563 608 563 635 q 534 511 563 554 q 462 433 506 468 q 368 366 418 397 q 274 303 318 335 q 202 239 231 272 q 174 167 174 206 q 196 102 174 129 q 263 75 218 75 q 335 88 300 75 q 398 117 369 100 q 449 153 426 135 q 485 186 471 172 l 532 143 q 480 89 513 117 q 405 38 447 61 q 311 1 363 15 q 201 -14 260 -14 q 133 -3 165 -14 q 77 28 101 8 q 38 77 53 49 q 24 139 24 106 z "},"д":{"ha":761,"x_min":44,"x_max":736,"o":"m 44 246 q 76 429 44 342 q 167 583 108 517 q 308 690 225 650 q 494 729 392 729 q 549 723 522 729 q 593 706 576 717 q 583 796 593 751 q 551 875 574 840 q 491 931 528 910 q 401 953 454 953 q 312 937 353 953 q 236 903 271 921 l 210 954 q 254 988 226 972 q 315 1016 282 1004 q 385 1035 349 1028 q 457 1042 422 1042 q 567 1021 517 1042 q 656 956 618 1000 q 715 843 693 911 q 736 681 736 775 q 702 405 736 532 q 607 185 668 278 q 463 39 546 92 q 282 -14 379 -14 q 109 53 174 -14 q 44 246 44 121 m 481 654 q 343 613 399 654 q 253 510 288 572 q 203 375 218 449 q 189 236 189 301 q 195 173 189 204 q 216 117 201 142 q 255 76 231 92 q 315 61 279 61 q 412 101 363 61 q 501 216 461 142 q 566 394 540 290 q 592 624 592 497 q 534 648 560 642 q 481 654 508 654 z "},"е":{"ha":696,"x_min":61,"x_max":668,"o":"m 604 133 q 563 79 589 106 q 500 32 536 53 q 419 -1 464 11 q 324 -14 375 -14 q 133 53 204 -14 q 61 243 61 121 q 92 439 61 347 q 178 597 122 531 q 312 703 233 664 q 486 743 390 743 q 557 734 524 743 q 615 707 590 725 q 654 663 640 689 q 668 601 668 636 q 563 440 668 501 q 217 363 457 379 q 208 315 211 338 q 206 271 206 293 q 251 131 206 183 q 383 79 296 79 q 438 88 411 79 q 490 109 465 96 q 535 139 515 122 q 568 171 556 156 l 604 133 m 440 678 q 321 620 375 678 q 228 428 267 563 q 453 476 375 432 q 532 596 532 521 q 528 626 532 611 q 513 652 524 640 q 485 671 503 664 q 440 678 468 678 z "},"ж":{"ha":1268,"x_min":-21,"x_max":1285,"o":"m 81 601 q 188 703 122 668 q 311 738 253 738 q 374 722 346 738 q 419 680 401 707 q 447 617 438 653 q 457 543 457 582 q 453 473 457 508 q 443 403 450 438 l 583 403 l 651 729 l 779 729 l 708 403 l 847 403 q 976 649 889 561 q 1176 738 1064 738 q 1233 734 1200 738 q 1285 719 1267 731 l 1249 564 l 1164 564 l 1189 661 q 1180 663 1185 663 q 1171 663 1175 663 q 1087 631 1126 663 q 1018 542 1047 599 q 972 408 989 486 q 954 239 954 331 q 978 122 954 160 q 1043 85 1003 85 q 1103 111 1068 85 q 1158 174 1138 138 l 1203 140 q 1168 85 1190 111 q 1117 38 1146 58 q 1053 4 1088 17 q 982 -8 1019 -8 q 906 8 938 -8 q 856 51 875 24 q 827 115 836 78 q 818 196 818 153 q 821 263 818 225 q 831 338 824 300 l 696 338 l 622 0 l 496 0 l 568 338 l 428 338 q 374 198 407 261 q 299 89 342 135 q 205 17 257 43 q 94 -8 153 -8 q 65 -7 82 -8 q 33 -2 49 -6 q 2 6 17 1 q -21 18 -12 11 l 13 171 l 96 171 l 74 68 q 93 67 81 67 q 181 100 140 67 q 253 192 222 133 q 303 333 285 251 q 321 511 321 414 q 244 644 321 644 q 215 637 232 644 q 181 617 199 629 q 147 590 164 606 q 119 560 131 575 l 81 601 z "},"з":{"ha":672,"x_min":17,"x_max":613,"o":"m 56 199 l 144 199 l 118 99 q 161 72 129 83 q 239 61 193 61 q 313 72 276 61 q 379 102 350 82 q 426 152 408 122 q 444 221 444 182 q 413 304 444 281 q 325 335 382 328 l 226 335 l 226 410 l 307 410 q 378 442 349 422 q 428 485 408 461 q 458 533 449 508 q 468 581 468 558 q 438 647 468 625 q 333 668 408 668 q 276 659 304 668 q 221 639 247 650 l 189 535 l 100 535 l 136 681 q 234 726 179 708 q 381 743 289 743 q 473 735 431 743 q 547 709 515 726 q 595 666 578 692 q 613 606 613 640 q 407 397 613 468 q 489 384 454 397 q 546 350 524 371 q 578 303 568 329 q 589 250 589 276 q 565 148 589 196 q 497 64 542 100 q 388 7 451 28 q 246 -14 325 -14 q 118 3 182 -14 q 17 56 54 21 l 56 199 z "},"и":{"ha":833,"x_min":81,"x_max":764,"o":"m 750 75 l 750 0 l 494 0 l 524 164 l 518 164 q 467 103 497 135 q 398 47 436 72 q 315 3 360 21 q 219 -14 269 -14 q 118 20 156 -14 q 81 119 81 54 q 84 170 81 139 q 96 242 88 201 l 183 654 l 88 654 l 88 729 l 338 729 l 242 314 q 225 237 233 278 q 217 157 217 196 q 235 95 217 115 q 282 75 253 75 q 372 97 329 75 q 448 149 414 119 q 505 211 482 179 q 539 264 528 243 l 632 729 l 764 729 l 638 75 l 750 75 z "},"й":{"ha":833,"x_min":81,"x_max":786,"o":"m 750 75 l 750 0 l 494 0 l 524 164 l 518 164 q 467 103 497 135 q 398 47 436 72 q 315 3 360 21 q 219 -14 269 -14 q 118 20 156 -14 q 81 119 81 54 q 84 170 81 139 q 96 242 88 201 l 183 654 l 88 654 l 88 729 l 338 729 l 242 314 q 225 237 233 278 q 217 157 217 196 q 235 95 217 115 q 282 75 253 75 q 372 97 329 75 q 448 149 414 119 q 505 211 482 179 q 539 264 528 243 l 632 729 l 764 729 l 638 75 l 750 75 m 493 844 q 336 878 389 844 q 267 958 283 913 l 267 1039 l 425 1039 l 425 943 q 461 926 443 931 q 515 921 479 921 q 575 928 544 921 q 632 951 606 936 q 678 988 658 965 q 708 1039 699 1010 l 786 1039 q 688 896 768 947 q 493 844 608 844 z "},"к":{"ha":785,"x_min":64,"x_max":763,"o":"m 326 346 l 271 346 l 201 0 l 64 0 l 199 654 l 90 654 l 90 729 l 353 729 l 282 401 l 328 401 l 578 606 l 578 729 l 763 729 l 763 654 l 442 415 l 646 75 l 725 75 l 725 0 l 518 0 l 326 346 z "},"л":{"ha":792,"x_min":-35,"x_max":721,"o":"m 576 654 l 392 654 q 347 483 372 576 q 285 299 321 390 q 206 129 250 208 q 106 0 161 50 l -35 0 l -35 133 l 110 133 q 174 236 144 175 q 229 367 204 297 q 274 510 254 436 q 310 654 294 585 l 201 654 l 201 729 l 721 729 l 582 75 l 700 75 l 700 0 l 565 0 l 436 0 l 576 654 z "},"м":{"ha":1088,"x_min":-31,"x_max":1018,"o":"m 351 654 q 317 486 338 579 q 267 301 296 393 q 199 130 238 210 q 113 0 160 50 l -31 0 l -31 133 l 107 133 q 157 223 132 164 q 204 355 182 282 q 245 506 226 428 q 276 654 264 585 l 188 654 l 188 729 l 486 729 l 521 188 l 526 188 l 826 729 l 1018 729 l 881 75 l 996 75 l 996 0 l 864 0 l 736 0 l 879 654 l 869 654 l 546 75 l 401 75 l 368 654 l 351 654 z "},"н":{"ha":847,"x_min":65,"x_max":778,"o":"m 778 729 l 642 75 l 756 75 l 756 0 l 497 0 l 564 332 l 272 332 l 199 0 l 65 0 l 203 654 l 106 654 l 106 729 l 357 729 l 286 407 l 579 407 l 646 729 l 778 729 z "},"о":{"ha":783,"x_min":61,"x_max":722,"o":"m 61 271 q 87 433 61 349 q 165 585 113 517 q 295 698 217 653 q 479 743 374 743 q 661 672 600 743 q 722 465 722 601 q 693 283 722 369 q 611 132 664 197 q 485 26 558 67 q 321 -14 411 -14 q 132 59 203 -14 q 61 271 61 132 m 449 678 q 363 657 400 678 q 299 601 325 636 q 254 520 272 565 q 225 426 236 475 q 210 328 214 376 q 206 238 206 281 q 244 104 206 157 q 349 51 282 51 q 444 90 401 51 q 516 190 486 129 q 562 328 546 250 q 578 488 578 406 q 547 626 578 574 q 449 678 515 678 z "},"п":{"ha":847,"x_min":64,"x_max":754,"o":"m 590 415 q 610 499 601 460 q 618 576 618 539 q 601 631 618 608 q 551 654 585 654 q 472 638 510 654 q 401 597 433 621 q 345 546 369 572 q 307 500 321 519 l 199 0 l 64 0 l 201 654 l 106 654 l 106 729 l 353 729 l 321 585 l 328 585 q 458 699 386 656 q 614 743 531 743 q 722 706 689 743 q 754 611 754 669 q 747 531 754 579 q 728 440 739 482 l 640 75 l 754 75 l 754 0 l 633 0 l 497 0 l 590 415 z "}}}
